<svg width="31" height="33" viewBox="0 0 31 33" fill="none" xmlns="http://www.w3.org/2000/svg">
<path d="M15.2044 18.3802C5.39975 18.3802 0 23.0186 0 31.441C0 32.0988 0.533136 32.6319 1.19094 32.6319H29.2178C29.8756 32.6319 30.4088 32.0988 30.4088 31.441C30.4088 23.019 25.0091 18.3802 15.2044 18.3802ZM2.42521 30.25C2.89366 23.9527 7.18698 20.7622 15.2044 20.7622C23.2219 20.7622 27.5152 23.9527 27.9841 30.25H2.42521Z" fill="#14649C"/>
<path d="M15.2041 0C10.7003 0 7.3042 3.46446 7.3042 8.05835C7.3042 12.7868 10.8481 16.6331 15.2041 16.6331C19.5601 16.6331 23.104 12.7868 23.104 8.05874C23.104 3.46446 19.7079 0 15.2041 0ZM15.2041 14.2517C12.1613 14.2517 9.68607 11.4735 9.68607 8.05874C9.68607 4.76935 12.0068 2.38187 15.2041 2.38187C18.3502 2.38187 20.7221 4.82213 20.7221 8.05874C20.7221 11.4735 18.247 14.2517 15.2041 14.2517Z" fill="#14649C"/>
</svg>
