<svg width="37" height="38" viewBox="0 0 37 38" fill="none" xmlns="http://www.w3.org/2000/svg">
<path d="M23.9599 2.58362L23.9606 2.63362C23.9712 2.63347 23.9817 2.63339 23.9921 2.63348L23.993 2.63347C24.6462 2.62656 25.1814 3.15051 25.1884 3.80381L25.1884 3.82601V3.82652V6.79261H22.8103L22.8103 3.82652L22.8103 3.82563C22.7989 3.17875 23.3139 2.64505 23.9608 2.63362L23.9599 2.58362ZM23.9599 2.58362C23.9708 2.58347 23.9816 2.58339 23.9924 2.58347L22.7603 3.82652C22.7484 3.15203 23.2854 2.59555 23.9599 2.58362ZM21.9108 8.44136L21.9108 8.44136C21.485 8.42911 21.1497 8.07417 21.1615 7.64844V6.04078H11.0396V7.64921C11.0396 8.10869 10.647 8.44138 10.1962 8.44138H6.12142C5.66983 8.44138 5.28657 8.10802 5.28657 7.64921V6.04078H4.91415C3.63848 6.04078 2.59878 7.10515 2.59878 8.38224V10.8194H29.6024V8.38243C29.5975 7.09705 28.5611 6.05389 27.2758 6.04078H26.8371V7.64881C26.8373 7.66069 26.8372 7.67269 26.8368 7.68479C26.8368 7.68481 26.8368 7.68482 26.8368 7.68484L26.7868 7.68313L21.9108 8.44136ZM21.9108 8.44136C21.9258 8.44177 21.9407 8.44178 21.9556 8.44138M21.9108 8.44136L21.9556 8.44138M21.9556 8.44138H26.029H21.9556ZM14.6914 26.3683C14.6885 28.1902 15.1521 29.9819 16.0374 31.573H4.91415C3.6385 31.573 2.59878 30.5078 2.59878 29.2306V12.4682H29.6024V16.5433C28.2677 15.9687 26.8295 15.6724 25.3759 15.673C19.4861 15.673 14.6915 20.4786 14.6914 26.3683ZM14.6914 26.3683L14.7414 26.3684M14.6914 26.3683C14.6914 26.3684 14.6914 26.3684 14.6914 26.3684H14.7414M14.7414 26.3684C14.7385 28.191 15.2047 29.9833 16.0947 31.573L14.7414 26.3684ZM25.3699 37.05H25.37C31.2597 37.05 36.0574 32.2514 36.0574 26.3615C36.0575 22.6379 34.1172 19.3473 31.2511 17.4349V8.38224C31.2511 6.19697 29.4619 4.392 27.276 4.392H26.8371V3.82652C26.8371 2.25926 25.5666 0.988719 23.9993 0.988719C22.4321 0.988719 21.1615 2.25926 21.1615 3.82652V4.392H11.0396V3.82652C11.0396 2.23789 9.75172 0.95 8.16309 0.95C6.57447 0.95 5.28657 2.23789 5.28657 3.82652V4.392H4.91415C2.72811 4.392 0.95 6.19715 0.95 8.38224V29.2306C0.95 31.4158 2.7281 33.2218 4.91415 33.2218H17.1721C19.2062 35.6441 22.2061 37.0453 25.3699 37.05ZM9.39083 3.82652V6.79261H6.93535V3.82678C6.94256 3.16059 7.48843 2.62633 8.15466 2.63339H8.15519L8.15543 2.63336L8.15542 2.63347H8.15876C8.82966 2.63347 9.39083 3.15971 9.39083 3.82652ZM25.37 35.3874C20.3813 35.3874 16.3371 31.3433 16.3371 26.3546C16.3371 21.3658 20.3813 17.3217 25.37 17.3217C30.3587 17.3217 34.4029 21.3658 34.4029 26.3546C34.3973 31.3409 30.3564 35.3818 25.37 35.3874Z" fill="#14649C" stroke="#14649C" stroke-width="0.1"/>
<path d="M28.2479 23L25.8781 25.3699L23.5082 23L22 24.5082L24.3699 26.8781L22 29.2479L23.5082 30.7561L25.8781 28.3863L28.2479 30.7561L29.7562 29.2479L27.3863 26.8781L29.7562 24.5082L28.2479 23Z" fill="#14649C"/>
</svg>
