<svg width="17" height="22" viewBox="0 0 17 22" fill="none" xmlns="http://www.w3.org/2000/svg">
<path d="M16.0242 2.47093H11.9037V0.655141C11.9037 0.574238 11.8718 0.496649 11.8151 0.439443C11.7584 0.382236 11.6815 0.350098 11.6013 0.350098H4.72519C4.64502 0.350144 4.56815 0.382297 4.51146 0.439494C4.45476 0.49669 4.4229 0.574252 4.42285 0.655141V2.47093H0.302343C0.222157 2.47093 0.145255 2.50307 0.0885544 2.56028C0.031854 2.61748 0 2.69507 0 2.77597V4.97943C4.57736e-05 5.06032 0.0319144 5.13788 0.0886048 5.19508C0.145295 5.25227 0.222171 5.28442 0.302343 5.28447H1.03177L1.8576 20.7172C1.8618 20.7952 1.89544 20.8685 1.95161 20.9222C2.00779 20.9759 2.08222 21.0058 2.1596 21.0059H14.1669C14.2443 21.0059 14.3187 20.976 14.3749 20.9223C14.4311 20.8685 14.4647 20.7952 14.4688 20.7172L15.2948 5.28447H16.0242C16.1044 5.28447 16.1813 5.25233 16.238 5.19513C16.2947 5.13792 16.3265 5.06033 16.3265 4.97943V2.77597C16.3266 2.73591 16.3188 2.69623 16.3036 2.65921C16.2884 2.62219 16.2661 2.58855 16.238 2.56022C16.21 2.53189 16.1766 2.50943 16.1399 2.4941C16.1032 2.47878 16.0639 2.47091 16.0242 2.47093ZM5.02754 0.960183H11.299V2.47093H5.02754V0.960183ZM13.8805 20.3958H2.44604L1.63732 5.28447H14.6894L13.8805 20.3958ZM15.7219 4.67439H0.604687V3.08102H4.71932H4.72519C4.72519 3.08102 4.72899 3.08102 4.73107 3.08102H11.5956H11.6013C11.6013 3.08102 11.6053 3.08102 11.6072 3.08102H15.7219V4.67439Z" fill="#DB000D"/>
<path d="M5.1676 16.3533C5.24778 16.3532 5.32466 16.3211 5.38136 16.2639C5.43805 16.2067 5.46992 16.1291 5.46997 16.0482V8.7025C5.46997 8.6216 5.43811 8.54401 5.38141 8.48681C5.3247 8.4296 5.2478 8.39746 5.1676 8.39746C5.08741 8.39746 5.0105 8.4296 4.9538 8.48681C4.89709 8.54401 4.86523 8.6216 4.86523 8.7025V16.0482C4.86523 16.1291 4.89709 16.2067 4.9538 16.2639C5.0105 16.3211 5.08741 16.3533 5.1676 16.3533Z" fill="#DB000D"/>
<path d="M8.16272 16.3533C8.2429 16.3532 8.31978 16.3211 8.37648 16.2639C8.43317 16.2067 8.46504 16.1291 8.46509 16.0482V8.7025C8.46509 8.6216 8.43323 8.54401 8.37653 8.48681C8.31982 8.4296 8.24291 8.39746 8.16272 8.39746C8.08253 8.39746 8.00562 8.4296 7.94891 8.48681C7.89221 8.54401 7.86035 8.6216 7.86035 8.7025V16.0482C7.8604 16.1291 7.89227 16.2067 7.94896 16.2639C8.00566 16.3211 8.08254 16.3532 8.16272 16.3533Z" fill="#DB000D"/>
<path d="M11.1578 16.3533C11.238 16.3533 11.3148 16.3211 11.3715 16.2639C11.4282 16.2067 11.4601 16.1291 11.4601 16.0482V8.7025C11.4601 8.6216 11.4282 8.54401 11.3715 8.48681C11.3148 8.4296 11.238 8.39746 11.1578 8.39746C11.0776 8.39746 11.0007 8.4296 10.944 8.48681C10.8873 8.54401 10.8555 8.6216 10.8555 8.7025V16.0482C10.8555 16.1291 10.8873 16.2067 10.944 16.2639C11.0007 16.3211 11.0776 16.3533 11.1578 16.3533Z" fill="#DB000D"/>
</svg>
