<svg width="22" height="22" viewBox="0 0 22 22" fill="none" xmlns="http://www.w3.org/2000/svg">
<path d="M6.70312 11C6.70312 11.4746 7.08787 11.8594 7.5625 11.8594H10.1406V14.4375C10.1406 14.9121 10.5254 15.2969 11 15.2969C11.4746 15.2969 11.8594 14.9121 11.8594 14.4375V11.8594H14.4375C14.9121 11.8594 15.2969 11.4746 15.2969 11C15.2969 10.5254 14.9121 10.1406 14.4375 10.1406H11.8594V7.5625C11.8594 7.08787 11.4746 6.70312 11 6.70312C10.5254 6.70312 10.1406 7.08787 10.1406 7.5625V10.1406H7.5625C7.08787 10.1406 6.70312 10.5254 6.70312 11Z" fill="#CFD0D1"/>
<path d="M6.89262 2.65534L8.00418 2.19489C8.44263 2.01322 8.6509 1.51053 8.46923 1.07203C8.28756 0.633534 7.78491 0.425179 7.34637 0.606979L6.23481 1.06743C5.79636 1.2491 5.58809 1.7518 5.76976 2.19029C5.95083 2.62733 6.45271 2.83744 6.89262 2.65534Z" fill="#CFD0D1"/>
<path d="M11 0C10.5254 0 10.1406 0.384742 10.1406 0.859375C10.1406 1.33401 10.5254 1.71875 11 1.71875C16.1295 1.71875 20.2812 5.86987 20.2812 11C20.2812 16.1295 16.1301 20.2812 11 20.2812C5.87048 20.2812 1.71875 16.1301 1.71875 11C1.71875 10.5254 1.33401 10.1406 0.859375 10.1406C0.384742 10.1406 0 10.5254 0 11C0 17.0793 4.91979 22 11 22C17.0793 22 22 17.0802 22 11C22 4.92065 17.0802 0 11 0Z" fill="#CFD0D1"/>
<path d="M4.01153 4.86249L4.86226 4.01175C5.19789 3.67613 5.19789 3.13197 4.86226 2.79638C4.52664 2.4608 3.98248 2.46075 3.64689 2.79638L2.79616 3.64712C2.46053 3.98275 2.46053 4.52691 2.79616 4.86249C3.1317 5.19804 3.6759 5.19812 4.01153 4.86249Z" fill="#CFD0D1"/>
<path d="M1.07221 8.46901C1.51166 8.65103 2.01383 8.44143 2.19507 8.00396L2.65553 6.89236C2.8372 6.45386 2.62893 5.95117 2.19048 5.7695C1.75189 5.58787 1.24929 5.7961 1.06762 6.23455L0.607164 7.34611C0.425492 7.78465 0.633761 8.28734 1.07221 8.46901Z" fill="#CFD0D1"/>
</svg>
