<svg width="26" height="22" viewBox="0 0 26 22" fill="none" xmlns="http://www.w3.org/2000/svg">
<path d="M12.5702 6.28564L12.5679 11.7825C12.5679 11.9913 12.6507 12.1908 12.7981 12.3381L16.7304 16.2696L17.8414 15.1586L14.1392 11.4572L14.1415 6.28564H12.5702Z" fill="#FA9E28"/>
<path d="M14.1427 0C8.6122 0 4.035 4.10731 3.2684 9.42848H0L3.92852 13.357L7.85705 9.42848H4.85616C5.60784 4.97646 9.47998 1.57143 14.1427 1.57143C19.3419 1.57143 23.5712 5.80073 23.5712 10.9999C23.5712 16.1991 19.3419 20.4284 14.1427 20.4284C11.2201 20.4284 8.51006 19.1056 6.70765 16.7991L5.46925 17.7659C7.57161 20.456 10.7328 21.9998 14.1427 21.9998C20.2081 21.9998 25.1426 17.0645 25.1426 10.9999C25.1426 4.93527 20.2081 4.56201e-05 14.1427 0Z" fill="#FA9E28"/>
</svg>
