<svg width="24" height="22" viewBox="0 0 24 22" fill="none" xmlns="http://www.w3.org/2000/svg">
<path d="M20.1329 6.43373C19.0615 2.12752 14.733 -0.487049 10.4649 0.593912C7.12942 1.43868 4.70752 4.34718 4.45799 7.80761C2.08969 8.20166 0.486388 10.4581 0.876947 12.8475C1.22414 14.9718 3.0485 16.5274 5.18233 16.5189H8.80407V15.0573H5.18233C3.58216 15.0573 2.28494 13.7485 2.28494 12.134C2.28494 10.5196 3.58216 9.21077 5.18233 9.21077C5.5824 9.21077 5.90668 8.8836 5.90668 8.47996C5.90306 4.84742 8.81887 1.89969 12.4193 1.89608C15.536 1.89293 18.2189 4.11597 18.8218 7.20104C18.8813 7.50908 19.1291 7.7444 19.4375 7.78569C21.4178 8.0702 22.7944 9.92048 22.5125 11.9184C22.2593 13.7124 20.741 15.0482 18.9449 15.0573H16.0475V16.5189H18.9449C21.7453 16.5103 24.0085 14.213 24 11.3877C23.9929 9.03588 22.3974 6.99185 20.1329 6.43373Z" fill="#14649C"/>
<path d="M12.9307 21.576L15.8281 18.6528L14.8068 17.6224L13.1408 19.2959L13.1408 12.2875H11.6921V19.2959L10.0333 17.6224L9.01196 18.6528L11.9094 21.576C12.1919 21.8594 12.6482 21.8594 12.9307 21.576Z" fill="#14649C"/>
</svg>
