<svg width="357" height="357" viewBox="0 0 357 357" fill="none" xmlns="http://www.w3.org/2000/svg">
<path d="M356.999 356.999H0V-3.05176e-05H356.999V356.999Z" fill="white"/>
<path d="M54.2798 111.722L53.9254 111.449C54.2978 110.963 54.7103 110.512 55.1521 110.105L55.4545 110.433C55.0318 110.822 54.6364 111.256 54.2798 111.722ZM52.6279 114.79L52.2074 114.642C52.4103 114.067 52.6568 113.509 52.9401 112.979L53.3337 113.191C53.0611 113.7 52.8236 114.237 52.6279 114.79ZM51.9525 118.218L51.5066 118.196C51.5371 117.593 51.6119 116.988 51.7285 116.393L52.1663 116.481C52.0537 117.052 51.9818 117.637 51.9525 118.218ZM69.6197 118.61C69.1883 118.439 68.7543 118.351 68.33 118.351H68.3286C68.212 118.351 68.0953 118.359 67.9793 118.373L67.9273 117.928C68.0605 117.914 68.1945 117.905 68.3286 117.905H68.3304C68.8109 117.905 69.2998 118.003 69.7841 118.194L69.6197 118.61ZM65.4362 120.313L65.0322 120.124C65.3128 119.524 65.7027 119.03 66.1905 118.653L66.4629 119.007C66.032 119.339 65.6866 119.778 65.4362 120.313ZM72.0651 120.879C71.8158 120.383 71.4625 119.913 71.0441 119.524L71.3483 119.198C71.8054 119.622 72.191 120.135 72.4637 120.679L72.0651 120.879ZM51.8511 121.802C51.7056 121.22 51.6024 120.618 51.5455 120.012L51.9894 119.969C52.0448 120.554 52.1437 121.134 52.2838 121.693L51.8511 121.802ZM64.5287 123.733C64.5041 123.444 64.4916 123.157 64.4916 122.882C64.4914 122.546 64.51 122.218 64.5469 121.907L64.9901 121.959C64.9553 122.253 64.9376 122.564 64.9378 122.882C64.9378 123.144 64.9498 123.419 64.9732 123.696L64.5287 123.733ZM72.719 124.315L72.2906 124.19C72.4328 123.703 72.505 123.208 72.5051 122.718C72.5051 122.644 72.5037 122.571 72.5007 122.5L72.9464 122.48C72.95 122.559 72.9514 122.639 72.9514 122.718C72.9512 123.25 72.873 123.789 72.719 124.315ZM53.2875 125.133C52.9603 124.629 52.6722 124.088 52.4307 123.526L52.8407 123.349C53.0722 123.889 53.3485 124.406 53.6618 124.89L53.2875 125.133ZM65.3539 127.255C65.2632 127 65.1761 126.741 65.0924 126.484C64.991 126.17 64.9007 125.848 64.8232 125.527L65.2573 125.424C65.3318 125.732 65.4192 126.043 65.5169 126.346C65.5992 126.6 65.685 126.853 65.7743 127.107L65.3539 127.255ZM70.8115 127.419L70.4956 127.105C70.9172 126.682 71.2817 126.227 71.5785 125.754L71.9568 125.989C71.6421 126.493 71.2569 126.973 70.8115 127.419ZM55.7531 127.792C55.2692 127.419 54.8169 127.007 54.4086 126.568L54.7355 126.264C55.1271 126.686 55.5614 127.08 56.026 127.441L55.7531 127.792ZM67.8004 129.452L67.6235 129.044C67.7799 128.976 67.935 128.904 68.0883 128.829C68.4535 128.649 68.8118 128.44 69.1526 128.21L69.4019 128.581C69.0447 128.822 68.6692 129.04 68.2859 129.229C68.1255 129.308 67.9637 129.383 67.8004 129.452ZM58.9218 129.549C58.3526 129.336 57.7976 129.081 57.2721 128.79L57.4879 128.399C57.9944 128.679 58.5297 128.926 59.0782 129.131L58.9218 129.549ZM64.2775 130.315L64.242 129.87C64.8286 129.824 65.4092 129.731 65.9681 129.595L66.0736 130.029C65.4917 130.17 64.8877 130.266 64.2775 130.315ZM62.4608 130.322C61.8612 130.279 61.2563 130.193 60.6636 130.063L60.7586 129.627C61.3307 129.752 61.9138 129.836 62.4922 129.877L62.4608 130.322ZM66.7519 130.566C66.487 130.029 66.2352 129.479 66.0042 128.931L66.4149 128.758C66.6432 129.297 66.8908 129.84 67.1519 130.368L66.7519 130.566ZM68.5226 133.694C68.1994 133.19 67.8865 132.673 67.593 132.155L67.9812 131.935C68.2706 132.446 68.579 132.956 68.8978 133.451L68.5226 133.694ZM70.6302 136.603C70.2539 136.139 69.8858 135.659 69.5363 135.177L69.8976 134.914C70.2423 135.391 70.6054 135.864 70.9766 136.321L70.6302 136.603ZM73.041 139.266C72.6174 138.845 72.1999 138.408 71.7999 137.967L72.1306 137.667C72.5253 138.103 72.9373 138.534 73.3552 138.949L73.041 139.266ZM75.7228 141.656C75.2565 141.283 74.7949 140.892 74.3501 140.496L74.6468 140.162C75.0857 140.555 75.5416 140.939 76.0018 141.307L75.7228 141.656ZM78.645 143.745C78.1429 143.425 77.6418 143.086 77.1558 142.74L77.4155 142.376C77.8951 142.72 78.3894 143.054 78.8847 143.368L78.645 143.745ZM81.7768 145.507C81.2416 145.243 80.7069 144.96 80.1869 144.668L80.4055 144.279C80.9186 144.568 81.446 144.846 81.9738 145.105L81.7768 145.507ZM85.0858 146.908C84.525 146.706 83.9616 146.487 83.4115 146.253L83.5859 145.842C84.1282 146.073 84.6833 146.29 85.2361 146.487L85.0858 146.908ZM88.5343 147.918C87.9559 147.786 87.3706 147.633 86.795 147.463L86.9204 147.035C87.4879 147.202 88.0644 147.352 88.634 147.483L88.5343 147.918Z" fill="#D2D2D2"/>
<path d="M64.5386 112.945H44.9384C42.0946 112.945 39.7891 110.638 39.7891 107.795V104.705C39.7891 101.862 42.0946 99.5572 44.9384 99.5572H64.5386C67.3825 99.5572 69.6878 101.862 69.6878 104.705V107.795C69.6878 110.638 67.3825 112.945 64.5386 112.945Z" fill="#EDEDED"/>
<path d="M49.779 106.251C49.779 107.374 48.8681 108.284 47.7446 108.284C46.6212 108.284 45.7104 107.374 45.7104 106.251C45.7104 105.126 46.6212 104.216 47.7446 104.216C48.8681 104.216 49.779 105.126 49.779 106.251Z" fill="white"/>
<path d="M56.7728 106.251C56.7728 107.374 55.8619 108.284 54.7385 108.284C53.615 108.284 52.7041 107.374 52.7041 106.251C52.7041 105.126 53.615 104.216 54.7385 104.216C55.8619 104.216 56.7728 105.126 56.7728 106.251Z" fill="white"/>
<path d="M63.7667 106.251C63.7667 107.374 62.8558 108.284 61.7324 108.284C60.6089 108.284 59.698 107.374 59.698 106.251C59.698 105.126 60.6089 104.216 61.7324 104.216C62.8558 104.216 63.7667 105.126 63.7667 106.251Z" fill="white"/>
<path d="M85.3018 76.3076V173.753C85.3018 179.993 90.3604 185.052 96.6008 185.052H260.399C266.64 185.052 271.698 179.993 271.698 173.753V76.3076H85.3018Z" fill="white"/>
<path d="M85.748 76.7538V173.752C85.748 179.738 90.6166 184.605 96.6009 184.605H260.399C266.383 184.605 271.252 179.738 271.252 173.752V76.7538H85.748ZM260.399 185.498H96.6009C90.1242 185.498 84.8555 180.228 84.8555 173.752V75.8613H272.145V173.752C272.145 180.228 266.875 185.498 260.399 185.498Z" fill="#D2D2D2"/>
<path d="M271.698 70.7419C271.698 64.5005 266.64 59.442 260.4 59.442H96.6009C90.3606 59.442 85.3018 64.5005 85.3018 70.7419V76.3079H271.698V70.7419Z" fill="#D2D2D2"/>
<path d="M85.7478 75.8623H271.251V70.7415C271.251 64.7577 266.383 59.8891 260.399 59.8891H96.6009C90.6164 59.8891 85.7478 64.7577 85.7478 70.7415V75.8623ZM272.144 76.7545H84.8555V70.7415C84.8555 64.2659 90.1242 58.9969 96.6009 58.9969H260.399C266.875 58.9969 272.144 64.2659 272.144 70.7415V76.7545Z" fill="#D2D2D2"/>
<path d="M109.746 67.874C109.746 70.1151 107.93 71.9299 105.69 71.9299C103.45 71.9299 101.634 70.1151 101.634 67.874C101.634 65.6346 103.45 63.818 105.69 63.818C107.93 63.818 109.746 65.6346 109.746 67.874Z" fill="white"/>
<path d="M123.692 67.874C123.692 70.1151 121.876 71.9299 119.635 71.9299C117.395 71.9299 115.579 70.1151 115.579 67.874C115.579 65.6346 117.395 63.818 119.635 63.818C121.876 63.818 123.692 65.6346 123.692 67.874Z" fill="white"/>
<path d="M137.637 67.874C137.637 70.1151 135.821 71.9299 133.581 71.9299C131.341 71.9299 129.524 70.1151 129.524 67.874C129.524 65.6346 131.341 63.818 133.581 63.818C135.821 63.818 137.637 65.6346 137.637 67.874Z" fill="white"/>
<path d="M245.439 71.5934H224.911C222.856 71.5934 221.192 69.9279 221.192 67.8744C221.192 65.8209 222.856 64.1555 224.911 64.1555H245.439C247.492 64.1555 249.156 65.8209 249.156 67.8744C249.156 69.9279 247.492 71.5934 245.439 71.5934Z" fill="white"/>
<path d="M203.379 94.3807H153.622V89.0257H203.379V94.3807Z" fill="#599BFF"/>
<path d="M237.999 164.665H119V157.227H237.999V164.665Z" fill="white"/>
<path d="M119.223 164.442H237.776V157.45H119.223V164.442ZM238.223 164.888H118.777V157.004H238.223V164.888Z" fill="#D2D2D2"/>
<path d="M182.247 162.711H119V159.182H182.247V162.711Z" fill="#D2D2D2"/>
<path d="M178 124.867V117.837L181.513 121.352L178 124.867Z" fill="#FFD966"/>
<path d="M184.69 124.867V117.837L188.203 121.352L184.69 124.867Z" fill="#FFD966"/>
<path d="M129.748 137.688H108.67C107.557 137.688 106.655 136.785 106.655 135.673V108.87C106.655 107.756 107.557 106.854 108.67 106.854H129.748C130.861 106.854 131.764 107.756 131.764 108.87V135.673C131.764 136.785 130.861 137.688 129.748 137.688Z" fill="white"/>
<path d="M143.239 107.077C142.25 107.077 141.446 107.881 141.446 108.87V135.673C141.446 136.662 142.25 137.465 143.239 137.465H164.317C165.305 137.465 166.109 136.662 166.109 135.673V108.87C166.109 107.881 165.305 107.077 164.317 107.077H143.239ZM164.317 137.911H143.239C142.004 137.911 141 136.907 141 135.673V108.87C141 107.636 142.004 106.631 143.239 106.631H164.317C165.551 106.631 166.556 107.636 166.556 108.87V135.673C166.556 136.907 165.551 137.911 164.317 137.911Z" fill="black"/>
<path d="M149.017 112.1H145.042V110.353H149.017V112.1Z" fill="#599BFF"/>
<path d="M157.893 111.394H151.215V111.06H157.893V111.394Z" fill="black"/>
<path d="M149.314 116.447H145.042V116.111H149.314V116.447Z" fill="black"/>
<path d="M153.569 118.876H145.042V118.541H153.569V118.876Z" fill="black"/>
<path d="M162.514 121.306H145.042V120.97H162.514V121.306Z" fill="black"/>
<path d="M159.846 123.735H145.042V123.399H159.846V123.735Z" fill="black"/>
<path d="M152.453 126.163H145.042V125.829H152.453V126.163Z" fill="black"/>
<path d="M162.514 128.592H145.042V128.258H162.514V128.592Z" fill="black"/>
<path d="M250.548 121.352C250.548 127.673 245.423 132.796 239.103 132.796C232.782 132.796 227.659 127.673 227.659 121.352C227.659 115.031 232.782 109.907 239.103 109.907C245.423 109.907 250.548 115.031 250.548 121.352Z" fill="white"/>
<path d="M210.667 110.13C204.48 110.13 199.446 115.165 199.446 121.352C199.446 127.539 204.48 132.573 210.667 132.573C216.854 132.573 221.889 127.539 221.889 121.352C221.889 115.165 216.854 110.13 210.667 110.13ZM210.667 133.019C204.234 133.019 199 127.785 199 121.352C199 114.919 204.234 109.683 210.667 109.683C217.1 109.683 222.335 114.919 222.335 121.352C222.335 127.785 217.1 133.019 210.667 133.019Z" fill="black"/>
<path d="M212.953 118.548C212.953 120.047 211.929 121.263 210.667 121.263C209.405 121.263 208.382 120.047 208.382 118.548C208.382 117.05 209.405 115.835 210.667 115.835C211.929 115.835 212.953 117.05 212.953 118.548Z" fill="black"/>
<path d="M215.62 126.87H205.713V126.845C205.713 124.56 207.231 122.55 209.43 121.927L210.608 121.593L211.873 121.943C214.087 122.557 215.62 124.572 215.62 126.87Z" fill="black"/>
<path d="M211.997 122.703H209.337V120.112H211.997V122.703Z" fill="black"/>
<path d="M226.464 110.512C226.464 114.275 223.414 117.325 219.651 117.325C215.888 117.325 212.837 114.275 212.837 110.512C212.837 106.749 215.888 103.698 219.651 103.698C223.414 103.698 226.464 106.749 226.464 110.512Z" fill="#FF5970"/>
<path d="M216.796 109.7C216.796 110.11 217.016 110.464 217.471 110.464C217.773 110.464 217.985 110.317 218.089 110.148C218.124 110.082 218.148 110.008 218.148 109.869C218.148 109.362 217.957 108.862 217.45 108.862C217.068 108.862 216.789 109.2 216.796 109.7ZM216.12 112.093C216.259 112.109 216.384 112.109 216.605 112.093C216.943 112.072 217.287 111.977 217.544 111.801C217.853 111.586 218.06 111.279 218.148 110.919L218.124 110.912C217.912 111.131 217.603 111.256 217.171 111.256C216.363 111.256 215.679 110.692 215.679 109.766C215.679 108.834 216.429 108.047 217.478 108.047C218.705 108.047 219.286 108.987 219.286 110.103C219.286 111.095 218.969 111.822 218.447 112.3C217.992 112.711 217.369 112.939 216.627 112.968C216.436 112.982 216.245 112.975 216.12 112.968V112.093Z" fill="white"/>
<path d="M222.087 108.995V110.596H223.62V111.286H222.087V112.902H221.366V111.286H219.831V110.596H221.366V108.995H222.087Z" fill="white"/>
<path d="M247.124 317.199C247.081 317.199 247.039 317.192 246.996 317.179C246.76 317.108 246.626 316.86 246.698 316.624L267.195 248.408C267.266 248.173 267.511 248.039 267.75 248.11C267.987 248.182 268.121 248.43 268.05 248.666L247.553 316.881C247.494 317.074 247.317 317.199 247.124 317.199Z" fill="black"/>
<path d="M305.93 317.199C305.738 317.199 305.561 317.074 305.503 316.881L285.006 248.665C284.935 248.43 285.068 248.182 285.305 248.11C285.544 248.039 285.788 248.173 285.862 248.408L306.359 316.624C306.428 316.859 306.296 317.108 306.058 317.179C306.016 317.191 305.973 317.199 305.93 317.199Z" fill="black"/>
<path d="M240.673 251.53L286.837 251.298C295.292 251.255 302.759 245.772 305.33 237.716L314.732 198.807L280.293 185.701L240.673 251.53Z" fill="#EDEDED"/>
<path d="M280.483 186.251L241.467 251.08L286.835 250.852C295.123 250.809 302.385 245.475 304.905 237.58L314.205 199.083L280.483 186.251ZM239.883 251.98L280.102 185.151L280.453 185.285L315.259 198.53L305.764 237.821C303.116 246.118 295.515 251.7 286.839 251.744L239.883 251.98Z" fill="black"/>
<path d="M118.309 258.263H147.155V246.1H118.309V258.263ZM148.047 259.156H117.417V245.208H148.047V259.156Z" fill="#D2D2D2"/>
<path d="M102.352 271.319H131.197V259.156H102.352V271.319ZM132.09 272.211H101.46V258.263H132.09V272.211Z" fill="#D2D2D2"/>
<path d="M216.181 295.684L209.52 316.554L183.009 304.972C187.248 299.411 194.611 298.073 200.525 299.858L202.979 290.151L216.181 295.684Z" fill="#929292"/>
<path d="M289.695 212.246L289.83 227.038L238.845 245.481L218.614 298.819L196.302 289.894L207.892 238.032C208.774 234.137 210.573 230.51 213.141 227.453C217.14 222.694 222.768 219.591 228.928 218.752L272.905 212.767L289.695 212.246Z" fill="#14649C"/>
<path d="M225.353 294.463L218.27 316.654L188.498 304.34C193.671 299.495 199.642 298.215 206.375 300.332L210.57 288.478L225.353 294.463Z" fill="#D2D2D2"/>
<path d="M299.978 225.7C300.059 234.736 292.97 242.215 283.937 242.613L248.99 244.143L226.754 301.946L223.912 300.807L209.833 295.176L204.441 293.019L219.384 230.768C221.114 224.49 226.29 219.765 232.693 218.599L264.096 212.888L268.032 212.173L299.842 210.906L299.93 220.301L299.978 225.7Z" fill="#14649C"/>
<path d="M299.931 220.301L271.005 214.315L298.827 214.524C298.838 214.526 298.847 214.526 298.858 214.526C299.208 214.526 299.546 214.487 299.876 214.412L299.931 220.301Z" fill="#CC475A"/>
<path d="M204.443 293.287C204.423 293.287 204.404 293.283 204.382 293.28C204.238 293.246 204.149 293.101 204.182 292.958L218.703 230.319C219.276 227.851 220.46 225.537 222.124 223.625C224.437 220.969 227.618 219.163 231.082 218.538L239.413 217.037C239.559 217.014 239.697 217.107 239.724 217.253C239.75 217.398 239.654 217.537 239.508 217.564L231.177 219.067C227.832 219.67 224.76 221.414 222.527 223.977C220.92 225.823 219.778 228.058 219.226 230.441L204.704 293.078C204.675 293.203 204.564 293.287 204.443 293.287Z" fill="black"/>
<path d="M209.339 306.105C209.18 306.105 209.027 306.019 208.947 305.871L206.046 300.516C205.928 300.298 206.009 300.027 206.225 299.911C206.442 299.793 206.712 299.874 206.83 300.09L209.73 305.445C209.848 305.662 209.768 305.934 209.552 306.05C209.484 306.087 209.411 306.105 209.339 306.105Z" fill="black"/>
<path d="M224.478 290.218C221.412 288.666 218.88 286.277 216.037 284.38C213.408 282.627 210.462 281.434 207.362 280.86L207.248 281.335C210.544 281.954 213.72 283.28 216.544 285.269C219.421 287.295 222.072 289.745 225.358 291.113C227.031 291.809 228.782 292.116 230.54 292.107L230.724 291.63C228.653 291.679 226.559 291.272 224.478 290.218Z" fill="white"/>
<path d="M269.938 156.097H281.154V140.924H269.938V156.097Z" fill="#FF8F78"/>
<path d="M278.953 146.847C277.668 149.546 273.392 152.92 269.938 154.375V145.655L278.953 146.847Z" fill="black"/>
<path d="M280.588 140.942L280.231 142.397L279.008 147.351C278.844 147.461 278.669 147.574 278.483 147.681C276.332 148.925 272.712 149.925 269.942 149.844C268.559 149.805 267.388 149.502 266.709 148.823C265.787 147.899 265.189 146.176 264.81 144.227C264.635 143.338 264.507 142.406 264.408 141.473C264.198 139.452 264.15 137.447 264.15 136.01C264.144 134.731 264.185 133.901 264.185 133.901L271.806 130.197L279.281 132.374L279.947 136.739L280.29 138.983L280.584 140.925L280.588 140.942Z" fill="#FF8F78"/>
<path d="M281.861 138.945C284.854 128.819 282.078 121.47 268.141 126.696C256.164 120.545 253.877 144.118 275.272 133.121C277.227 134.425 278.766 136.253 279.574 139L281.861 138.945Z" fill="black"/>
<path d="M283.358 140.541C282.732 142.06 281.082 142.822 279.674 142.242C278.265 141.662 277.632 139.959 278.256 138.44C278.883 136.919 280.532 136.159 281.941 136.739C283.349 137.319 283.985 139.02 283.358 140.541Z" fill="#FF8F78"/>
<path d="M268.532 143.097C268.493 143.097 268.453 143.086 268.418 143.065C268.353 143.027 268.291 142.992 268.227 142.958C267.841 142.747 267.313 142.456 267.62 141.771C267.722 141.542 267.87 141.389 268.002 141.251C268.205 141.041 268.38 140.857 268.419 140.4C268.43 140.277 268.541 140.186 268.662 140.196C268.785 140.207 268.876 140.316 268.866 140.437C268.812 141.053 268.552 141.323 268.323 141.56C268.202 141.687 268.096 141.796 268.027 141.953C267.9 142.235 267.993 142.32 268.441 142.567C268.509 142.604 268.578 142.642 268.644 142.681C268.751 142.744 268.785 142.881 268.723 142.988C268.68 143.058 268.607 143.097 268.532 143.097Z" fill="black"/>
<path d="M270.056 137.501C269.951 137.826 270.661 137.931 271.613 138.02C272.564 138.11 273.56 138.354 273.582 138.129C273.603 137.904 272.728 137.153 271.777 137.064C270.826 136.974 270.228 136.964 270.056 137.501Z" fill="black"/>
<path d="M267.629 137.888C267.693 138.217 267.082 138.293 266.27 138.347C265.458 138.401 264.596 138.608 264.594 138.383C264.594 138.158 265.392 137.442 266.202 137.39C267.014 137.337 267.523 137.349 267.629 137.888Z" fill="black"/>
<path d="M269.317 145.267C268.928 145.267 268.537 145.189 268.171 145.007C268.061 144.952 268.016 144.818 268.071 144.707C268.127 144.596 268.262 144.553 268.371 144.607C269.464 145.153 270.886 144.545 271.452 143.914C271.534 143.822 271.675 143.814 271.766 143.897C271.859 143.979 271.866 144.12 271.784 144.213C271.299 144.755 270.317 145.267 269.317 145.267Z" fill="black"/>
<path d="M270.613 139.805C270.613 140.205 270.863 140.53 271.172 140.53C271.479 140.53 271.729 140.205 271.729 139.805C271.729 139.404 271.479 139.081 271.172 139.081C270.863 139.081 270.613 139.404 270.613 139.805Z" fill="black"/>
<path d="M266.04 139.805C266.04 140.205 266.29 140.53 266.597 140.53C266.906 140.53 267.156 140.205 267.156 139.805C267.156 139.404 266.906 139.081 266.597 139.081C266.29 139.081 266.04 139.404 266.04 139.805Z" fill="black"/>
<path d="M274.221 143.077C273.451 143.077 272.827 142.453 272.827 141.683C272.827 140.912 273.451 140.289 274.221 140.289C274.99 140.289 275.615 140.912 275.615 141.683C275.615 142.453 274.99 143.077 274.221 143.077Z" fill="#FF7975"/>
<path d="M264.81 144.227C264.635 143.338 264.507 142.406 264.409 141.473C264.46 141.464 264.519 141.46 264.573 141.46C265.34 141.46 265.965 142.085 265.965 142.852C265.965 143.543 265.465 144.114 264.81 144.227Z" fill="#FF7975"/>
<path d="M280.19 141.182C280.088 141.182 279.995 141.112 279.972 141.008C279.763 140.105 279.877 139.275 280.286 138.734C280.573 138.352 280.979 138.138 281.461 138.113C281.582 138.11 281.689 138.202 281.694 138.324C281.702 138.447 281.607 138.552 281.484 138.559C281.137 138.577 280.848 138.731 280.643 139.002C280.315 139.439 280.227 140.134 280.407 140.909C280.434 141.028 280.359 141.148 280.24 141.176C280.222 141.18 280.206 141.182 280.19 141.182Z" fill="black"/>
<path d="M322.774 193.957L303.435 193.877V209.947C303.435 210.352 303.38 210.745 303.283 211.12C302.76 213.089 300.962 214.538 298.827 214.524L256.639 214.208C254.249 214.19 252.388 212.119 252.629 209.736L254.199 194.323L243.936 179.374L246.34 170.801C248.045 164.728 252.673 159.908 258.671 157.958L270.047 154.269L275.782 156.075L279.786 153.497L292.974 155.182C299.637 156.035 305.477 160.042 308.673 165.951L320.683 188.165C321.667 189.985 322.368 191.94 322.774 193.957Z" fill="#FFD966"/>
<path d="M263.987 186.433L266.584 186.371L288.899 175.969C289.42 175.727 289.645 175.107 289.402 174.586C289.159 174.065 288.54 173.84 288.019 174.083L265.704 184.484L263.987 186.433Z" fill="black"/>
<path d="M269.954 152.668L275.706 156.127L271.245 160.203L265.046 156.015L269.954 152.668Z" fill="#FFD966"/>
<path d="M275.706 156.127L280.393 159.681L284.681 154.082L281.184 151.701L275.706 156.127Z" fill="#FFD966"/>
<path d="M271.27 160.388L264.9 156.24C264.775 156.159 264.741 155.993 264.821 155.869C264.901 155.745 265.069 155.711 265.192 155.792L271.222 159.719L275.69 155.785L280.415 159.237L284.467 153.919C284.558 153.802 284.726 153.778 284.843 153.869C284.961 153.959 284.983 154.126 284.893 154.244L280.522 159.978L275.722 156.472L271.27 160.388Z" fill="black"/>
<path d="M303.284 211.119C295.981 207.526 289.107 201.851 282.463 195.068L303.437 195.304V209.946C303.437 210.352 303.381 210.744 303.284 211.119Z" fill="#CCAE52"/>
<path d="M288.115 182.274L280.215 175.741C279.735 175.343 279.056 175.291 278.521 175.611L272.3 179.272C272.066 179.409 271.893 179.627 271.809 179.882L271.045 182.217C270.581 183.108 270.419 184.097 270.394 185.132C270.294 185.575 270.597 186.007 271.045 186.067L270.931 188.516C270.902 189.145 271.368 189.685 271.995 189.748L272.334 191.203C272.475 191.804 273.134 192.126 273.694 191.865L276.568 190.53L282.462 195.067L288.506 190.026L288.115 182.274Z" fill="#FF8F78"/>
<path d="M270.929 182.538C270.824 182.538 270.722 182.474 270.681 182.369C270.626 182.231 270.694 182.076 270.831 182.021L276.266 179.868C276.404 179.813 276.559 179.88 276.613 180.018C276.668 180.155 276.6 180.311 276.463 180.366L271.027 182.519C270.995 182.531 270.963 182.538 270.929 182.538Z" fill="black"/>
<path d="M271.045 186.335C270.942 186.335 270.842 186.272 270.799 186.169C270.742 186.033 270.806 185.876 270.944 185.819L274.96 184.147C275.095 184.089 275.252 184.154 275.31 184.291C275.367 184.427 275.302 184.584 275.165 184.641L271.149 186.314C271.115 186.328 271.081 186.335 271.045 186.335Z" fill="black"/>
<path d="M271.995 190.016C271.904 190.016 271.816 189.971 271.766 189.889C271.69 189.762 271.729 189.598 271.854 189.521L275.183 187.476C275.31 187.397 275.474 187.438 275.551 187.563C275.629 187.688 275.59 187.854 275.463 187.931L272.134 189.976C272.091 190.003 272.041 190.016 271.995 190.016Z" fill="black"/>
<path d="M323.173 198.779C323.102 200.927 322.305 202.912 321.006 204.474C319.701 206.041 317.895 207.183 315.799 207.648C315.128 207.794 314.454 207.865 313.776 207.865C312.487 207.865 311.202 207.603 310.004 207.08L282.462 195.067L288.116 182.274L322.775 193.956C323.096 195.536 323.231 197.155 323.173 198.779Z" fill="#FFD966"/>
<path d="M314.059 191.76C314.03 191.76 313.997 191.756 313.968 191.745L288.025 182.526C287.886 182.476 287.813 182.324 287.863 182.183C287.911 182.046 288.065 181.973 288.204 182.021L314.148 191.24C314.286 191.29 314.36 191.442 314.31 191.583C314.273 191.692 314.169 191.76 314.059 191.76Z" fill="black"/>
<path d="M255.621 190.583C255.48 190.583 255.362 190.474 255.353 190.333L254.155 171.386C254.145 171.237 254.257 171.111 254.405 171.102C254.548 171.087 254.68 171.203 254.689 171.352L255.889 190.299C255.898 190.448 255.785 190.574 255.639 190.583H255.621Z" fill="black"/>
<path d="M302.44 187.457C302.324 187.457 302.219 187.384 302.183 187.27L297.388 172.039C297.343 171.898 297.421 171.748 297.561 171.704C297.704 171.657 297.852 171.737 297.899 171.878L302.694 187.109C302.739 187.25 302.661 187.4 302.519 187.445C302.492 187.454 302.466 187.457 302.44 187.457Z" fill="black"/>
<path d="M229.21 177.142L255.092 177.589L272.496 207.71L245.944 207.264L229.21 177.142Z" fill="#599BFF"/>
<path d="M238.371 176.917L239.356 178.784C239.454 178.974 239.649 179.093 239.861 179.099L245.184 179.234C245.613 179.245 245.907 178.809 245.739 178.415L244.963 176.591C244.874 176.38 244.668 176.241 244.44 176.234L238.91 176.055C238.458 176.041 238.16 176.518 238.371 176.917Z" fill="black"/>
<path d="M232.893 190.637C239.533 186.317 246.971 182.215 245.354 187.145C247.264 186.808 248.072 187.875 246.764 189.687C248.756 189.503 249.259 190.637 246.732 193.529C250.63 193.052 247.374 196.9 240.87 201.39C239.856 202.089 238.663 202.491 237.435 202.541L236.7 202.571C234.392 202.664 232.207 201.525 230.965 199.578C229.749 197.673 229.61 195.274 230.601 193.243L230.606 193.23C231.12 192.176 231.909 191.278 232.893 190.637Z" fill="#FF8F78"/>
<path d="M238.171 191.851C238.08 191.851 237.992 191.806 237.942 191.724C237.864 191.599 237.903 191.435 238.028 191.356L245.212 186.917C245.337 186.84 245.502 186.879 245.58 187.004C245.659 187.129 245.619 187.295 245.493 187.372L238.31 191.811C238.265 191.838 238.217 191.851 238.171 191.851Z" fill="black"/>
<path d="M239.959 194.03C239.868 194.03 239.779 193.984 239.729 193.9C239.654 193.773 239.695 193.609 239.822 193.532L246.626 189.457C246.755 189.38 246.917 189.423 246.994 189.548C247.069 189.676 247.028 189.841 246.901 189.916L240.097 193.991C240.054 194.018 240.006 194.03 239.959 194.03Z" fill="black"/>
<path d="M240.713 197.932C240.627 197.932 240.543 197.891 240.491 197.816C240.408 197.695 240.438 197.527 240.561 197.443L246.582 193.307C246.703 193.223 246.869 193.255 246.953 193.377C247.037 193.498 247.007 193.666 246.885 193.748L240.864 197.886C240.818 197.916 240.765 197.932 240.713 197.932Z" fill="black"/>
<path d="M277.234 162.602C277.234 163.187 276.759 163.66 276.174 163.66C275.588 163.66 275.113 163.187 275.113 162.602C275.113 162.016 275.588 161.541 276.174 161.541C276.759 161.541 277.234 162.016 277.234 162.602Z" fill="black"/>
<path d="M177.458 207.95C177.378 207.95 177.297 207.928 177.224 207.884C177.014 207.753 176.95 207.478 177.079 207.269L198.822 172.157L204.402 171.691C204.652 171.671 204.863 171.853 204.882 172.1C204.904 172.344 204.722 172.56 204.476 172.582L199.345 173.008L177.838 207.739C177.754 207.875 177.608 207.95 177.458 207.95Z" fill="black"/>
<path d="M200.47 154.473L206.382 150.191L213.37 194.539L206.558 193.109L200.47 154.473Z" fill="#D2D2D2"/>
<path d="M146.057 316.333C145.996 316.333 145.935 316.321 145.876 316.294C145.651 316.194 145.549 315.931 145.649 315.705L193.38 207.907C193.48 207.682 193.742 207.58 193.969 207.68C194.194 207.78 194.295 208.044 194.195 208.269L146.465 316.067C146.391 316.233 146.228 316.333 146.057 316.333Z" fill="black"/>
<path d="M282.989 316.333C282.817 316.333 282.655 316.233 282.582 316.067L234.851 208.269C234.751 208.044 234.852 207.78 235.077 207.68C235.302 207.58 235.566 207.682 235.666 207.907L283.397 315.705C283.496 315.931 283.396 316.194 283.169 316.294C283.11 316.321 283.049 316.333 282.989 316.333Z" fill="black"/>
<path d="M280.959 210.579H148.087V207.384H280.959V210.579Z" fill="black"/>
<path d="M79.228 228.238H78.3921V208.414C78.3921 203.685 82.2388 199.839 86.967 199.839C91.6953 199.839 95.5418 203.685 95.5418 208.414V228.161H94.7059V208.414C94.7059 204.146 91.2343 200.674 86.967 200.674C82.6998 200.674 79.228 204.146 79.228 208.414V228.238Z" fill="white"/>
<path d="M356.999 317.042H0V316.149H356.999V317.042Z" fill="black"/>
</svg>
