<svg width="21" height="21" viewBox="0 0 21 21" fill="none" xmlns="http://www.w3.org/2000/svg">
<path d="M12.9063 0H19.4688C20.3131 0 21 0.686852 21 1.5312V5.4687C21 6.3132 20.3131 7.00005 19.4688 7.00005H12.9063C12.0618 7.00005 11.3749 6.3132 11.3749 5.4687V1.5312C11.3749 0.686852 12.0618 0 12.9063 0Z" fill="#333333" fill-opacity="0.5"/>
<path d="M12.9063 8.75H19.4688C20.3131 8.75 21 9.43685 21 10.2814V19.4689C21 20.3132 20.3131 21.0001 19.4688 21.0001H12.9063C12.0618 21.0001 11.3749 20.3132 11.3749 19.4689V10.2814C11.3749 9.43685 12.0618 8.75 12.9063 8.75Z" fill="#333333" fill-opacity="0.5"/>
<path d="M1.53114 14H8.09364C8.93815 14 9.625 14.6869 9.625 15.5314V19.4689C9.625 20.3132 8.93815 21.0001 8.09364 21.0001H1.53114C0.686798 21.0001 -5.34058e-05 20.3132 -5.34058e-05 19.4689V15.5314C-5.34058e-05 14.6869 0.686798 14 1.53114 14Z" fill="#333333" fill-opacity="0.5"/>
<path d="M1.53114 0H8.09364C8.93815 0 9.625 0.686852 9.625 1.5312V10.7187C9.625 11.5632 8.93815 12.2501 8.09364 12.2501H1.53114C0.686798 12.2501 -5.34058e-05 11.5632 -5.34058e-05 10.7187V1.5312C-5.34058e-05 0.686852 0.686798 0 1.53114 0V0Z" fill="#333333" fill-opacity="0.5"/>
</svg>
