<svg width="14" height="13" viewBox="0 0 14 13" fill="none" xmlns="http://www.w3.org/2000/svg">
<path d="M13.6643 6.49984L12.1174 4.78242L12.3596 2.48321L10.0977 2.00437L8.94389 0L6.83215 0.943802L6.54712 6.49984L6.83215 12.0558L8.94391 12.9996L10.0977 10.9953L12.3596 10.5164L12.1174 8.21723L13.6643 6.49984Z" fill="#068981"/>
<path d="M4.72037 0.000244141L3.5666 2.00462L1.30466 2.48348L1.54686 4.78266L0 6.50008L1.54686 8.21747L1.30466 10.5167L3.5666 10.9955L4.7204 12.9999L6.83216 12.0561V0.944046L4.72037 0.000244141Z" fill="#068981"/>
<path d="M9.77095 5.0706L9.83753 4.996L9.76293 4.92941L9.1649 4.39561L9.09029 4.32902L9.0237 4.40362L6.75754 6.94252L6.74733 6.95396L6.74102 6.96794L6.45599 7.5989L6.43645 7.64213L6.45759 7.68461L6.74262 8.25748L6.80841 8.3897L6.90675 8.27952L9.77095 5.0706Z" fill="#F7F0EB" stroke="white" stroke-width="0.2"/>
<path d="M4.52154 5.82553L4.45083 5.75482L4.38012 5.82553L3.81332 6.39236L3.74261 6.46307L3.81332 6.53378L6.19641 8.91689L6.27125 8.99173L6.34172 8.91277L6.907 8.27946L6.9324 8.25101V8.21287V7.00905V6.74684L6.75779 6.94246L6.22991 7.53387L4.52154 5.82553Z" fill="#FFFBF5" stroke="white" stroke-width="0.2"/>
</svg>
