<svg width="35" height="41" viewBox="0 0 35 41" fill="none" xmlns="http://www.w3.org/2000/svg">
<path d="M7.5 0.225342C6.125 0.225342 5 1.36038 5 2.74765V38.06C5 39.4472 6.125 40.5823 7.5 40.5823H32.5C33.875 40.5823 35 39.4472 35 38.06V10.3146L25 0.225342H7.5Z" fill="#E2E5E7"/>
<path d="M27.499 10.3146H34.999L24.999 0.225342V7.79227C24.999 9.17954 26.124 10.3146 27.499 10.3146Z" fill="#B0B7BD"/>
<path d="M35.001 17.8813L27.501 10.3145H35.001V17.8813Z" fill="#CAD1D8"/>
<path d="M30 33.0152C30 33.7088 29.4375 34.2764 28.75 34.2764H1.25C0.5625 34.2764 0 33.7088 0 33.0152V20.4037C0 19.7101 0.5625 19.1426 1.25 19.1426H28.75C29.4375 19.1426 30 19.7101 30 20.4037V33.0152Z" fill="#50BEE8"/>
<path d="M8.58982 24.1205C8.58982 23.273 9.90982 23.273 9.90982 24.1205V28.1032C9.90982 29.6873 9.15982 30.6458 7.43106 30.6458C6.58106 30.6458 5.87231 30.4124 5.2523 29.6066C4.7423 28.9911 5.70231 28.1045 6.22231 28.749C6.64231 29.2736 7.09231 29.3947 7.53106 29.3745C8.08981 29.3543 8.58107 29.1008 8.59107 28.1032V24.1205H8.58982Z" fill="white"/>
<path d="M11.666 24.1195C11.666 23.7866 11.926 23.4233 12.346 23.4233H14.6548C15.9548 23.4233 17.1248 24.3011 17.1248 25.9835C17.1248 27.5776 15.9548 28.4655 14.6548 28.4655H12.986V29.7973C12.986 30.2412 12.706 30.4922 12.346 30.4922C12.016 30.4922 11.666 30.2412 11.666 29.7973V24.1195ZM12.986 24.6933V27.2056H14.6548C15.3248 27.2056 15.8548 26.609 15.8548 25.9835C15.8548 25.2785 15.3248 24.6933 14.6548 24.6933H12.986Z" fill="white"/>
<path d="M24.2623 29.7173C23.5523 30.3126 22.6823 30.5648 21.8036 30.5648C19.7036 30.5648 18.2148 29.3554 18.2148 26.9542C18.2148 24.9187 19.7848 23.3359 21.8923 23.3359C22.6823 23.3359 23.5511 23.6071 24.1711 24.2225C24.7798 24.8266 23.9011 25.7245 23.3023 25.1911C22.9323 24.8279 22.4123 24.5555 21.8923 24.5555C20.6836 24.5555 19.5148 25.5329 19.5148 26.9542C19.5148 28.4474 20.4936 29.3554 21.8036 29.3554C22.4123 29.3554 22.9323 29.1725 23.3023 28.9014V27.6617H21.8036C20.9136 27.6617 21.0036 26.4308 21.8036 26.4308H23.8023C24.1723 26.4308 24.5111 26.7133 24.5111 27.026V29.1738C24.5111 29.3554 24.4323 29.5244 24.2623 29.7173Z" fill="white"/>
<path d="M28.75 34.2764H5V35.5376H28.75C29.4375 35.5376 30 34.97 30 34.2764V33.0151C30 33.7088 29.4375 34.2764 28.75 34.2764Z" fill="#CAD1D8"/>
</svg>
