<svg width="1098" height="608" viewBox="0 0 1098 608" fill="none" xmlns="http://www.w3.org/2000/svg">
<path d="M-44.378 613C-44.1194 608.275 -145.903 455.537 -39.3987 306.896C67.1053 158.254 191.646 238.35 217.194 133.762C249.133 3.00762 407.987 -33.7795 486.455 31.7707C542.427 78.5274 614.581 66.6277 691.937 54.728C758.194 44.5355 828.254 34.3442 895.248 61.001C1133.64 155.862 964.695 342.45 1018.5 369.541C1072.32 396.627 1137.73 454.447 1067.21 611.398L-44.378 613Z" fill="#EBF3FA"/>
<path opacity="0.5" d="M167.822 385.234C202.325 350.78 202.325 294.919 167.822 260.465C133.318 226.011 77.377 226.011 42.8735 260.465C8.37002 294.919 8.37002 350.78 42.8735 385.234C77.377 419.688 133.318 419.688 167.822 385.234Z" fill="#14649C"/>
<path opacity="0.5" d="M412.177 385.234C446.68 350.78 446.68 294.919 412.177 260.465C377.673 226.011 321.732 226.011 287.228 260.465C252.725 294.919 252.725 350.78 287.228 385.234C321.732 419.688 377.673 419.688 412.177 385.234Z" fill="#14649C"/>
<path opacity="0.5" d="M632.816 385.234C667.32 350.78 667.32 294.919 632.816 260.465C598.313 226.011 542.372 226.011 507.868 260.465C473.365 294.919 473.365 350.78 507.868 385.234C542.372 419.688 598.313 419.688 632.816 385.234Z" fill="#14649C"/>
<path d="M89.5184 324.612C89.9375 321.706 89.6601 318.743 88.7089 315.965C92.3334 314.293 95.387 311.596 97.4917 308.208C99.5963 304.82 100.659 300.89 100.549 296.905C100.439 292.92 99.161 289.054 96.8726 285.787C94.5843 282.52 91.3865 279.995 87.6753 278.525C83.9641 277.055 79.9025 276.705 75.9937 277.517C72.0849 278.329 68.5006 280.268 65.6846 283.095C62.8687 285.921 60.9449 289.51 60.1515 293.417C59.3582 297.325 59.73 301.379 61.2211 305.077C57.7439 306.95 54.9255 309.843 53.1459 313.365C51.3664 316.887 50.7114 320.87 51.2692 324.775C51.827 328.681 53.5708 332.322 56.2655 335.207C58.9601 338.092 62.476 340.083 66.339 340.911C66.339 341.056 66.3167 341.197 66.3167 341.344C66.3151 344.592 67.2121 347.778 68.9088 350.549C70.6054 353.32 73.0357 355.57 75.9315 357.049C78.8273 358.529 82.0761 359.181 85.3195 358.933C88.5629 358.686 91.6748 357.548 94.3118 355.647C96.9489 353.745 99.0086 351.153 100.264 348.156C101.519 345.16 101.921 341.875 101.425 338.665C100.929 335.455 99.5549 332.443 97.4539 329.964C95.3529 327.484 92.6067 325.632 89.5184 324.612Z" fill="black"/>
<path d="M155.682 311.058C155.681 307.795 154.933 304.576 153.497 301.645C152.06 298.715 149.972 296.151 147.391 294.149C144.811 292.147 141.807 290.76 138.609 290.094C135.41 289.427 132.101 289.5 128.935 290.305C125.768 291.11 122.828 292.626 120.337 294.738C117.847 296.851 115.873 299.503 114.565 302.494C113.258 305.484 112.652 308.733 112.793 311.993C112.934 315.252 113.819 318.437 115.381 321.303C112.287 323.622 109.915 326.77 108.542 330.382C107.168 333.993 106.849 337.92 107.621 341.705C108.393 345.491 110.225 348.98 112.904 351.767C115.582 354.554 118.998 356.525 122.754 357.451C126.51 358.377 130.452 358.22 134.122 356.998C137.792 355.776 141.04 353.54 143.487 350.548C145.935 347.557 147.483 343.933 147.95 340.098C148.418 336.263 147.786 332.374 146.129 328.884C149.069 326.929 151.48 324.278 153.146 321.168C154.813 318.058 155.684 314.585 155.682 311.058Z" fill="black"/>
<path d="M98.843 335.776L94.1963 364.544L107.207 371.968L116.5 363.616L111.854 334.848L98.843 335.776Z" fill="#FD8970"/>
<g style="mix-blend-mode:multiply">
<path d="M97.6924 342.9C100.241 344.418 102.928 345.692 105.716 346.705C106.078 346.839 106.473 346.858 106.846 346.759C109.106 346.128 111.288 345.246 113.352 344.131L111.854 334.848L98.8429 335.776L97.6924 342.9Z" fill="#FD8970"/>
</g>
<path d="M80.2563 305.152C80.2563 305.152 77.5045 330.796 105.714 341.141C106.077 341.276 106.473 341.295 106.847 341.196C117.894 338.18 131.37 327.094 131.37 307.936C132.299 293.088 123.935 279.168 100.702 281.024C77.4683 282.88 80.2563 305.152 80.2563 305.152Z" fill="#FD8970"/>
<path d="M95.312 358.048C95.312 358.048 103.551 370.517 115.602 358.453C131.341 364.949 131.371 364.949 131.371 364.949L105.35 436.405L83.9751 362.165L95.312 358.048Z" fill="#14649C"/>
<g style="mix-blend-mode:multiply">
<path d="M95.312 358.048L83.9741 362.165L102.706 427.224C104.997 426.682 107.25 425.988 109.449 425.146L116.542 405.668C107.307 392.862 100.105 372.677 95.8761 358.792C95.5062 358.341 95.312 358.048 95.312 358.048Z" fill="#14649C"/>
</g>
<path d="M26.6534 361.31C28.2128 361.241 29.7072 360.666 30.9107 359.674C32.5129 358.282 33.327 356.178 33.327 353.408C33.327 353.039 33.1801 352.685 32.9187 352.424C32.6573 352.163 32.3027 352.016 31.933 352.016C31.5633 352.016 31.2087 352.163 30.9473 352.424C30.6858 352.685 30.539 353.039 30.539 353.408C30.539 355.324 30.0557 356.72 29.1013 357.557C28.2136 358.251 27.1054 358.602 25.9797 358.546L24.9574 354.37C24.9574 354.359 24.9574 354.349 24.9574 354.338C24.9574 354.239 24.9425 354.018 24.9184 353.703C24.3979 347.126 25.6042 345.944 25.9862 345.739C26.1925 345.627 27.0382 345.396 29.2128 347.085C29.5046 347.311 29.8747 347.413 30.2416 347.367C30.6084 347.321 30.9421 347.132 31.1691 346.841C31.3961 346.549 31.4978 346.18 31.452 345.813C31.4062 345.447 31.2165 345.114 30.9247 344.887C28.4155 342.938 26.3096 342.402 24.6637 343.288C21.9687 344.739 21.8423 349.4 22.0811 353.118C18.5116 346.294 18.4558 337.725 18.4558 337.632C18.4558 337.263 18.3089 336.909 18.0475 336.648C17.7861 336.387 17.4315 336.24 17.0618 336.24C16.6921 336.24 16.3375 336.387 16.0761 336.648C15.8147 336.909 15.6678 337.263 15.6678 337.632C15.6678 338.03 15.718 346.726 19.4502 354.085C18.9679 354.243 18.4744 354.407 17.98 354.573C14.2301 348.355 14.4058 339.549 14.4085 339.453C14.4184 339.084 14.281 338.726 14.0265 338.458C13.7721 338.19 13.4214 338.033 13.0517 338.024C12.682 338.014 12.3235 338.151 12.0551 338.405C11.7867 338.659 11.6304 339.009 11.6205 339.378C11.6094 339.799 11.4263 348.641 15.2933 355.497C14.7264 355.699 14.1939 355.895 13.7134 356.08C12.3909 352.813 11.5165 349.383 11.1141 345.882C11.0958 345.7 11.0417 345.524 10.9551 345.362C10.8685 345.201 10.751 345.059 10.6092 344.943C10.323 344.71 9.95549 344.599 9.58763 344.636C9.21977 344.673 8.88166 344.854 8.64768 345.14C8.4137 345.426 8.30303 345.793 8.34 346.16C8.77857 350.159 9.81645 354.07 11.4189 357.76C11.8454 360.236 16.6882 368.445 17.0571 369.183C17.9865 371.039 19.8451 392.383 19.8451 392.383L33.7851 390.527L26.6534 361.31Z" fill="#FD8970"/>
<g style="mix-blend-mode:multiply">
<path d="M19.8498 392.384L33.7898 390.528L29.7258 373.889C26.5187 375.4 22.0254 377.502 18.5469 379.074C19.2411 385.4 19.8498 392.384 19.8498 392.384Z" fill="#FD8970"/>
</g>
<path d="M13.3447 384.032C14.2741 384.032 33.7901 374.752 33.7901 374.752L42.3938 402.087C42.5231 402.497 42.7725 402.859 43.1099 403.127C43.4474 403.394 43.8573 403.554 44.2868 403.586C44.7162 403.618 45.1455 403.521 45.5191 403.307C45.8927 403.093 46.1935 402.772 46.3825 402.386L61.0418 372.411C61.8244 370.811 62.9356 369.394 64.3032 368.251C65.6708 367.108 67.264 366.265 68.9793 365.778L95.1168 357.642L105.349 410.016L115.571 358.048L143.887 367.218C145.776 367.829 147.496 368.874 148.907 370.269C150.318 371.664 151.381 373.37 152.011 375.25C157.123 390.504 170.215 430.612 173.19 449.92H147.169C147.169 449.92 144.381 419.296 140.663 409.088V453.632H66.3167L65.3874 409.088L59.8532 419.715C52.596 433.652 32.2771 432.555 26.5664 417.919L13.3447 384.032Z" fill="white"/>
<path d="M94.78 358.048L76.5391 370.112L90.4791 377.536L85.8324 386.816C85.8324 386.816 100.702 398.88 104.419 410.944" stroke="#231F20" stroke-miterlimit="10"/>
<path d="M115.932 358.738L134.158 370.112L120.218 377.536L124.865 386.816C124.865 386.816 109.995 398.88 106.278 410.944" stroke="#231F20" stroke-miterlimit="10"/>
<path d="M105.348 411.872V453.632" stroke="#231F20" stroke-miterlimit="10"/>
<path d="M112.783 423.008C113.81 423.008 114.642 422.177 114.642 421.152C114.642 420.127 113.81 419.296 112.783 419.296C111.756 419.296 110.924 420.127 110.924 421.152C110.924 422.177 111.756 423.008 112.783 423.008Z" stroke="#231F20" stroke-miterlimit="10"/>
<path d="M112.783 433.216C113.81 433.216 114.642 432.385 114.642 431.36C114.642 430.335 113.81 429.504 112.783 429.504C111.756 429.504 110.924 430.335 110.924 431.36C110.924 432.385 111.756 433.216 112.783 433.216Z" stroke="#231F20" stroke-miterlimit="10"/>
<path d="M112.783 443.424C113.81 443.424 114.642 442.593 114.642 441.568C114.642 440.543 113.81 439.712 112.783 439.712C111.756 439.712 110.924 440.543 110.924 441.568C110.924 442.593 111.756 443.424 112.783 443.424Z" stroke="#231F20" stroke-miterlimit="10"/>
<path d="M135.087 403.722H114.642V407.434H135.087V403.722Z" fill="#1A1A1A"/>
<path d="M80.2564 314.432C80.2564 314.432 88.4559 307.167 86.5972 285.823C91.2439 293.247 103.49 294.944 111.854 294.944C120.218 294.944 128.567 305.152 130.898 314.432C134.63 307.008 136.016 295.872 136.016 295.872C136.016 295.872 135.768 270.254 115.323 266.542C94.8776 262.83 85.1103 274.244 82.3223 279.812C75.3226 280.857 66.3164 286.562 66.3164 297.728C67.2457 309.792 80.2564 314.432 80.2564 314.432Z" fill="black"/>
<path d="M35.3586 347.942L31.9508 352.303C31.7738 352.529 31.554 352.719 31.3038 352.86C31.0536 353.001 30.778 353.092 30.4927 353.127C30.2074 353.162 29.918 353.141 29.641 353.064C29.3641 352.987 29.1049 352.857 28.8784 352.68C28.6519 352.503 28.4625 352.284 28.3209 352.034C28.1794 351.784 28.0885 351.509 28.0534 351.224C28.0184 350.939 28.0399 350.65 28.1167 350.374C28.1935 350.097 28.3241 349.838 28.5011 349.612L31.909 345.255C32.0859 345.029 32.3057 344.84 32.5559 344.698C32.8061 344.557 33.0817 344.466 33.367 344.431C33.6523 344.396 33.9417 344.418 34.2187 344.495C34.4957 344.571 34.7548 344.702 34.9813 344.878C35.2078 345.055 35.3973 345.275 35.5388 345.524C35.6804 345.774 35.7713 346.049 35.8063 346.334C35.8413 346.619 35.8198 346.908 35.743 347.185C35.6662 347.461 35.5356 347.72 35.3586 347.946V347.942Z" fill="#3847DC"/>
<path d="M35.3587 347.941L33.6553 350.12L30.2056 347.429L31.909 345.25C32.086 345.024 32.3058 344.835 32.556 344.693C32.8062 344.552 33.0818 344.461 33.3671 344.426C33.6524 344.391 33.9418 344.413 34.2188 344.489C34.4958 344.566 34.7549 344.697 34.9814 344.873C35.2079 345.05 35.3974 345.269 35.5389 345.519C35.6805 345.769 35.7713 346.044 35.8064 346.329C35.8414 346.614 35.8199 346.903 35.7431 347.18C35.6663 347.456 35.5357 347.715 35.3587 347.941Z" fill="white"/>
<g style="mix-blend-mode:multiply" opacity="0.25">
<path d="M34.9814 344.87L28.8794 352.672C29.3373 353.027 29.9176 353.187 30.4932 353.116C31.0688 353.046 31.5929 352.75 31.9508 352.294L35.3587 347.933C35.7132 347.476 35.8725 346.898 35.8018 346.324C35.7311 345.75 35.4362 345.228 34.9814 344.87Z" fill="#3847DC"/>
</g>
<path d="M84.7042 315.343C85.7673 319.037 84.4254 322.663 81.7155 323.442C79.0055 324.22 75.9415 321.855 74.8793 318.161C73.8171 314.466 75.1581 310.84 77.868 310.062C80.578 309.283 83.642 311.648 84.7042 315.343Z" fill="#FD8970"/>
<path d="M126.922 315.343C125.859 319.037 127.201 322.663 129.911 323.442C132.621 324.22 135.685 321.855 136.747 318.161C137.809 314.466 136.468 310.84 133.758 310.062C131.048 309.283 127.984 311.648 126.922 315.343Z" fill="#FD8970"/>
<path d="M81.7881 316.689C81.7101 316.689 81.6344 316.663 81.573 316.614C81.5117 316.566 81.4683 316.499 81.4498 316.423C81.1256 315.138 80.3407 314.015 79.2436 313.268C78.8094 313.06 78.3349 312.949 77.8532 312.943C77.3715 312.938 76.8945 313.037 76.4556 313.236C76.4123 313.255 76.3655 313.265 76.3181 313.266C76.2707 313.266 76.2237 313.257 76.1799 313.239C76.1362 313.221 76.0966 313.194 76.0636 313.16C76.0306 313.126 76.0049 313.086 75.9881 313.041C75.9712 312.997 75.9636 312.95 75.9657 312.903C75.9677 312.855 75.9794 312.809 76 312.766C76.0207 312.724 76.0498 312.686 76.0856 312.655C76.1214 312.624 76.1632 312.6 76.2084 312.586C76.7397 312.35 77.3167 312.234 77.8981 312.245C78.4796 312.257 79.0513 312.397 79.5726 312.655C80.8496 313.491 81.7627 314.779 82.1282 316.259C82.1498 316.349 82.1349 316.443 82.0868 316.522C82.0387 316.6 81.9614 316.657 81.8717 316.679C81.8444 316.686 81.8163 316.689 81.7881 316.689Z" fill="#42210B"/>
<path d="M78.1626 319.851C78.0956 319.851 78.03 319.832 77.9737 319.796C77.9173 319.76 77.8726 319.708 77.8448 319.647C75.6367 314.756 79.3382 312.748 79.3763 312.728C79.4575 312.69 79.5503 312.685 79.6354 312.713C79.7205 312.742 79.7913 312.802 79.8331 312.881C79.8749 312.96 79.8844 313.053 79.8598 313.139C79.8351 313.225 79.7781 313.298 79.7007 313.343C79.5715 313.412 76.5484 315.082 78.4804 319.361C78.4998 319.402 78.5107 319.448 78.5124 319.494C78.5141 319.54 78.5066 319.586 78.4903 319.629C78.4741 319.672 78.4494 319.712 78.4177 319.745C78.386 319.779 78.3479 319.806 78.3057 319.825C78.2605 319.844 78.2117 319.853 78.1626 319.851Z" fill="#42210B"/>
<path d="M129.929 316.327C129.9 316.327 129.872 316.324 129.845 316.318C129.755 316.296 129.678 316.239 129.63 316.16C129.582 316.081 129.568 315.987 129.589 315.897C129.954 314.417 130.867 313.129 132.144 312.293C132.665 312.036 133.237 311.896 133.818 311.884C134.4 311.873 134.977 311.989 135.508 312.224C135.553 312.239 135.595 312.262 135.631 312.293C135.667 312.324 135.696 312.362 135.717 312.405C135.737 312.447 135.749 312.494 135.751 312.541C135.753 312.588 135.745 312.635 135.729 312.68C135.712 312.724 135.686 312.764 135.653 312.798C135.62 312.832 135.58 312.859 135.537 312.877C135.493 312.895 135.446 312.905 135.398 312.904C135.351 312.903 135.304 312.893 135.261 312.874C134.822 312.676 134.345 312.576 133.863 312.582C133.382 312.588 132.907 312.698 132.473 312.906C131.376 313.654 130.592 314.776 130.267 316.062C130.248 316.137 130.205 316.205 130.144 316.253C130.082 316.301 130.007 316.327 129.929 316.327Z" fill="#42210B"/>
<path d="M133.553 319.49C133.504 319.49 133.455 319.48 133.41 319.459C133.368 319.44 133.33 319.413 133.298 319.38C133.266 319.346 133.242 319.307 133.225 319.263C133.209 319.22 133.202 319.174 133.203 319.128C133.205 319.082 133.216 319.037 133.235 318.995C135.167 314.716 132.144 313.047 132.015 312.979C131.933 312.936 131.872 312.862 131.844 312.774C131.817 312.686 131.826 312.59 131.869 312.509C131.912 312.427 131.985 312.366 132.074 312.338C132.162 312.311 132.258 312.32 132.339 312.362C132.377 312.382 136.079 314.39 133.871 319.282C133.844 319.343 133.799 319.396 133.743 319.433C133.687 319.47 133.621 319.49 133.553 319.49Z" fill="#42210B"/>
<path d="M89.6428 303.701C89.5436 303.701 89.4468 303.671 89.3653 303.614C89.2838 303.558 89.2214 303.478 89.1865 303.385C89.1516 303.292 89.1458 303.191 89.1699 303.095C89.194 302.999 89.2468 302.912 89.3213 302.847C94.138 298.648 99.5319 302.788 99.5867 302.83C99.6832 302.912 99.7442 303.028 99.757 303.153C99.7698 303.279 99.7333 303.404 99.6552 303.504C99.5771 303.603 99.4636 303.668 99.3383 303.686C99.2131 303.703 99.0859 303.672 98.9836 303.598C98.7884 303.445 94.1641 299.919 89.9644 303.581C89.8754 303.659 89.7611 303.702 89.6428 303.701Z" fill="#42210B"/>
<path d="M113.638 303.701C113.539 303.702 113.442 303.671 113.36 303.615C113.278 303.558 113.216 303.478 113.181 303.385C113.146 303.292 113.14 303.191 113.165 303.095C113.189 302.998 113.242 302.912 113.317 302.847C118.134 298.648 123.527 302.788 123.582 302.83C123.678 302.912 123.739 303.028 123.752 303.153C123.765 303.279 123.729 303.404 123.65 303.504C123.572 303.603 123.459 303.668 123.334 303.686C123.208 303.703 123.081 303.672 122.979 303.598C122.785 303.445 118.16 299.919 113.964 303.581C113.874 303.66 113.758 303.703 113.638 303.701Z" fill="#42210B"/>
<path d="M90.1783 314.131C90.2401 314.131 90.3013 314.119 90.3584 314.095C90.4155 314.072 90.4674 314.037 90.5111 313.993C90.5548 313.95 90.5894 313.898 90.613 313.841C90.6365 313.784 90.6486 313.723 90.6485 313.661C90.6485 312.646 91.0521 311.673 91.7705 310.956C92.4889 310.239 93.4632 309.836 94.4792 309.836C95.4952 309.836 96.4695 310.239 97.1879 310.956C97.9063 311.673 98.3099 312.646 98.3099 313.661C98.3099 313.785 98.3595 313.905 98.4477 313.993C98.5358 314.081 98.6554 314.13 98.7802 314.13C98.9049 314.13 99.0245 314.081 99.1127 313.993C99.2009 313.905 99.2504 313.785 99.2504 313.661C99.2504 312.397 98.7477 311.185 97.853 310.292C96.9582 309.398 95.7446 308.896 94.4792 308.896C93.2138 308.896 92.0002 309.398 91.1055 310.292C90.2107 311.185 89.708 312.397 89.708 313.661C89.7079 313.723 89.72 313.784 89.7435 313.841C89.7671 313.898 89.8017 313.95 89.8454 313.993C89.8891 314.037 89.941 314.072 89.9981 314.095C90.0552 314.119 90.1164 314.131 90.1783 314.131Z" fill="#42210B"/>
<path d="M94.4751 309.837C94.5369 309.837 94.5982 309.825 94.6553 309.801C94.7125 309.778 94.7644 309.743 94.8082 309.699C94.852 309.656 94.8867 309.604 94.9104 309.547C94.9341 309.49 94.9463 309.429 94.9463 309.367V307.008C94.9491 306.945 94.939 306.881 94.9166 306.822C94.8943 306.762 94.86 306.708 94.8161 306.662C94.7721 306.616 94.7192 306.579 94.6607 306.554C94.6022 306.529 94.5392 306.517 94.4756 306.517C94.4119 306.517 94.349 306.529 94.2904 306.554C94.2319 306.579 94.1791 306.616 94.1351 306.662C94.0911 306.708 94.0569 306.762 94.0345 306.822C94.0121 306.881 94.002 306.945 94.0049 307.008V309.366C94.0046 309.428 94.0166 309.489 94.0401 309.546C94.0637 309.603 94.0983 309.655 94.142 309.699C94.1857 309.743 94.2376 309.777 94.2948 309.801C94.352 309.825 94.4132 309.837 94.4751 309.837Z" fill="#42210B"/>
<path d="M91.7526 310.813C91.8487 310.813 91.9425 310.783 92.0211 310.728C92.0719 310.693 92.1152 310.648 92.1485 310.596C92.1819 310.544 92.2047 310.486 92.2155 310.425C92.2264 310.365 92.2252 310.302 92.2119 310.242C92.1987 310.182 92.1736 310.125 92.1382 310.074L90.8548 308.238C90.8195 308.188 90.7745 308.145 90.7225 308.111C90.6704 308.078 90.6123 308.055 90.5515 308.044C90.4906 308.034 90.4282 308.035 90.3679 308.048C90.3075 308.061 90.2503 308.086 90.1996 308.121C90.1489 308.157 90.1057 308.202 90.0723 308.254C90.039 308.306 90.0163 308.364 90.0054 308.424C89.9945 308.485 89.9957 308.547 90.009 308.608C90.0222 308.668 90.0472 308.725 90.0825 308.776L91.366 310.612C91.4094 310.674 91.4673 310.725 91.5346 310.76C91.6019 310.795 91.6767 310.813 91.7526 310.813Z" fill="#42210B"/>
<path d="M90.3202 313.052C90.4354 313.05 90.5457 313.006 90.6304 312.928C90.7151 312.85 90.7682 312.744 90.7796 312.629C90.7911 312.515 90.7601 312.4 90.6925 312.307C90.625 312.214 90.5256 312.149 90.4132 312.124L88.4616 311.736C88.401 311.724 88.3386 311.724 88.2779 311.736C88.2173 311.748 88.1596 311.771 88.1081 311.805C88.0041 311.874 87.9319 311.982 87.9072 312.104C87.8826 312.226 87.9075 312.353 87.9767 312.457C88.0458 312.561 88.1533 312.633 88.2757 312.658L90.2273 313.045C90.2579 313.05 90.2891 313.053 90.3202 313.052Z" fill="#42210B"/>
<path d="M97.9063 310.813C97.9822 310.813 98.057 310.795 98.1243 310.76C98.1916 310.725 98.2495 310.674 98.293 310.612L99.4193 309.001C99.4547 308.951 99.4796 308.894 99.4929 308.833C99.5061 308.773 99.5073 308.711 99.4965 308.65C99.4856 308.589 99.4628 308.531 99.4295 308.479C99.3962 308.427 99.3529 308.382 99.3022 308.347C99.2515 308.312 99.1943 308.287 99.134 308.274C99.0736 308.26 99.0112 308.259 98.9504 308.27C98.8895 308.281 98.8314 308.304 98.7794 308.337C98.7273 308.37 98.6824 308.413 98.647 308.464L97.5207 310.074C97.4853 310.125 97.4603 310.182 97.447 310.242C97.4337 310.302 97.4325 310.365 97.4434 310.425C97.4542 310.486 97.477 310.544 97.5104 310.596C97.5437 310.648 97.587 310.693 97.6378 310.728C97.7164 310.784 97.8102 310.813 97.9063 310.813Z" fill="#42210B"/>
<path d="M99.1331 313.052C99.1643 313.052 99.1955 313.049 99.226 313.043L101.178 312.656C101.238 312.644 101.296 312.62 101.347 312.585C101.398 312.551 101.442 312.507 101.477 312.455C101.511 312.404 101.535 312.346 101.547 312.286C101.558 312.225 101.558 312.163 101.546 312.102C101.534 312.042 101.51 311.984 101.475 311.933C101.441 311.882 101.397 311.838 101.345 311.804C101.294 311.77 101.236 311.746 101.175 311.734C101.115 311.722 101.052 311.722 100.992 311.734L99.0402 312.122C98.9277 312.147 98.8283 312.212 98.7608 312.305C98.6932 312.398 98.6623 312.513 98.6737 312.627C98.6852 312.742 98.7383 312.848 98.8229 312.926C98.9076 313.004 99.018 313.048 99.1331 313.05V313.052Z" fill="#42210B"/>
<path d="M113.279 314.131C113.341 314.131 113.402 314.119 113.459 314.095C113.516 314.072 113.568 314.037 113.612 313.993C113.655 313.95 113.69 313.898 113.714 313.841C113.737 313.784 113.749 313.723 113.749 313.661C113.749 312.646 114.153 311.673 114.871 310.956C115.589 310.239 116.564 309.836 117.58 309.836C118.596 309.836 119.57 310.239 120.289 310.956C121.007 311.673 121.411 312.646 121.411 313.661C121.411 313.785 121.46 313.905 121.548 313.993C121.636 314.081 121.756 314.13 121.881 314.13C122.005 314.13 122.125 314.081 122.213 313.993C122.301 313.905 122.351 313.785 122.351 313.661C122.351 312.397 121.848 311.185 120.954 310.292C120.059 309.398 118.845 308.896 117.58 308.896C116.314 308.896 115.101 309.398 114.206 310.292C113.311 311.185 112.809 312.397 112.809 313.661C112.808 313.723 112.821 313.784 112.844 313.841C112.868 313.898 112.902 313.95 112.946 313.993C112.99 314.037 113.042 314.072 113.099 314.095C113.156 314.119 113.217 314.131 113.279 314.131Z" fill="#42210B"/>
<path d="M117.58 309.837C117.641 309.837 117.703 309.825 117.76 309.801C117.817 309.777 117.869 309.743 117.912 309.699C117.956 309.656 117.991 309.604 118.014 309.547C118.038 309.49 118.05 309.429 118.05 309.367V307.008C118.053 306.945 118.043 306.881 118.02 306.822C117.998 306.762 117.964 306.708 117.92 306.662C117.876 306.616 117.823 306.579 117.764 306.554C117.706 306.529 117.643 306.517 117.579 306.517C117.515 306.517 117.452 306.529 117.394 306.554C117.335 306.579 117.283 306.616 117.239 306.662C117.195 306.708 117.16 306.762 117.138 306.822C117.116 306.881 117.106 306.945 117.108 307.008V309.366C117.108 309.428 117.12 309.489 117.144 309.546C117.168 309.603 117.202 309.655 117.246 309.699C117.29 309.743 117.342 309.777 117.399 309.801C117.456 309.825 117.518 309.837 117.58 309.837Z" fill="#42210B"/>
<path d="M114.853 310.813C114.95 310.813 115.044 310.784 115.123 310.728C115.173 310.693 115.217 310.648 115.25 310.596C115.283 310.544 115.306 310.486 115.317 310.425C115.327 310.364 115.326 310.302 115.313 310.242C115.299 310.182 115.274 310.125 115.239 310.074L113.955 308.238C113.884 308.136 113.775 308.066 113.652 308.044C113.529 308.023 113.403 308.05 113.3 308.121C113.198 308.193 113.128 308.302 113.106 308.424C113.084 308.547 113.112 308.673 113.183 308.776L114.467 310.612C114.511 310.674 114.569 310.725 114.636 310.76C114.703 310.795 114.777 310.813 114.853 310.813Z" fill="#42210B"/>
<path d="M113.421 313.052C113.536 313.05 113.646 313.006 113.731 312.928C113.816 312.85 113.869 312.744 113.88 312.629C113.892 312.515 113.861 312.4 113.793 312.307C113.726 312.214 113.626 312.149 113.514 312.124L111.562 311.736C111.502 311.724 111.439 311.724 111.379 311.736C111.318 311.748 111.26 311.771 111.209 311.805C111.105 311.874 111.032 311.982 111.008 312.104C110.983 312.226 111.008 312.353 111.077 312.457C111.146 312.561 111.254 312.633 111.376 312.658L113.328 313.045C113.359 313.05 113.39 313.053 113.421 313.052Z" fill="#42210B"/>
<path d="M121.008 310.813C121.083 310.813 121.158 310.795 121.225 310.76C121.292 310.725 121.35 310.674 121.393 310.612L122.52 309.001C122.591 308.899 122.618 308.773 122.596 308.65C122.575 308.528 122.505 308.419 122.403 308.348C122.3 308.277 122.174 308.249 122.052 308.271C121.929 308.293 121.82 308.362 121.748 308.464L120.622 310.074C120.587 310.125 120.562 310.182 120.548 310.242C120.535 310.302 120.534 310.364 120.544 310.425C120.555 310.486 120.578 310.544 120.611 310.596C120.644 310.648 120.688 310.693 120.738 310.728C120.817 310.784 120.911 310.813 121.008 310.813Z" fill="#42210B"/>
<path d="M122.235 313.052C122.266 313.052 122.297 313.049 122.328 313.043L124.279 312.656C124.402 312.631 124.509 312.559 124.578 312.455C124.647 312.351 124.672 312.224 124.648 312.102C124.623 311.98 124.551 311.873 124.447 311.804C124.343 311.735 124.216 311.71 124.093 311.734L122.142 312.122C122.029 312.147 121.93 312.212 121.862 312.305C121.795 312.398 121.764 312.513 121.775 312.627C121.787 312.742 121.84 312.848 121.925 312.926C122.009 313.004 122.12 313.048 122.235 313.05V313.052Z" fill="#42210B"/>
<path d="M105.768 321.068C108.441 321.068 110.533 319.898 110.533 318.405C110.533 316.998 108.674 315.879 106.233 315.753V311.497C106.233 311.374 106.184 311.256 106.096 311.169C106.009 311.082 105.891 311.033 105.768 311.033C105.645 311.033 105.526 311.082 105.439 311.169C105.352 311.256 105.303 311.374 105.303 311.497V316.668H105.768C108.029 316.668 109.604 317.583 109.604 318.405C109.604 319.226 108.029 320.141 105.768 320.141C105.645 320.141 105.526 320.19 105.439 320.277C105.352 320.364 105.303 320.482 105.303 320.605C105.303 320.728 105.352 320.846 105.439 320.933C105.526 321.02 105.645 321.069 105.768 321.069V321.068Z" fill="#42210B"/>
<path d="M96.0691 311.938C96.0691 313.184 95.4771 314.194 94.7457 314.194C94.0143 314.194 93.4224 313.184 93.4224 311.938C93.4224 310.691 94.0153 309.68 94.7457 309.68C95.4762 309.68 96.0691 310.69 96.0691 311.938Z" fill="#42210B"/>
<path d="M94.7459 314.577C93.7896 314.577 93.0405 313.417 93.0405 311.937C93.0405 310.456 93.7896 309.298 94.7459 309.298C95.7021 309.298 96.4521 310.457 96.4521 311.937C96.4521 313.416 95.7031 314.577 94.7459 314.577ZM94.7459 310.062C94.3016 310.062 93.8054 310.832 93.8054 311.937C93.8054 313.041 94.3016 313.813 94.7459 313.813C95.1901 313.813 95.6863 313.042 95.6863 311.937C95.6863 310.831 95.191 310.062 94.7459 310.062Z" fill="#42210B"/>
<path d="M118.903 311.938C118.903 313.184 118.31 314.194 117.579 314.194C116.849 314.194 116.256 313.184 116.256 311.938C116.256 310.691 116.848 309.68 117.579 309.68C118.311 309.68 118.903 310.69 118.903 311.938Z" fill="#42210B"/>
<path d="M117.579 314.577C116.622 314.577 115.873 313.417 115.873 311.937C115.873 310.456 116.622 309.298 117.579 309.298C118.537 309.298 119.285 310.457 119.285 311.937C119.285 313.416 118.536 314.577 117.579 314.577ZM117.579 310.062C117.134 310.062 116.638 310.832 116.638 311.937C116.638 313.041 117.134 313.813 117.579 313.813C118.024 313.813 118.52 313.042 118.52 311.937C118.52 310.831 118.024 310.062 117.579 310.062Z" fill="#42210B"/>
<path d="M106.278 333.066C104.221 333.063 102.25 332.245 100.796 330.792C99.3422 329.34 98.5249 327.37 98.5234 325.317V324.853H114.032V325.317C114.031 327.37 113.213 329.34 111.76 330.792C110.306 332.245 108.335 333.063 106.278 333.066ZM99.4686 325.781C99.5862 327.504 100.355 329.118 101.619 330.297C102.883 331.476 104.548 332.132 106.278 332.132C108.008 332.132 109.673 331.476 110.937 330.297C112.201 329.118 112.969 327.504 113.087 325.781H99.4686Z" fill="#42210B"/>
<path d="M93.04 284.4C93.04 284.4 97.7796 292.183 111.906 291.11" stroke="white" stroke-miterlimit="10"/>
<path d="M147.54 298.803C149.687 300.913 151.157 303.614 151.763 306.561C152.369 309.508 152.084 312.568 150.944 315.353" stroke="white" stroke-miterlimit="10"/>
<path d="M53.6504 318.573C53.6504 318.573 51.7685 330.927 62.071 335.754" stroke="white" stroke-miterlimit="10"/>
<path d="M378.731 278.535C378.731 278.535 391.026 290.266 380.323 313.01C376.398 315.609 371.299 312.292 371.299 312.292L372.498 287.034L378.731 278.535Z" fill="#231F20"/>
<path d="M412.028 449.92H289.356L298.157 385.35C300.044 371.551 311.428 361.296 324.876 361.296H374.465C387.587 361.296 398.804 371.077 401.044 384.468L412.028 449.92Z" fill="#14649C"/>
<path d="M302.374 392.384H386.496" stroke="#E6E6E6" stroke-width="6" stroke-miterlimit="10"/>
<path d="M302.374 403.52H388.934" stroke="#E6E6E6" stroke-width="1.62" stroke-miterlimit="10"/>
<path d="M302.678 414.192H389.238" stroke="#E6E6E6" stroke-width="1.62" stroke-miterlimit="10"/>
<path d="M302.983 424.864H389.543" stroke="#E6E6E6" stroke-width="1.62" stroke-miterlimit="10"/>
<path d="M303.288 435.536H389.848" stroke="#E6E6E6" stroke-width="1.62" stroke-miterlimit="10"/>
<g style="mix-blend-mode:multiply" opacity="0.3">
<path d="M327.439 361.296H324.876C311.428 361.296 300.044 371.551 298.157 385.35L289.356 449.92H412.028L409.119 432.584C348.079 430.388 331.771 386.347 327.439 361.296Z" fill="#14649C"/>
</g>
<path d="M352.903 371.04H347.553C346.285 371.04 345.03 370.782 343.866 370.28C342.701 369.779 341.652 369.045 340.781 368.124C339.911 367.203 339.239 366.114 338.805 364.924C338.371 363.733 338.186 362.467 338.26 361.203L339.539 339.488H360.913L362.192 361.203C362.266 362.467 362.081 363.733 361.648 364.923C361.214 366.112 360.542 367.201 359.672 368.122C358.802 369.044 357.753 369.777 356.589 370.279C355.425 370.781 354.17 371.04 352.903 371.04Z" fill="#FD8970"/>
<g style="mix-blend-mode:multiply">
<path d="M360.915 339.488H339.54L339.087 347.19C342.135 349.205 345.39 350.888 348.797 352.212C350.067 352.722 351.476 352.778 352.783 352.37C355.829 351.372 358.734 349.987 361.426 348.248L360.915 339.488Z" fill="#FD8970"/>
</g>
<path d="M379.316 310.284C379.316 311.184 379.288 312.075 379.241 312.938C378.869 320.728 376.142 328.222 371.418 334.433C366.695 340.643 360.198 345.279 352.783 347.729C351.476 348.137 350.067 348.081 348.796 347.571C326.771 338.903 322.115 321.847 321.251 312.901C321.039 310.978 321.005 309.039 321.149 307.11C321.149 307.11 316.805 280.057 344.41 279.651C367.305 279.313 380.329 281.952 379.316 310.284Z" fill="#FD8970"/>
<path d="M379.242 312.938C378.87 320.728 376.142 328.222 371.419 334.433C366.695 340.644 360.198 345.279 352.784 347.729C351.476 348.137 350.068 348.081 348.797 347.571C326.772 338.903 322.116 321.847 321.251 312.901C326.01 320.984 336.994 336.407 351.622 336.537C364.233 336.639 373.889 322.933 379.242 312.938Z" fill="#231F20"/>
<path d="M365.293 334.291H362.505C362.502 332.242 361.686 330.277 360.235 328.828C358.784 327.379 356.816 326.564 354.764 326.562V323.778C357.555 323.781 360.232 324.89 362.205 326.861C364.179 328.832 365.289 331.504 365.293 334.291Z" fill="#231F20"/>
<path d="M354.764 323.782H347.379V326.566H354.764V323.782Z" fill="#231F20"/>
<path d="M339.639 334.291H336.851C336.854 331.504 337.965 328.832 339.938 326.861C341.912 324.89 344.588 323.781 347.379 323.778V326.562C345.327 326.564 343.36 327.379 341.909 328.828C340.457 330.277 339.641 332.242 339.639 334.291Z" fill="#231F20"/>
<path d="M321.961 313.804C321.961 313.804 325.991 310.599 325.772 301.076C325.552 291.553 327.285 286.3 327.285 286.3C327.285 286.3 359.484 304.688 374.827 288.819C385.948 277.764 383.212 267.122 373.247 268.422C373.138 268.431 373.029 268.419 372.926 268.384C372.822 268.349 372.727 268.294 372.647 268.221C372.566 268.148 372.501 268.059 372.456 267.96C372.412 267.86 372.388 267.753 372.387 267.644C372.08 262.291 361.923 256.893 355.736 265.616C355.642 265.759 355.52 265.882 355.376 265.976C355.232 266.07 355.07 266.133 354.9 266.161C354.73 266.189 354.557 266.181 354.39 266.139C354.224 266.096 354.068 266.019 353.932 265.913C348.003 260.838 321.978 264.006 323.395 279.297C320.155 278.091 313.78 279.516 314.428 291.118C314.791 297.987 315.988 304.787 317.993 311.368C317.993 311.368 322.094 314.455 321.961 313.804Z" fill="#231F20"/>
<path d="M336.399 361.296C333.852 366.496 332.542 372.212 332.57 378V449.92H289.356L298.157 385.35C300.044 371.551 311.428 361.296 324.876 361.296H336.399Z" fill="white"/>
<path d="M366.956 449.92V378C366.985 372.212 365.674 366.496 363.127 361.296H374.465C387.587 361.296 398.805 371.077 401.044 384.468L412.029 449.92H366.956Z" fill="white"/>
<path d="M325.035 405.821H315.033V406.749H325.035V405.821Z" fill="#231F20"/>
<path d="M313.53 399.771L308.041 452.097" stroke="#1A1A1A" stroke-miterlimit="10"/>
<path d="M384.111 399.771L389.6 452.097" stroke="#1A1A1A" stroke-miterlimit="10"/>
<path d="M365.562 362.392L382.505 375.229L373.034 388.251L381.728 388.77C381.728 388.77 368.988 409.169 367.651 415.404" stroke="#231F20" stroke-miterlimit="10"/>
<path d="M334.359 362.392L317.416 375.229L326.895 388.251L318.2 388.77C318.2 388.77 330.94 409.169 332.278 415.404" stroke="#231F20" stroke-miterlimit="10"/>
<path d="M327.306 314.665C328.049 318.99 326.204 322.981 323.176 323.581C320.148 324.182 317.087 321.169 316.34 316.839C315.592 312.51 317.441 308.524 320.469 307.923C323.496 307.323 326.558 310.342 327.306 314.665Z" fill="#FD8970"/>
<path d="M373.99 314.851C373.37 319.198 375.335 323.126 378.379 323.623C381.422 324.121 384.394 321.001 385.013 316.654C385.633 312.307 383.668 308.379 380.623 307.881C377.579 307.384 374.61 310.504 373.99 314.851Z" fill="#FD8970"/>
<path d="M323.979 314.646C323.901 314.645 323.825 314.619 323.764 314.57C323.703 314.522 323.66 314.455 323.641 314.379C323.316 313.094 322.532 311.971 321.435 311.224C321.001 311.016 320.526 310.905 320.045 310.9C319.563 310.894 319.086 310.994 318.647 311.192C318.604 311.211 318.557 311.221 318.509 311.222C318.462 311.222 318.415 311.213 318.371 311.195C318.328 311.177 318.288 311.15 318.255 311.116C318.222 311.082 318.196 311.041 318.179 310.997C318.163 310.953 318.155 310.906 318.157 310.859C318.159 310.811 318.171 310.765 318.191 310.722C318.212 310.68 318.241 310.642 318.277 310.611C318.313 310.58 318.355 310.556 318.4 310.542C318.931 310.306 319.508 310.19 320.09 310.202C320.671 310.214 321.243 310.353 321.764 310.611C323.041 311.446 323.954 312.734 324.319 314.215C324.34 314.305 324.326 314.399 324.278 314.478C324.23 314.557 324.153 314.613 324.063 314.635C324.036 314.642 324.007 314.645 323.979 314.646Z" fill="#42210B"/>
<path d="M320.354 317.808C320.287 317.808 320.221 317.789 320.165 317.753C320.108 317.716 320.064 317.664 320.036 317.603C317.828 312.712 321.53 310.703 321.568 310.684C321.649 310.646 321.742 310.64 321.827 310.669C321.912 310.697 321.983 310.758 322.024 310.837C322.066 310.916 322.076 311.008 322.051 311.095C322.026 311.181 321.969 311.254 321.892 311.299C321.763 311.369 318.74 313.037 320.672 317.316C320.691 317.358 320.702 317.404 320.703 317.45C320.705 317.496 320.698 317.542 320.681 317.585C320.665 317.628 320.64 317.667 320.609 317.701C320.577 317.735 320.539 317.762 320.497 317.78C320.452 317.8 320.403 317.809 320.354 317.808Z" fill="#42210B"/>
<path d="M376.986 314.646C376.958 314.645 376.93 314.642 376.903 314.635C376.814 314.613 376.736 314.557 376.688 314.478C376.64 314.399 376.626 314.305 376.648 314.215C377.012 312.734 377.925 311.446 379.202 310.611C379.724 310.353 380.295 310.214 380.877 310.202C381.458 310.19 382.035 310.306 382.567 310.542C382.612 310.556 382.654 310.58 382.689 310.611C382.725 310.642 382.754 310.68 382.775 310.722C382.795 310.765 382.807 310.811 382.809 310.859C382.811 310.906 382.804 310.953 382.787 310.997C382.77 311.041 382.744 311.082 382.711 311.116C382.678 311.15 382.639 311.177 382.595 311.195C382.551 311.213 382.504 311.222 382.457 311.222C382.409 311.221 382.363 311.211 382.319 311.192C381.88 310.994 381.403 310.894 380.922 310.9C380.44 310.905 379.966 311.016 379.531 311.224C378.434 311.971 377.65 313.094 377.325 314.379C377.307 314.455 377.263 314.523 377.202 314.571C377.14 314.619 377.064 314.646 376.986 314.646Z" fill="#42210B"/>
<path d="M380.611 317.808C380.562 317.808 380.513 317.798 380.468 317.778C380.383 317.739 380.317 317.669 380.284 317.582C380.252 317.495 380.255 317.398 380.293 317.314C382.235 313.013 379.204 311.365 379.074 311.297C379.032 311.277 378.995 311.248 378.964 311.213C378.933 311.178 378.91 311.137 378.895 311.093C378.881 311.049 378.875 311.002 378.879 310.956C378.883 310.909 378.896 310.864 378.918 310.823C378.939 310.782 378.969 310.745 379.005 310.716C379.041 310.686 379.083 310.664 379.128 310.651C379.172 310.638 379.219 310.633 379.266 310.639C379.312 310.644 379.357 310.658 379.397 310.681C379.435 310.701 383.137 312.709 380.929 317.6C380.902 317.662 380.857 317.715 380.801 317.752C380.745 317.788 380.679 317.808 380.611 317.808Z" fill="#42210B"/>
<path d="M331.586 299.163C331.464 299.163 331.345 299.125 331.245 299.054C331.145 298.984 331.07 298.884 331.03 298.768C330.99 298.653 330.987 298.528 331.022 298.411C331.056 298.294 331.126 298.19 331.223 298.115C331.288 298.064 337.781 293.079 343.583 298.135C343.693 298.239 343.759 298.382 343.767 298.534C343.774 298.685 343.722 298.834 343.622 298.948C343.522 299.063 343.382 299.134 343.23 299.147C343.079 299.16 342.928 299.114 342.809 299.019C337.736 294.595 332.008 298.993 331.95 299.038C331.846 299.119 331.718 299.163 331.586 299.163Z" fill="#42210B"/>
<path d="M371.539 299.163C371.397 299.163 371.26 299.112 371.152 299.019C366.095 294.609 360.526 298.856 360.291 299.039C360.169 299.135 360.013 299.178 359.858 299.159C359.703 299.14 359.563 299.061 359.466 298.939C359.37 298.816 359.327 298.661 359.346 298.506C359.364 298.352 359.444 298.211 359.566 298.115C359.63 298.064 366.127 293.08 371.926 298.135C372.016 298.213 372.08 298.317 372.11 298.433C372.139 298.549 372.132 298.671 372.09 298.783C372.048 298.894 371.973 298.991 371.874 299.059C371.776 299.127 371.659 299.163 371.54 299.163H371.539Z" fill="#42210B"/>
<path d="M351.453 332.435C349.095 332.353 346.815 331.572 344.904 330.191C344.781 330.095 344.702 329.955 344.683 329.8C344.664 329.645 344.708 329.49 344.804 329.367C344.9 329.245 345.041 329.166 345.196 329.147C345.351 329.128 345.507 329.172 345.629 329.268C345.864 329.454 351.43 333.699 356.489 329.288C356.546 329.233 356.614 329.191 356.688 329.164C356.763 329.137 356.842 329.125 356.921 329.128C357 329.132 357.077 329.152 357.148 329.186C357.22 329.221 357.283 329.269 357.335 329.329C357.387 329.388 357.427 329.458 357.451 329.533C357.476 329.608 357.485 329.687 357.478 329.766C357.471 329.845 357.449 329.921 357.411 329.991C357.374 330.061 357.323 330.122 357.262 330.172C355.676 331.623 353.604 332.43 351.453 332.435Z" fill="#42210B"/>
<path d="M342.405 305.338H332.756C332.6 305.338 332.451 305.276 332.341 305.166C332.23 305.056 332.168 304.906 332.168 304.751C332.168 304.595 332.23 304.446 332.341 304.336C332.451 304.226 332.6 304.164 332.756 304.164H342.409C342.565 304.164 342.715 304.226 342.825 304.336C342.935 304.446 342.997 304.595 342.997 304.751C342.997 304.906 342.935 305.056 342.825 305.166C342.715 305.276 342.565 305.338 342.409 305.338H342.405Z" fill="#42210B"/>
<path d="M339.459 307.693C339.459 309.378 338.617 310.744 337.578 310.744C336.539 310.744 335.697 309.378 335.697 307.693C335.697 306.008 336.54 304.641 337.578 304.641C338.616 304.641 339.459 306.007 339.459 307.693Z" fill="#42210B"/>
<path d="M369.319 305.338H359.665C359.509 305.338 359.36 305.276 359.249 305.166C359.139 305.056 359.077 304.906 359.077 304.751C359.077 304.595 359.139 304.446 359.249 304.336C359.36 304.226 359.509 304.164 359.665 304.164H369.319C369.475 304.164 369.624 304.226 369.734 304.336C369.845 304.446 369.907 304.595 369.907 304.751C369.907 304.906 369.845 305.056 369.734 305.166C369.624 305.276 369.475 305.338 369.319 305.338Z" fill="#42210B"/>
<path d="M364.492 310.745C365.531 310.745 366.373 309.379 366.373 307.693C366.373 306.007 365.531 304.641 364.492 304.641C363.453 304.641 362.611 306.007 362.611 307.693C362.611 309.379 363.453 310.745 364.492 310.745Z" fill="#42210B"/>
<path d="M351.214 321.687C354.292 321.687 356.703 320.339 356.703 318.618C356.703 316.998 354.566 315.709 351.749 315.562V310.66C351.749 310.59 351.735 310.52 351.708 310.455C351.681 310.39 351.642 310.331 351.592 310.282C351.542 310.232 351.483 310.193 351.418 310.166C351.353 310.139 351.284 310.125 351.214 310.125C351.143 310.125 351.074 310.139 351.009 310.166C350.944 310.193 350.885 310.232 350.835 310.282C350.785 310.331 350.746 310.39 350.719 310.455C350.692 310.52 350.678 310.59 350.678 310.66V316.618H351.214C353.816 316.618 355.632 317.672 355.632 318.618C355.632 319.565 353.817 320.618 351.214 320.618C351.072 320.618 350.935 320.674 350.835 320.775C350.735 320.875 350.678 321.011 350.678 321.153C350.678 321.294 350.735 321.43 350.835 321.531C350.935 321.631 351.072 321.687 351.214 321.687Z" fill="#42210B"/>
<path d="M344.68 287.944C348.509 290.266 352.907 291.486 357.387 291.468C361.867 291.449 366.254 290.194 370.064 287.841" stroke="white" stroke-miterlimit="10"/>
<path d="M362.211 263.586C362.211 263.586 368.404 262.147 369.908 267.183" stroke="white" stroke-miterlimit="10"/>
<path d="M318.174 282.085C318.174 282.085 315.215 285.656 316.759 291.476" stroke="white" stroke-width="0.5" stroke-miterlimit="10"/>
<path d="M478.699 396.689H474.312V432.816H478.699V396.689Z" fill="#14649C"/>
<g style="mix-blend-mode:multiply">
<path d="M478.699 425.587H474.312V432.816H478.699V425.587Z" fill="#97B8FF"/>
</g>
<path d="M487.899 430.181V449.92H452.538V430.181C452.539 429.209 452.926 428.277 453.614 427.59C454.302 426.903 455.236 426.516 456.209 426.516H484.228C485.202 426.516 486.135 426.903 486.823 427.59C487.511 428.277 487.898 429.209 487.899 430.181Z" fill="#14649C"/>
<g style="mix-blend-mode:multiply">
<path d="M487.899 442.393H452.538V448.991H487.899V442.393Z" fill="#97B8FF"/>
</g>
<path d="M452.152 443.317H488.287C489.083 443.317 489.846 443.633 490.409 444.195C490.972 444.757 491.289 445.52 491.289 446.315V449.92H449.15V446.315C449.15 445.52 449.466 444.757 450.029 444.195C450.592 443.633 451.356 443.317 452.152 443.317V443.317Z" fill="#14649C"/>
<g style="mix-blend-mode:multiply">
<path d="M478.699 396.689H474.312V397.617H478.699V396.689Z" fill="#14649C"/>
</g>
<path d="M481.041 394.519C481.042 394.839 480.972 395.156 480.837 395.447C480.724 395.67 480.577 395.873 480.4 396.05C480.2 396.253 479.961 396.415 479.698 396.525C479.435 396.635 479.152 396.691 478.866 396.69H474.145C473.734 396.69 473.331 396.573 472.984 396.353C472.637 396.132 472.36 395.818 472.184 395.447C472.042 395.158 471.969 394.84 471.971 394.519H481.041Z" fill="#14649C"/>
<g style="mix-blend-mode:multiply">
<path d="M481.041 394.519C481.042 394.839 480.972 395.156 480.837 395.447H472.184C472.042 395.158 471.969 394.84 471.971 394.519H481.041Z" fill="#14649C"/>
</g>
<path d="M487.218 385.232H465.792C464.699 385.232 463.813 386.117 463.813 387.209V392.539C463.813 393.631 464.699 394.516 465.792 394.516H487.218C488.311 394.516 489.198 393.631 489.198 392.539V387.209C489.198 386.117 488.311 385.232 487.218 385.232Z" fill="#14649C"/>
<path d="M487.446 387.483H465.837V392.244H487.446V387.483Z" fill="white"/>
<path d="M456.305 435.072C456.305 434.034 456.613 433.02 457.19 432.157C457.767 431.294 458.588 430.621 459.548 430.224C460.508 429.827 461.564 429.723 462.584 429.925C463.603 430.127 464.539 430.627 465.274 431.361C466.009 432.094 466.51 433.029 466.713 434.047C466.915 435.065 466.811 436.12 466.414 437.079C466.016 438.038 465.343 438.857 464.479 439.434C463.614 440.01 462.598 440.318 461.559 440.318C460.166 440.318 458.829 439.765 457.844 438.782C456.859 437.798 456.305 436.463 456.305 435.072Z" fill="white"/>
<path d="M462.354 432.078H460.764V438.069H462.354V432.078Z" fill="#14649C"/>
<path d="M458.559 434.28V435.867H464.558V434.28H458.559Z" fill="#14649C"/>
<path d="M277.721 360.331V411.092C277.721 412.272 277.489 413.44 277.037 414.53C276.585 415.62 275.922 416.611 275.087 417.445C274.251 418.279 273.26 418.941 272.168 419.392C271.076 419.844 269.907 420.076 268.725 420.075H179.537C177.153 420.073 174.867 419.126 173.182 417.441C171.496 415.757 170.55 413.473 170.55 411.092V360.331C170.548 358.275 171.252 356.281 172.547 354.683C173.841 353.085 175.646 351.979 177.66 351.552C178.276 351.413 178.905 351.345 179.537 351.348H268.725C269.907 351.347 271.077 351.579 272.168 352.03C273.26 352.482 274.252 353.143 275.088 353.977C275.923 354.812 276.586 355.802 277.038 356.892C277.489 357.983 277.722 359.151 277.721 360.331Z" fill="#14649C"/>
<g style="mix-blend-mode:multiply" opacity="0.5">
<path d="M277.145 414.257C276.5 415.967 275.349 417.439 273.845 418.479C272.34 419.518 270.554 420.075 268.725 420.076H179.537C177.153 420.073 174.867 419.126 173.182 417.441C171.496 415.757 170.55 413.473 170.55 411.092V360.331C170.548 358.275 171.252 356.281 172.547 354.683C173.841 353.085 175.646 351.979 177.66 351.552C187.539 371.801 215.428 413.737 277.145 414.257Z" fill="#14649C"/>
</g>
<path d="M232.277 413.486V449.92H215.995V413.486C216.035 411.532 216.851 409.675 218.263 408.321C219.674 406.967 221.566 406.229 223.522 406.267H224.74C226.698 406.227 228.591 406.965 230.005 408.318C231.418 409.672 232.235 411.531 232.277 413.486Z" fill="#14649C"/>
<g style="mix-blend-mode:multiply">
<path d="M232.277 431.713H215.995V442.496H232.277V431.713Z" fill="#97B8FF"/>
</g>
<path d="M271.68 442.533V450.505H176.591V442.533C176.59 441.478 176.798 440.434 177.201 439.459C177.605 438.484 178.197 437.599 178.943 436.852C179.69 436.106 180.576 435.514 181.552 435.11C182.527 434.706 183.573 434.497 184.63 434.497H263.632C265.766 434.498 267.813 435.345 269.322 436.852C270.831 438.358 271.679 440.402 271.68 442.533Z" fill="#14649C"/>
<path d="M225.377 380.229C230.459 380.229 234.579 376.115 234.579 371.04C234.579 365.965 230.459 361.851 225.377 361.851C220.294 361.851 216.174 365.965 216.174 371.04C216.174 376.115 220.294 380.229 225.377 380.229Z" fill="white"/>
<path d="M226.769 365.794H223.983V376.287H226.769V365.794Z" fill="#14649C"/>
<path d="M220.123 369.65V372.431H230.63V369.65H220.123Z" fill="#14649C"/>
<g style="mix-blend-mode:multiply">
<path d="M271.68 443.906H176.591V449.595H271.68V443.906Z" fill="#14649C"/>
</g>
<path d="M272.386 445.767H174.538C173.794 445.767 173.19 446.37 173.19 447.114V450.104C173.19 450.847 173.794 451.45 174.538 451.45H272.386C273.131 451.45 273.735 450.847 273.735 450.104V447.114C273.735 446.37 273.131 445.767 272.386 445.767Z" fill="#14649C"/>
<path d="M586.378 269.252C579.414 260.17 541.092 256.168 540.376 305.148C539.66 354.129 538.81 364.114 534.236 376.478C574.188 378.38 611.57 378 611.57 378C611.57 378 606.924 354.512 605.994 335.431C605.879 332.942 605.971 330.449 606.267 327.975C608.703 307.215 613.542 268.58 586.378 269.252Z" fill="black"/>
<path d="M535.165 452.24V384.428C535.165 380.266 536.39 376.195 538.686 372.722C540.982 369.248 544.25 366.524 548.083 364.888L562.043 358.935H580.343L595.572 363.63C599.916 364.97 603.716 367.664 606.415 371.318C609.114 374.971 610.571 379.392 610.571 383.932V449.92L535.165 452.24Z" fill="#14649C"/>
<path d="M550.477 387.142H595.258" stroke="white" stroke-width="4" stroke-miterlimit="10"/>
<path d="M549.228 391.88H594.009" stroke="white" stroke-width="2" stroke-miterlimit="10"/>
<path d="M549.228 395.513H594.009" stroke="white" stroke-width="2" stroke-miterlimit="10"/>
<g style="mix-blend-mode:multiply" opacity="0.5">
<path d="M548.53 364.699L548.086 364.885C544.252 366.52 540.984 369.244 538.687 372.719C536.389 376.193 535.165 380.265 535.165 384.429V452.24L610.57 449.92V446.257C577.783 426.73 558.881 391.964 548.53 364.699Z" fill="#14649C"/>
</g>
<path d="M581.544 359.305C581.544 359.305 588.099 360.027 588.664 377.633C589.229 395.239 588.664 454.037 588.664 454.037H609.667L611.247 370.272C611.247 370.272 588.552 359.305 581.544 359.305Z" fill="white"/>
<path d="M575.298 366.449H570.573C569.579 366.478 568.591 366.303 567.668 365.934C566.745 365.566 565.908 365.012 565.208 364.307C564.508 363.603 563.96 362.762 563.599 361.838C563.237 360.913 563.07 359.924 563.107 358.932L564.471 338.172H581.4L582.764 358.932C582.801 359.924 582.633 360.913 582.272 361.838C581.91 362.762 581.363 363.603 580.663 364.307C579.963 365.012 579.126 365.566 578.203 365.934C577.28 366.303 576.291 366.478 575.298 366.449Z" fill="#FD8970"/>
<g style="mix-blend-mode:multiply">
<path d="M581.4 338.175H564.474L563.909 346.775C565.881 347.905 567.927 348.903 570.033 349.76C571.65 350.433 573.457 350.499 575.119 349.946C577.507 349.115 579.8 348.036 581.962 346.727L581.4 338.175Z" fill="#FD8970"/>
</g>
<path d="M544.865 305.363C544.865 305.363 541.964 332.393 570.962 344.192C572.58 344.865 574.386 344.931 576.049 344.378C587.771 340.346 601.048 328.362 601.048 308.422C602.07 292.103 592.875 276.802 567.338 278.841C541.801 280.881 544.865 305.363 544.865 305.363Z" fill="#FD8970"/>
<path d="M534.916 370.122L534.186 370.429C533.086 370.891 532.089 371.567 531.252 372.416C530.415 373.266 529.755 374.272 529.31 375.378L498.817 451.084L520.606 451.82L535.038 411.184L535.165 454.037H556.168C556.168 454.037 555.603 395.238 556.168 377.633C556.733 360.028 562.859 358.935 562.859 358.935C554.588 359.305 534.916 370.122 534.916 370.122Z" fill="white"/>
<path d="M587.924 361.245L604.865 374.082L595.393 387.104L604.087 387.623C604.087 387.623 591.348 408.023 590.011 414.257" stroke="#231F20" stroke-miterlimit="10"/>
<path d="M558.016 361.245L541.075 374.082L550.548 387.104L541.854 387.623C541.854 387.623 554.594 408.023 555.931 414.257" stroke="#231F20" stroke-miterlimit="10"/>
<path d="M609.343 425.658L592.955 426.501L596.587 415.957C596.587 415.957 594.56 406.763 594.728 402.798C592.954 402.46 590.926 408.028 592.954 413.173C590.797 419.473 588.262 426.22 586.71 430.276C586.538 430.728 586.469 431.211 586.508 431.693C586.547 432.174 586.693 432.64 586.936 433.058C587.178 433.476 587.511 433.835 587.909 434.108C588.308 434.381 588.763 434.562 589.24 434.638L609.342 437.807L609.343 425.658Z" fill="#FD8970"/>
<g style="mix-blend-mode:multiply">
<path d="M609.343 425.657L593.844 426.456V435.364L609.343 437.808V425.657Z" fill="#FD8970"/>
</g>
<path d="M594.773 424.643L618.182 422.573C618.403 422.554 618.615 422.477 618.796 422.35C618.978 422.224 619.123 422.051 619.217 421.851C619.311 421.651 619.351 421.43 619.333 421.209C619.314 420.989 619.238 420.777 619.112 420.595L606.746 402.783L606.653 368.135L611.249 370.269L642.348 422.483C643.592 424.572 644.25 426.957 644.252 429.387C644.255 431.817 643.602 434.203 642.362 436.295C641.123 438.386 639.342 440.106 637.207 441.273C635.072 442.44 632.662 443.011 630.229 442.927L594.774 441.698L594.773 424.643Z" fill="white"/>
<path d="M585.419 417.002C585.419 417.002 590.58 416.1 590.92 421.763C590.318 422.639 589.666 423.479 588.968 424.28C588.968 424.28 586.95 417.564 585.419 417.002Z" fill="#FD8970"/>
<path d="M545.999 316.895C545.999 316.895 541.881 309.727 555.122 304.481C568.363 299.235 582.537 291.329 585.276 281.639C586.437 291.154 591.901 296.19 594.633 300.703C597.366 305.216 598.522 313.82 598.522 313.82C598.522 313.82 603.041 312.455 603.041 312.141C603.041 311.826 601.99 288.321 601.99 288.321L587.909 276.882L569.938 274.365L554.281 278.658L546.294 285.803L542.722 303.328L543.352 317.703L546.504 316.896" fill="black"/>
<path d="M592.527 414.023C592.525 414.814 592.209 415.573 591.648 416.131C591.087 416.69 590.327 417.003 589.534 417.002H579.191C578.799 417.003 578.411 416.926 578.049 416.776C577.687 416.627 577.358 416.407 577.08 416.13C576.803 415.854 576.584 415.525 576.434 415.164C576.284 414.802 576.207 414.415 576.208 414.023L576.365 411.972L576.793 406.191L577.007 403.379C577.043 402.895 577.221 402.432 577.519 402.048C577.816 401.663 578.22 401.375 578.68 401.217C579.035 401.094 579.355 400.886 579.611 400.611C579.867 400.336 580.051 400.002 580.148 399.639L580.678 397.653H588.057L588.577 399.639C588.674 400.002 588.858 400.336 589.114 400.611C589.37 400.886 589.69 401.094 590.045 401.217C590.505 401.375 590.909 401.663 591.206 402.048C591.503 402.432 591.681 402.895 591.718 403.379L591.932 406.191L592.369 411.972L592.527 414.023Z" fill="#3289C6"/>
<g style="mix-blend-mode:multiply" opacity="0.5">
<path d="M588.402 398.985L588.052 397.656H580.673L580.323 398.985H588.402Z" fill="#3847DC"/>
</g>
<path d="M588.572 394.923H580.155C579.539 394.923 579.04 395.422 579.04 396.037V396.943C579.04 397.558 579.539 398.057 580.155 398.057H588.572C589.188 398.057 589.687 397.558 589.687 396.943V396.037C589.687 395.422 589.188 394.923 588.572 394.923Z" fill="#14649C"/>
<g style="mix-blend-mode:multiply">
<g style="mix-blend-mode:multiply">
<path d="M580.089 395.748V397.187" stroke="#14649C" stroke-width="0.313" stroke-miterlimit="10" stroke-linecap="round"/>
</g>
<g style="mix-blend-mode:multiply">
<path d="M580.944 395.748V397.187" stroke="#14649C" stroke-width="0.313" stroke-miterlimit="10" stroke-linecap="round"/>
</g>
<g style="mix-blend-mode:multiply">
<path d="M581.799 395.748V397.187" stroke="#14649C" stroke-width="0.313" stroke-miterlimit="10" stroke-linecap="round"/>
</g>
<g style="mix-blend-mode:multiply">
<path d="M582.654 395.748V397.187" stroke="#14649C" stroke-width="0.313" stroke-miterlimit="10" stroke-linecap="round"/>
</g>
<g style="mix-blend-mode:multiply">
<path d="M583.508 395.748V397.187" stroke="#14649C" stroke-width="0.313" stroke-miterlimit="10" stroke-linecap="round"/>
</g>
<g style="mix-blend-mode:multiply">
<path d="M584.363 395.748V397.187" stroke="#14649C" stroke-width="0.313" stroke-miterlimit="10" stroke-linecap="round"/>
</g>
<g style="mix-blend-mode:multiply">
<path d="M585.218 395.748V397.187" stroke="#14649C" stroke-width="0.313" stroke-miterlimit="10" stroke-linecap="round"/>
</g>
<g style="mix-blend-mode:multiply">
<path d="M586.073 395.748V397.187" stroke="#14649C" stroke-width="0.313" stroke-miterlimit="10" stroke-linecap="round"/>
</g>
<g style="mix-blend-mode:multiply">
<path d="M586.928 395.748V397.187" stroke="#14649C" stroke-width="0.313" stroke-miterlimit="10" stroke-linecap="round"/>
</g>
<g style="mix-blend-mode:multiply">
<path d="M587.782 395.748V397.187" stroke="#14649C" stroke-width="0.313" stroke-miterlimit="10" stroke-linecap="round"/>
</g>
<g style="mix-blend-mode:multiply">
<path d="M588.637 395.748V397.187" stroke="#14649C" stroke-width="0.313" stroke-miterlimit="10" stroke-linecap="round"/>
</g>
</g>
<path d="M592.368 411.972H576.365L576.793 406.191H591.932L592.368 411.972Z" fill="#14649C"/>
<g style="mix-blend-mode:multiply" opacity="0.5">
<path d="M579.191 417.002H589.531C590.082 417.001 590.622 416.847 591.091 416.559C591.559 416.27 591.939 415.857 592.187 415.366C588.788 414.578 585.677 412.859 583.202 410.404C580.726 407.948 578.986 404.852 578.175 401.463C577.842 401.667 577.562 401.947 577.359 402.28C577.155 402.613 577.033 402.99 577.004 403.379L576.79 406.191L576.363 411.972L576.205 414.023C576.204 414.415 576.281 414.802 576.431 415.164C576.581 415.526 576.801 415.855 577.079 416.131C577.356 416.408 577.685 416.627 578.048 416.777C578.41 416.926 578.798 417.003 579.191 417.002Z" fill="#97B8FF"/>
</g>
<path d="M549.488 315.667C550.52 319.919 549.088 323.915 546.289 324.593C543.49 325.27 540.384 322.373 539.352 318.122C538.319 313.871 539.751 309.875 542.551 309.197C545.35 308.52 548.455 311.416 549.488 315.667Z" fill="#FD8970"/>
<path d="M596.055 315.667C595.023 319.919 596.455 323.915 599.254 324.593C602.053 325.27 605.159 322.373 606.191 318.122C607.224 313.871 605.792 309.875 602.992 309.197C600.193 308.52 597.087 311.416 596.055 315.667Z" fill="#FD8970"/>
<path d="M598.394 315.957C598.366 315.957 598.338 315.953 598.311 315.946C598.267 315.936 598.225 315.916 598.188 315.889C598.151 315.862 598.12 315.829 598.097 315.79C598.073 315.751 598.057 315.707 598.05 315.662C598.043 315.617 598.045 315.571 598.056 315.527C598.421 314.046 599.333 312.758 600.611 311.923C601.132 311.665 601.704 311.526 602.285 311.514C602.866 311.502 603.443 311.618 603.975 311.854C604.02 311.868 604.062 311.892 604.098 311.923C604.133 311.954 604.162 311.992 604.183 312.034C604.204 312.077 604.215 312.123 604.217 312.171C604.22 312.218 604.212 312.265 604.195 312.309C604.178 312.354 604.153 312.394 604.12 312.428C604.087 312.462 604.047 312.489 604.003 312.507C603.959 312.525 603.912 312.534 603.865 312.534C603.818 312.533 603.771 312.523 603.728 312.504C603.289 312.306 602.812 312.206 602.33 312.212C601.848 312.217 601.374 312.328 600.94 312.536C599.842 313.283 599.057 314.405 598.733 315.691C598.715 315.767 598.671 315.834 598.61 315.883C598.548 315.931 598.472 315.957 598.394 315.957Z" fill="#42210B"/>
<path d="M602.019 319.119C601.97 319.12 601.921 319.109 601.876 319.089C601.834 319.07 601.796 319.043 601.764 319.009C601.733 318.976 601.708 318.936 601.692 318.893C601.676 318.85 601.668 318.804 601.67 318.758C601.672 318.712 601.683 318.667 601.702 318.625C603.644 314.324 600.613 312.676 600.483 312.608C600.401 312.566 600.339 312.492 600.312 312.404C600.284 312.316 600.293 312.22 600.336 312.138C600.379 312.057 600.452 311.995 600.541 311.968C600.629 311.94 600.724 311.949 600.806 311.991C600.844 312.011 604.546 314.02 602.337 318.911C602.31 318.973 602.265 319.026 602.209 319.062C602.153 319.099 602.087 319.119 602.019 319.119Z" fill="#42210B"/>
<path d="M546.765 315.957C546.687 315.957 546.611 315.93 546.55 315.882C546.489 315.834 546.445 315.767 546.427 315.691C546.103 314.406 545.318 313.283 544.221 312.536C543.786 312.328 543.312 312.217 542.83 312.212C542.349 312.206 541.872 312.306 541.433 312.504C541.348 312.531 541.256 312.524 541.175 312.485C541.095 312.447 541.033 312.379 541.001 312.296C540.97 312.212 540.971 312.12 541.005 312.038C541.039 311.956 541.104 311.89 541.185 311.854C541.717 311.618 542.294 311.502 542.876 311.514C543.457 311.526 544.029 311.665 544.55 311.923C545.827 312.759 546.74 314.047 547.105 315.527C547.127 315.617 547.112 315.711 547.064 315.79C547.016 315.868 546.938 315.925 546.849 315.947C546.821 315.954 546.793 315.957 546.765 315.957Z" fill="#42210B"/>
<path d="M543.14 319.119C543.073 319.119 543.007 319.1 542.951 319.064C542.895 319.028 542.85 318.976 542.822 318.915C540.614 314.024 544.317 312.015 544.355 311.995C544.436 311.955 544.53 311.949 544.616 311.977C544.702 312.006 544.774 312.066 544.816 312.146C544.858 312.227 544.867 312.32 544.841 312.407C544.816 312.494 544.757 312.567 544.678 312.611C544.55 312.68 541.527 314.349 543.458 318.628C543.477 318.67 543.488 318.716 543.49 318.762C543.491 318.808 543.484 318.854 543.468 318.897C543.451 318.94 543.427 318.98 543.395 319.013C543.363 319.047 543.325 319.074 543.283 319.092C543.238 319.112 543.189 319.121 543.14 319.119Z" fill="#42210B"/>
<path d="M572.867 333.748C568.09 333.748 564.294 330.36 564.123 330.205C564.032 330.122 563.977 330.007 563.971 329.884C563.965 329.761 564.008 329.641 564.091 329.55C564.174 329.458 564.29 329.404 564.413 329.398C564.536 329.392 564.656 329.435 564.748 329.518C564.79 329.556 569.023 333.322 573.892 332.766C576.749 332.436 579.29 330.691 581.445 327.581C581.479 327.529 581.523 327.485 581.575 327.45C581.626 327.416 581.684 327.392 581.745 327.38C581.806 327.369 581.868 327.369 581.929 327.382C581.989 327.394 582.047 327.419 582.098 327.454C582.149 327.49 582.192 327.535 582.225 327.587C582.259 327.639 582.281 327.697 582.292 327.758C582.302 327.819 582.3 327.882 582.286 327.942C582.272 328.002 582.246 328.059 582.209 328.109C579.894 331.45 577.129 333.329 573.992 333.688C573.619 333.73 573.243 333.75 572.867 333.748Z" fill="#42210B"/>
<path d="M583.405 329.1C583.362 329.1 583.319 329.094 583.277 329.082C582.097 328.691 581.049 327.978 580.253 327.024C580.172 326.93 580.131 326.808 580.139 326.685C580.146 326.561 580.202 326.445 580.294 326.361C580.338 326.32 580.391 326.289 580.448 326.268C580.505 326.248 580.566 326.239 580.627 326.242C580.687 326.246 580.747 326.261 580.801 326.288C580.856 326.315 580.904 326.352 580.944 326.398L580.965 326.422C581.642 327.236 582.533 327.847 583.538 328.185C583.646 328.216 583.739 328.284 583.801 328.378C583.862 328.472 583.887 328.585 583.871 328.696C583.856 328.807 583.8 328.909 583.715 328.982C583.631 329.055 583.522 329.096 583.41 329.095L583.405 329.1Z" fill="#42210B"/>
<path d="M573.657 322.883C570.85 323.02 568.59 321.896 568.514 320.327C568.443 318.848 570.334 317.578 572.898 317.321L572.68 312.848C572.674 312.718 572.72 312.592 572.807 312.496C572.894 312.4 573.016 312.343 573.145 312.337C573.275 312.33 573.401 312.376 573.497 312.463C573.593 312.55 573.651 312.671 573.657 312.801L573.921 318.236L573.433 318.259C571.058 318.374 569.448 319.416 569.49 320.279C569.532 321.142 571.234 322.024 573.61 321.909C573.675 321.903 573.741 321.911 573.804 321.931C573.866 321.952 573.924 321.984 573.974 322.027C574.023 322.071 574.063 322.123 574.092 322.183C574.121 322.242 574.137 322.306 574.14 322.371C574.144 322.437 574.133 322.503 574.111 322.564C574.088 322.626 574.053 322.682 574.008 322.73C573.963 322.778 573.908 322.816 573.848 322.842C573.788 322.869 573.723 322.883 573.657 322.883Z" fill="#42210B"/>
<path d="M590.547 311.911C588.746 311.025 586.708 310.738 584.731 311.091C582.755 311.444 580.943 312.419 579.562 313.874C579.486 313.961 579.438 314.067 579.422 314.18C579.406 314.293 579.423 314.409 579.471 314.513C579.519 314.616 579.597 314.704 579.694 314.765C579.791 314.826 579.903 314.858 580.018 314.856C580.103 314.859 580.187 314.843 580.264 314.807C580.341 314.772 580.408 314.719 580.461 314.653C580.641 314.45 584.958 309.647 591.351 313.718C591.448 313.78 591.561 313.814 591.676 313.814C591.792 313.814 591.905 313.78 592.002 313.718L592.254 313.036L592.985 311.012L590.547 311.911Z" fill="#42210B"/>
<path d="M565.793 306.388C565.681 306.388 565.572 306.347 565.487 306.273C560.82 302.205 555.694 306.12 555.478 306.289C555.431 306.329 555.375 306.36 555.316 306.378C555.256 306.397 555.193 306.403 555.131 306.397C555.069 306.391 555.008 306.372 554.954 306.342C554.899 306.312 554.851 306.271 554.812 306.222C554.773 306.173 554.745 306.116 554.729 306.056C554.713 305.996 554.709 305.933 554.717 305.871C554.726 305.809 554.747 305.749 554.779 305.696C554.812 305.642 554.854 305.596 554.905 305.559C554.965 305.513 560.853 300.996 566.099 305.574C566.17 305.636 566.221 305.719 566.244 305.81C566.267 305.902 566.262 305.999 566.229 306.087C566.196 306.176 566.136 306.252 566.058 306.306C565.98 306.359 565.888 306.388 565.793 306.388Z" fill="#42210B"/>
<path d="M591.678 306.388C591.566 306.388 591.457 306.347 591.372 306.273C586.706 302.205 581.579 306.12 581.364 306.289C581.317 306.329 581.261 306.36 581.202 306.378C581.142 306.397 581.079 306.403 581.017 306.397C580.954 306.391 580.894 306.372 580.839 306.342C580.785 306.312 580.736 306.271 580.698 306.222C580.659 306.173 580.631 306.116 580.615 306.056C580.598 305.996 580.594 305.933 580.603 305.871C580.612 305.809 580.633 305.749 580.665 305.696C580.697 305.642 580.74 305.596 580.791 305.559C580.849 305.513 586.733 300.996 591.985 305.574C592.056 305.636 592.107 305.719 592.13 305.811C592.153 305.902 592.148 305.999 592.114 306.088C592.081 306.176 592.021 306.252 591.943 306.306C591.865 306.36 591.773 306.388 591.678 306.388Z" fill="#42210B"/>
<path d="M556.426 311.911C558.228 311.025 560.266 310.737 562.243 311.091C564.22 311.444 566.031 312.42 567.413 313.875C567.489 313.962 567.537 314.068 567.554 314.181C567.57 314.294 567.553 314.41 567.505 314.514C567.457 314.618 567.379 314.706 567.282 314.767C567.185 314.827 567.072 314.859 566.958 314.857C566.873 314.861 566.789 314.844 566.712 314.809C566.635 314.773 566.567 314.72 566.514 314.654C566.334 314.451 562.016 309.648 555.624 313.719C555.527 313.782 555.415 313.815 555.299 313.815C555.184 313.815 555.071 313.782 554.974 313.719L554.722 313.037L553.991 311.013L556.426 311.911Z" fill="#42210B"/>
<path d="M584.027 313.568C584.027 313.997 584.154 314.416 584.393 314.772C584.631 315.129 584.97 315.407 585.367 315.571C585.763 315.735 586.2 315.778 586.621 315.694C587.042 315.611 587.429 315.404 587.732 315.101C588.036 314.798 588.243 314.412 588.327 313.991C588.411 313.571 588.368 313.135 588.204 312.739C588.039 312.343 587.761 312.004 587.404 311.766C587.048 311.528 586.628 311.4 586.199 311.4C585.913 311.4 585.631 311.456 585.368 311.565C585.104 311.674 584.865 311.833 584.663 312.035C584.461 312.236 584.301 312.475 584.192 312.738C584.083 313.001 584.027 313.283 584.027 313.568Z" fill="#42210B"/>
<path d="M558.604 313.568C558.604 313.997 558.731 314.416 558.97 314.772C559.208 315.129 559.547 315.407 559.944 315.571C560.341 315.735 560.777 315.778 561.198 315.694C561.62 315.61 562.006 315.404 562.31 315.101C562.614 314.798 562.82 314.411 562.904 313.991C562.988 313.57 562.945 313.134 562.781 312.738C562.616 312.342 562.338 312.004 561.981 311.765C561.624 311.527 561.204 311.4 560.775 311.4C560.199 311.4 559.647 311.629 559.24 312.035C558.833 312.442 558.604 312.993 558.604 313.568Z" fill="#42210B"/>
<path d="M594.773 424.41L610.707 423.233" stroke="#231F20" stroke-miterlimit="10"/>
<path d="M594.773 441.701L609.343 442.205" stroke="#231F20" stroke-miterlimit="10"/>
<path d="M535.165 398.32V428.369" stroke="#231F20" stroke-miterlimit="10"/>
<path d="M610.57 398.32V423.234" stroke="#231F20" stroke-miterlimit="10"/>
<path d="M561.604 297.991C561.604 297.991 575.124 294.382 580.345 282.215" stroke="white" stroke-miterlimit="10"/>
<path d="M601.668 332.008C601.668 332.008 600.181 352.92 604.867 362.562" stroke="white" stroke-miterlimit="10"/>
<path d="M492.444 286.395L497.203 297.145L501.928 286.395H492.444Z" fill="#14649C"/>
<path d="M488.071 290.675L490.265 294.149L492.444 290.675H488.071Z" fill="#14649C"/>
<path d="M485.523 281.117L488.996 287.416L492.444 281.117H485.523Z" fill="#14649C"/>
<path d="M632.539 297.427L634.733 300.9L636.911 297.427H632.539Z" fill="#14649C"/>
<path d="M636.961 302.188L640.434 308.487L643.882 302.188H636.961Z" fill="#14649C"/>
<path d="M507.622 252.021L509.636 255.698L513.317 257.709L509.636 259.72L507.622 263.397L505.608 259.72L501.926 257.709L505.608 255.698L507.622 252.021Z" fill="white"/>
<path d="M640.42 342.313L642.434 345.989L646.116 348L642.434 350.011L640.42 353.688L638.407 350.011L634.725 348L638.407 345.989L640.42 342.313Z" fill="white"/>
<path d="M510.903 329.465C510.903 329.821 510.797 330.168 510.599 330.463C510.402 330.759 510.121 330.989 509.792 331.125C509.463 331.261 509.101 331.296 508.752 331.227C508.403 331.157 508.083 330.986 507.831 330.735C507.58 330.483 507.409 330.163 507.339 329.815C507.27 329.466 507.306 329.105 507.442 328.777C507.578 328.449 507.809 328.168 508.104 327.971C508.4 327.773 508.748 327.668 509.104 327.668C509.34 327.668 509.574 327.714 509.793 327.805C510.011 327.895 510.209 328.028 510.376 328.195C510.544 328.361 510.676 328.56 510.766 328.778C510.857 328.996 510.903 329.229 510.903 329.465Z" fill="white"/>
<path d="M509.104 341.273C510.916 341.273 512.385 339.806 512.385 337.996C512.385 336.187 510.916 334.72 509.104 334.72C507.291 334.72 505.822 336.187 505.822 337.996C505.822 339.806 507.291 341.273 509.104 341.273Z" fill="white"/>
<path d="M621.43 264.881C622.482 264.881 623.335 264.03 623.335 262.979C623.335 261.928 622.482 261.077 621.43 261.077C620.377 261.077 619.524 261.928 619.524 262.979C619.524 264.03 620.377 264.881 621.43 264.881Z" fill="white"/>
<path d="M631.463 460.671H37.0796V610.543H631.463V460.671Z" fill="#14649C"/>
<g style="mix-blend-mode:multiply" opacity="0.3">
<path d="M631.463 460.671H37.0796V465.311H631.463V460.671Z" fill="#14649C"/>
</g>
<path d="M657.261 446.751H11.2778V460.671H657.261V446.751Z" fill="#14649C"/>
<path d="M348.935 562.926C369.038 554.731 378.682 531.816 370.476 511.742C362.27 491.669 339.321 482.039 319.219 490.233C299.117 498.427 289.473 521.342 297.679 541.416C305.884 561.49 328.833 571.12 348.935 562.926Z" fill="white"/>
<path d="M340.022 504.154H328.126V548.973H340.022V504.154Z" fill="#14649C"/>
<path d="M311.633 520.626V532.504H356.517V520.626H311.633Z" fill="#14649C"/>
<path d="M66.3164 259.216L69.7048 264.581L73.0699 259.216H66.3164Z" fill="#14649C"/>
<path d="M71.645 250.493L78.5388 261.407L85.3834 250.493H71.645Z" fill="#14649C"/>
<path d="M149.917 261.896L152.112 265.369L154.29 261.896H149.917Z" fill="#14649C"/>
<path d="M144.077 254.559L147.55 260.858L150.997 254.559H144.077Z" fill="#14649C"/>
<path d="M28.6783 269.384L31.9561 275.369L37.9484 278.642L31.9561 281.915L28.6783 287.899L25.4005 281.915L19.4082 278.642L25.4005 275.369L28.6783 269.384Z" fill="white"/>
<path d="M39.7483 287.806C39.7483 288.161 39.6428 288.509 39.4451 288.804C39.2475 289.099 38.9665 289.33 38.6378 289.466C38.3091 289.602 37.9474 289.637 37.5984 289.568C37.2494 289.499 36.9289 289.328 36.6772 289.077C36.4255 288.825 36.2541 288.505 36.1846 288.157C36.1151 287.809 36.1506 287.447 36.2866 287.119C36.4226 286.791 36.6531 286.51 36.9488 286.313C37.2446 286.115 37.5924 286.009 37.9482 286.009C38.4254 286.009 38.8832 286.199 39.2207 286.535C39.5583 286.872 39.748 287.329 39.7483 287.806Z" fill="white"/>
<path d="M180.955 317.162L182.969 320.839L186.651 322.85L182.969 324.861L180.955 328.538L178.941 324.861L175.259 322.85L178.941 320.839L180.955 317.162Z" fill="white"/>
<path d="M175.01 315.353C175.01 315.708 174.904 316.055 174.706 316.351C174.509 316.646 174.228 316.876 173.899 317.012C173.57 317.148 173.208 317.184 172.859 317.115C172.51 317.045 172.19 316.874 171.938 316.623C171.686 316.372 171.515 316.052 171.446 315.703C171.376 315.355 171.412 314.993 171.548 314.665C171.684 314.337 171.915 314.056 172.211 313.859C172.507 313.661 172.854 313.556 173.21 313.556C173.688 313.556 174.145 313.745 174.483 314.082C174.82 314.419 175.01 314.876 175.01 315.353Z" fill="white"/>
<path d="M400.178 332.257L404.936 343.007L409.661 332.257H400.178Z" fill="#14649C"/>
<path d="M410.77 328.713L412.964 332.187L415.142 328.713H410.77Z" fill="#14649C"/>
<path d="M404.919 324.826L407.113 328.299L409.292 324.826H404.919Z" fill="#14649C"/>
<path d="M291.811 345.661L293.825 349.338L297.507 351.349L293.825 353.36L291.811 357.037L289.797 353.36L286.115 351.349L289.797 349.338L291.811 345.661Z" fill="white"/>
<path d="M301.438 343.007C301.438 343.362 301.332 343.71 301.134 344.005C300.937 344.301 300.656 344.531 300.327 344.667C299.998 344.803 299.637 344.838 299.288 344.769C298.939 344.7 298.618 344.529 298.366 344.277C298.115 344.026 297.943 343.706 297.874 343.358C297.805 343.009 297.84 342.648 297.976 342.32C298.112 341.991 298.343 341.711 298.639 341.513C298.935 341.316 299.283 341.21 299.639 341.21C299.875 341.21 300.109 341.257 300.327 341.347C300.545 341.437 300.744 341.57 300.911 341.737C301.078 341.903 301.21 342.102 301.301 342.32C301.391 342.538 301.438 342.771 301.438 343.007Z" fill="white"/>
<path d="M292.888 264.204L296.276 269.569L299.64 264.204H292.888Z" fill="#14649C"/>
<path d="M280.249 257.157L285.612 266.886L290.937 257.157H280.249Z" fill="#14649C"/>
<path d="M292.74 271.365C292.74 271.721 292.635 272.068 292.437 272.364C292.24 272.659 291.959 272.889 291.63 273.025C291.301 273.161 290.939 273.197 290.59 273.128C290.241 273.058 289.921 272.887 289.669 272.636C289.417 272.385 289.246 272.064 289.177 271.716C289.107 271.367 289.143 271.006 289.279 270.678C289.415 270.35 289.646 270.069 289.942 269.872C290.238 269.674 290.585 269.569 290.941 269.569C291.418 269.569 291.876 269.758 292.213 270.095C292.551 270.432 292.74 270.889 292.74 271.365Z" fill="#14649C"/>
<path d="M404.919 249.695L407.756 254.876L412.945 257.709L407.756 260.542L404.919 265.723L402.082 260.542L396.893 257.709L402.082 254.876L404.919 249.695Z" fill="white"/>
<path d="M413.933 271.366C413.933 271.742 413.822 272.11 413.612 272.422C413.403 272.735 413.105 272.979 412.757 273.123C412.409 273.267 412.026 273.305 411.657 273.231C411.287 273.158 410.948 272.977 410.681 272.711C410.415 272.445 410.233 272.106 410.16 271.737C410.086 271.368 410.124 270.985 410.268 270.638C410.412 270.29 410.656 269.993 410.97 269.784C411.283 269.575 411.651 269.463 412.028 269.463C412.278 269.463 412.526 269.512 412.757 269.608C412.988 269.704 413.198 269.844 413.375 270.02C413.552 270.197 413.693 270.407 413.788 270.638C413.884 270.868 413.933 271.116 413.933 271.366Z" fill="white"/>
<g style="mix-blend-mode:multiply">
<g style="mix-blend-mode:multiply" opacity="0.35">
<g style="mix-blend-mode:multiply" opacity="0.35">
<path d="M276.96 306.319C274.982 306.348 273.061 305.655 271.558 304.371C270.204 303.231 268.49 302.606 266.72 302.606C264.949 302.606 263.235 303.231 261.882 304.371C260.364 305.628 258.454 306.316 256.482 306.316C254.51 306.316 252.6 305.628 251.082 304.371C249.729 303.231 248.016 302.605 246.246 302.605C244.476 302.605 242.763 303.231 241.41 304.371C239.893 305.629 237.983 306.318 236.011 306.318C234.039 306.318 232.129 305.629 230.612 304.371C229.273 303.21 227.553 302.583 225.78 302.607V301.651C227.757 301.621 229.677 302.314 231.178 303.599C232.531 304.739 234.244 305.363 236.014 305.363C237.783 305.363 239.496 304.739 240.849 303.599C242.366 302.341 244.276 301.651 246.248 301.651C248.22 301.651 250.13 302.341 251.647 303.599C253 304.739 254.713 305.363 256.484 305.363C258.254 305.363 259.967 304.739 261.32 303.599C262.838 302.341 264.749 301.652 266.722 301.652C268.695 301.652 270.606 302.341 272.124 303.599C273.465 304.76 275.187 305.388 276.962 305.363L276.96 306.319Z" fill="#FD8970"/>
</g>
</g>
<g style="mix-blend-mode:multiply" opacity="0.35">
<g style="mix-blend-mode:multiply" opacity="0.35">
<path d="M276.96 312.504C274.982 312.533 273.061 311.84 271.558 310.556C270.204 309.416 268.49 308.791 266.72 308.791C264.949 308.791 263.235 309.416 261.882 310.556C260.364 311.813 258.454 312.501 256.482 312.501C254.51 312.501 252.6 311.813 251.082 310.556C249.729 309.416 248.016 308.791 246.246 308.791C244.476 308.791 242.763 309.416 241.41 310.556C239.893 311.814 237.983 312.503 236.011 312.503C234.039 312.503 232.129 311.814 230.612 310.556C229.273 309.395 227.553 308.768 225.78 308.792V307.836C227.757 307.806 229.677 308.499 231.178 309.784C232.531 310.924 234.244 311.548 236.014 311.548C237.783 311.548 239.496 310.924 240.849 309.784C242.366 308.526 244.276 307.836 246.248 307.836C248.22 307.836 250.13 308.526 251.647 309.784C253 310.924 254.713 311.549 256.484 311.549C258.254 311.549 259.967 310.924 261.32 309.784C262.838 308.526 264.749 307.837 266.722 307.837C268.695 307.837 270.606 308.526 272.124 309.784C273.465 310.945 275.187 311.573 276.962 311.548L276.96 312.504Z" fill="#FD8970"/>
</g>
</g>
</g>
<g style="mix-blend-mode:multiply">
<g style="mix-blend-mode:multiply" opacity="0.35">
<g style="mix-blend-mode:multiply" opacity="0.35">
<path d="M655.121 253.801C653.142 253.83 651.221 253.137 649.718 251.852C648.364 250.713 646.651 250.088 644.88 250.088C643.11 250.088 641.396 250.713 640.042 251.852C638.525 253.111 636.614 253.8 634.642 253.8C632.669 253.8 630.759 253.111 629.241 251.852C627.889 250.713 626.176 250.088 624.406 250.088C622.636 250.088 620.924 250.713 619.571 251.852C618.054 253.111 616.144 253.8 614.172 253.8C612.2 253.8 610.29 253.111 608.773 251.852C607.433 250.693 605.713 250.065 603.94 250.089V249.131C605.918 249.103 607.837 249.796 609.339 251.08C610.692 252.219 612.405 252.844 614.174 252.844C615.944 252.844 617.657 252.219 619.01 251.08C620.526 249.821 622.436 249.132 624.408 249.132C626.381 249.132 628.291 249.821 629.807 251.08C631.161 252.22 632.874 252.844 634.644 252.844C636.414 252.844 638.127 252.22 639.481 251.08C640.999 249.822 642.91 249.133 644.883 249.133C646.856 249.133 648.766 249.822 650.284 251.08C651.625 252.241 653.348 252.869 655.122 252.843L655.121 253.801Z" fill="#14649C"/>
</g>
</g>
<g style="mix-blend-mode:multiply" opacity="0.35">
<g style="mix-blend-mode:multiply" opacity="0.35">
<path d="M655.121 259.986C653.142 260.015 651.221 259.322 649.718 258.038C648.364 256.898 646.651 256.273 644.88 256.273C643.11 256.273 641.396 256.898 640.042 258.038C638.525 259.296 636.614 259.985 634.642 259.985C632.669 259.985 630.759 259.296 629.241 258.038C627.889 256.898 626.176 256.273 624.406 256.273C622.636 256.273 620.924 256.898 619.571 258.038C618.054 259.296 616.144 259.985 614.172 259.985C612.2 259.985 610.29 259.296 608.773 258.038C607.433 256.878 605.713 256.25 603.94 256.274V255.318C605.918 255.29 607.837 255.983 609.339 257.267C610.692 258.406 612.405 259.031 614.174 259.031C615.944 259.031 617.657 258.406 619.01 257.267C620.526 256.008 622.436 255.319 624.408 255.319C626.381 255.319 628.291 256.008 629.807 257.267C631.161 258.407 632.874 259.031 634.644 259.031C636.414 259.031 638.127 258.407 639.481 257.267C640.999 256.009 642.91 255.32 644.883 255.32C646.856 255.32 648.766 256.009 650.284 257.267C651.625 258.428 653.348 259.056 655.122 259.03L655.121 259.986Z" fill="#14649C"/>
</g>
</g>
</g>
<g style="mix-blend-mode:multiply">
<g style="mix-blend-mode:multiply" opacity="0.35">
<g style="mix-blend-mode:multiply" opacity="0.35">
<path d="M28.829 193.747C26.8507 193.775 24.9298 193.083 23.4268 191.798C22.0728 190.658 20.3592 190.034 18.5887 190.034C16.8181 190.034 15.1045 190.658 13.7506 191.798C12.2478 193.082 10.3273 193.775 8.34929 193.747C6.3721 193.776 4.45237 193.083 2.9508 191.798C1.61098 190.638 -0.108866 190.011 -1.88174 190.035C-3.65453 190.011 -5.37423 190.639 -6.71427 191.798C-8.21631 193.082 -10.1363 193.775 -12.1137 193.747C-14.0909 193.775 -16.0105 193.082 -17.5122 191.798C-18.8519 190.638 -20.5718 190.01 -22.3447 190.035V189.078C-20.3676 189.049 -18.448 189.742 -16.9462 191.027C-15.6069 192.187 -13.8867 192.815 -12.1137 192.79C-10.3408 192.814 -8.6208 192.186 -7.28116 191.027C-5.77917 189.742 -3.85918 189.049 -1.88174 189.078C0.0954227 189.049 2.01509 189.742 3.51676 191.027C4.86994 192.166 6.58319 192.792 8.35348 192.792C10.1238 192.792 11.837 192.166 13.1902 191.027C14.7082 189.768 16.619 189.079 18.5919 189.079C20.5648 189.079 22.4757 189.768 23.9937 191.027C25.3349 192.188 27.057 192.815 28.8318 192.79L28.829 193.747Z" fill="#FD8970"/>
</g>
</g>
<g style="mix-blend-mode:multiply" opacity="0.35">
<g style="mix-blend-mode:multiply" opacity="0.35">
<path d="M28.829 199.932C26.8506 199.961 24.9296 199.268 23.4268 197.983C22.0728 196.844 20.3592 196.219 18.5887 196.219C16.8181 196.219 15.1045 196.844 13.7506 197.983C12.2481 199.268 10.3274 199.961 8.34929 199.932C6.37202 199.961 4.45211 199.268 2.9508 197.983C1.61098 196.823 -0.108866 196.196 -1.88174 196.22C-3.65453 196.196 -5.37423 196.824 -6.71427 197.983C-8.21605 199.268 -10.1362 199.961 -12.1137 199.932C-14.0909 199.961 -16.0107 199.268 -17.5122 197.983C-18.8519 196.823 -20.5718 196.195 -22.3447 196.22V195.263C-20.3676 195.234 -18.448 195.927 -16.9462 197.212C-15.6069 198.372 -13.8867 199 -12.1137 198.975C-10.3408 198.999 -8.6208 198.372 -7.28116 197.212C-5.77917 195.927 -3.85918 195.234 -1.88174 195.263C0.0954227 195.234 2.01509 195.927 3.51676 197.212C4.86994 198.351 6.58319 198.977 8.35348 198.977C10.1238 198.977 11.837 198.351 13.1902 197.212C14.7082 195.953 16.619 195.264 18.5919 195.264C20.5648 195.264 22.4757 195.953 23.9937 197.212C25.3349 198.373 27.057 199 28.8318 198.975L28.829 199.932Z" fill="#FD8970"/>
</g>
</g>
</g>
<g style="mix-blend-mode:multiply">
<g style="mix-blend-mode:multiply" opacity="0.35">
<g style="mix-blend-mode:multiply" opacity="0.35">
<path d="M409.364 135.595C409.393 137.571 408.699 139.489 407.413 140.99C406.25 142.329 405.621 144.049 405.647 145.821C405.622 147.593 406.25 149.313 407.413 150.652C408.699 152.153 409.393 154.07 409.364 156.046C409.393 158.02 408.699 159.937 407.413 161.437C406.272 162.788 405.646 164.498 405.646 166.266C405.646 168.033 406.272 169.743 407.413 171.094C408.673 172.609 409.363 174.516 409.363 176.485C409.363 178.455 408.673 180.362 407.413 181.876C406.251 183.214 405.622 184.932 405.647 186.702H404.687C404.658 184.728 405.352 182.811 406.639 181.311C407.779 179.96 408.405 178.25 408.405 176.483C408.405 174.716 407.779 173.005 406.639 171.655C405.352 170.155 404.658 168.237 404.687 166.263C404.658 164.289 405.352 162.372 406.639 160.872C407.8 159.534 408.429 157.817 408.404 156.046C408.429 154.274 407.801 152.555 406.639 151.215C405.352 149.715 404.658 147.797 404.687 145.822C404.658 143.846 405.352 141.928 406.639 140.427C407.801 139.088 408.43 137.368 408.404 135.596L409.364 135.595Z" fill="#14649C"/>
</g>
</g>
<g style="mix-blend-mode:multiply" opacity="0.35">
<g style="mix-blend-mode:multiply" opacity="0.35">
<path d="M415.56 135.595C415.589 137.57 414.895 139.488 413.609 140.989C412.446 142.328 411.818 144.048 411.843 145.82C411.818 147.592 412.446 149.311 413.609 150.651C414.895 152.152 415.589 154.07 415.56 156.045C415.589 158.019 414.895 159.936 413.609 161.436C412.468 162.787 411.842 164.498 411.842 166.265C411.842 168.032 412.468 169.742 413.609 171.093C414.869 172.608 415.559 174.515 415.559 176.484C415.559 178.454 414.869 180.361 413.609 181.876C412.447 183.213 411.819 184.931 411.843 186.701H410.884C410.855 184.727 411.549 182.81 412.835 181.31C413.976 179.959 414.602 178.249 414.602 176.482C414.602 174.715 413.976 173.005 412.835 171.654C411.549 170.154 410.855 168.236 410.884 166.262C410.855 164.288 411.549 162.371 412.835 160.871C413.997 159.534 414.626 157.816 414.601 156.046C414.626 154.273 413.998 152.554 412.835 151.214C411.549 149.714 410.855 147.796 410.884 145.821C410.855 143.845 411.549 141.927 412.835 140.426C413.998 139.087 414.627 137.367 414.601 135.595H415.56Z" fill="#14649C"/>
</g>
</g>
</g>
<g style="mix-blend-mode:multiply" opacity="0.25">
<path d="M179.459 178.395L175.058 170.785H183.859L179.459 178.395Z" fill="#14649C"/>
</g>
<g style="mix-blend-mode:multiply" opacity="0.25">
<path d="M188.582 183.364L184.181 175.754H192.985L188.582 183.364Z" fill="#14649C"/>
</g>
<g style="mix-blend-mode:multiply" opacity="0.25">
<path d="M181.692 190.976L177.291 183.367H186.093L181.692 190.976Z" fill="#14649C"/>
</g>
<path opacity="0.25" d="M195.453 165.669C195.453 166.156 195.308 166.633 195.037 167.039C194.765 167.444 194.38 167.76 193.928 167.947C193.477 168.133 192.981 168.182 192.502 168.087C192.023 167.992 191.583 167.757 191.237 167.412C190.892 167.067 190.657 166.628 190.562 166.15C190.466 165.672 190.515 165.176 190.702 164.725C190.889 164.275 191.206 163.89 191.612 163.619C192.018 163.348 192.495 163.203 192.983 163.203C193.308 163.203 193.629 163.267 193.929 163.391C194.228 163.514 194.5 163.696 194.73 163.925C194.959 164.154 195.141 164.426 195.265 164.725C195.389 165.024 195.453 165.345 195.453 165.669Z" fill="#14649C"/>
<g style="mix-blend-mode:multiply" opacity="0.25">
<path d="M464.13 224.982L468.532 217.373H459.73L464.13 224.982Z" fill="#14649C"/>
</g>
<g style="mix-blend-mode:multiply" opacity="0.25">
<path d="M455.007 229.952L459.409 222.342H450.607L455.007 229.952Z" fill="#14649C"/>
</g>
<g style="mix-blend-mode:multiply" opacity="0.25">
<path d="M461.897 237.564L466.299 229.954H457.497L461.897 237.564Z" fill="#14649C"/>
</g>
<path opacity="0.25" d="M450.606 214.722C451.97 214.722 453.075 213.618 453.075 212.256C453.075 210.895 451.97 209.791 450.606 209.791C449.242 209.791 448.137 210.895 448.137 212.256C448.137 213.618 449.242 214.722 450.606 214.722Z" fill="#14649C"/>
</svg>
