<svg width="26" height="25" viewBox="0 0 26 25" fill="none" xmlns="http://www.w3.org/2000/svg">
<path d="M12.5 22.9167H3.12498C2.54998 22.9167 2.08334 22.45 2.08334 21.8751V3.12503C2.08334 2.55002 2.55002 2.08339 3.12498 2.08339H12.5C13.0761 2.08339 13.5417 1.61778 13.5417 1.04174C13.5417 0.465707 13.0761 0 12.5 0H3.12498C1.40207 0 0 1.40212 0 3.12503V21.875C0 23.5979 1.40207 25 3.12498 25H12.5C13.0761 25 13.5417 24.5344 13.5417 23.9584C13.5417 23.3823 13.0761 22.9167 12.5 22.9167Z" fill="#14649C"/>
<path d="M24.7726 11.7583L18.4392 5.50832C18.0309 5.10415 17.3705 5.10939 16.9663 5.51876C16.5622 5.92813 16.5663 6.5875 16.9768 6.99167L21.5028 11.4583H9.37465C8.79862 11.4583 8.33301 11.9239 8.33301 12.5C8.33301 13.076 8.79862 13.5417 9.37465 13.5417H21.5028L16.9768 18.0083C16.5664 18.4125 16.5632 19.0718 16.9663 19.4812C17.1705 19.6875 17.4392 19.7916 17.708 19.7916C17.9726 19.7916 18.2372 19.6916 18.4392 19.4916L24.7726 13.2416C24.9705 13.0458 25.083 12.7791 25.083 12.4999C25.083 12.2209 24.9715 11.9552 24.7726 11.7583Z" fill="#14649C"/>
</svg>
