<svg width="110" height="33" viewBox="0 0 110 33" fill="none" xmlns="http://www.w3.org/2000/svg">
<path d="M65.0107 32.658C65.7743 32.658 66.3934 32.4315 66.3934 32.1521C66.3934 31.8727 65.7743 31.6462 65.0107 31.6462C64.247 31.6462 63.6279 31.8727 63.6279 32.1521C63.6279 32.4315 64.247 32.658 65.0107 32.658Z" fill="#8C8C8C"/>
<path d="M65.0104 32.3772C65.3456 32.3772 65.6174 32.2765 65.6174 32.1523C65.6174 32.0282 65.3456 31.9275 65.0104 31.9275C64.6751 31.9275 64.4033 32.0282 64.4033 32.1523C64.4033 32.2765 64.6751 32.3772 65.0104 32.3772Z" fill="white"/>
<path d="M84.0878 3.5083L80.5579 1.43983C80.1869 1.22624 80.0633 0.742844 80.2769 0.383111C80.4905 0.0233769 80.9739 -0.111523 81.3336 0.102069L84.8635 2.17054C85.2345 2.38413 85.3581 2.86752 85.1445 3.22725C84.9309 3.58699 84.4588 3.72189 84.0878 3.5083Z" fill="#14649C"/>
<path d="M82.0417 1.40675L80.019 4.86011L81.3577 5.64416L83.3803 2.1908L82.0417 1.40675Z" fill="#14649C"/>
<path d="M80.8306 6.52378L79.5308 5.76245L77.4343 9.34192L78.7341 10.1032L80.8306 6.52378Z" fill="#ED1F23"/>
<path d="M80.5321 9.63506L81.2935 8.33521L77.714 6.23871L76.9527 7.53857L80.5321 9.63506Z" fill="#ED1F23"/>
<path d="M76.8789 10.2244L73.0269 16.8013L74.3655 17.5853L78.2176 11.0084L76.8789 10.2244Z" fill="#14649C"/>
<path d="M71.893 15.4088L71.5464 16.0005L75.7952 18.489L76.1418 17.8973L71.893 15.4088Z" fill="#14649C"/>
<path d="M71.4185 16.9758L69.4512 20.3371C69.2601 20.6743 72.835 22.7653 73.0261 22.4281L74.9934 19.0668L71.4185 16.9758Z" fill="#ED1F23"/>
<path d="M70.0025 23.5975C69.1593 23.1029 66.4951 21.3829 67.3944 19.854L75.9943 5.18359L77.1859 5.88058L68.6085 20.5173C68.6535 20.7758 69.2942 21.574 70.7107 22.4059C72.1159 23.2265 73.1389 23.4064 73.3862 23.3164L81.9411 8.67976L83.1328 9.37675L74.5329 24.0472C73.6448 25.576 70.8456 24.0921 70.0025 23.5975Z" fill="#14649C"/>
<path d="M76.5224 5.64457L75.106 8.06154C74.9036 8.03905 74.7125 7.9716 74.5326 7.85919C73.8132 7.432 73.5659 6.49894 73.993 5.77948C74.4202 5.06001 75.3533 4.81269 76.0728 5.23987C76.2526 5.34105 76.3988 5.47595 76.5224 5.64457Z" fill="#14649C"/>
<path d="M83.6051 11.4115C83.1779 12.1422 82.2448 12.3782 81.5254 11.9511C81.3343 11.8386 81.1881 11.7037 81.0645 11.5351L82.4697 9.12939C82.672 9.15188 82.8744 9.21933 83.0542 9.33174C83.7849 9.75893 84.0323 10.692 83.6051 11.4115Z" fill="#14649C"/>
<path d="M71.0813 23.7437L69.3501 22.7319L68.3945 25.0477L69.5299 25.711L71.0813 23.7437Z" fill="#14649C"/>
<path d="M65.0107 32.1523L69.0578 24.8901L69.35 25.0588L65.0107 32.1523Z" fill="#14649C"/>
<path d="M12.7368 5.28442H14.7828L8.35257 24.2042H6.40776L0 5.28442H2.1022L7.41951 21.0228L12.7368 5.28442Z" fill="#14649C"/>
<path d="M19.9988 10.8604C21.449 10.8604 22.6406 11.2988 23.5624 12.1644C24.4842 13.0412 24.9452 14.1429 24.9452 15.4919V24.2042H23.1015V22.8328C22.1685 23.9344 20.8757 24.4965 19.2344 24.4965C17.9079 24.4965 16.8399 24.1368 16.0305 23.4061C15.2323 22.6754 14.8276 21.7423 14.8276 20.5844C14.8276 19.4602 15.2211 18.5609 15.9968 17.8752C16.7724 17.1894 17.8741 16.7735 19.2906 16.6161L23.1015 16.2002V15.5481C23.1015 14.7387 22.8092 14.053 22.2247 13.5021C21.6401 12.9513 20.8981 12.6703 19.9988 12.6703C19.2007 12.6703 18.5262 12.8951 17.9528 13.356C17.3795 13.8169 17.0422 14.4015 16.9411 15.1097H15.1312C15.2211 13.8844 15.7045 12.8726 16.6038 12.0632C17.5032 11.2538 18.6273 10.8604 19.9988 10.8604ZM19.403 22.8103C20.4934 22.8103 21.3815 22.4955 22.0785 21.8547C22.7643 21.214 23.1128 20.4495 23.1128 19.5727V17.8302L19.5379 18.2237C17.6493 18.426 16.7162 19.2129 16.7162 20.5844C16.7162 21.2252 16.9523 21.7535 17.4245 22.1807C17.8966 22.5967 18.5486 22.8103 19.403 22.8103Z" fill="#14649C"/>
<path d="M29.9365 22.5292C28.6662 21.2252 28.0366 19.6064 28.0366 17.6728C28.0366 15.7392 28.6662 14.1204 29.9365 12.8164C31.2068 11.5124 32.8143 10.8604 34.7704 10.8604C35.8946 10.8604 36.9176 11.1077 37.8506 11.5911C38.7837 12.0745 39.5481 12.7377 40.1327 13.5921L38.6825 14.6825C37.7832 13.3672 36.4791 12.7152 34.7704 12.7152C33.3315 12.7152 32.1623 13.1874 31.263 14.1204C30.3524 15.0535 29.9027 16.2451 29.9027 17.6953C29.9027 19.1455 30.3524 20.3371 31.263 21.2702C32.1736 22.2032 33.3427 22.6754 34.7704 22.6754C36.4791 22.6754 37.7832 22.0233 38.6825 20.7081L40.1327 21.821C39.5481 22.6641 38.7837 23.3274 37.8506 23.7995C36.9176 24.2717 35.8946 24.5078 34.7704 24.5078C32.8143 24.4853 31.2068 23.8333 29.9365 22.5292Z" fill="#14649C"/>
<path d="M44.0449 22.5292C42.7746 21.2252 42.145 19.6064 42.145 17.6728C42.145 15.7392 42.7746 14.1204 44.0449 12.8164C45.3152 11.5124 46.9227 10.8604 48.8788 10.8604C50.003 10.8604 51.0259 11.1077 51.959 11.5911C52.8921 12.0745 53.6565 12.7377 54.2411 13.5921L52.7909 14.6825C51.8916 13.3672 50.5875 12.7152 48.8788 12.7152C47.4399 12.7152 46.2707 13.1874 45.3714 14.1204C44.4608 15.0535 44.0111 16.2451 44.0111 17.6953C44.0111 19.1455 44.4608 20.3371 45.3714 21.2702C46.282 22.2032 47.4511 22.6754 48.8788 22.6754C50.5875 22.6754 51.8916 22.0233 52.7909 20.7081L54.2411 21.821C53.6565 22.6641 52.8921 23.3274 51.959 23.7995C51.0259 24.2717 50.003 24.5078 48.8788 24.5078C46.9227 24.4853 45.3152 23.8333 44.0449 22.5292Z" fill="#14649C"/>
<path d="M58.2319 20.3933C58.2319 21.1015 58.5017 21.6636 59.0301 22.0796C59.5697 22.4955 60.2666 22.6979 61.1323 22.6979C61.9979 22.6979 62.6949 22.4955 63.2345 22.0796C63.7741 21.6636 64.0326 21.124 64.0326 20.472C64.0326 19.6289 63.5492 19.0331 62.5824 18.7071C62.189 18.5722 61.6044 18.4598 60.8287 18.3923C60.0643 18.3249 59.5247 18.2574 59.2324 18.1899C58.3331 17.9651 57.6473 17.5604 57.1752 16.9534C56.703 16.3575 56.467 15.6493 56.467 14.8399C56.467 13.682 56.8941 12.7265 57.7373 11.9733C58.5804 11.2201 59.6933 10.8491 61.0536 10.8491C62.4026 10.8491 63.5043 11.2089 64.3699 11.9396C65.2355 12.6703 65.6739 13.6033 65.6964 14.7612H63.7741C63.7516 14.1092 63.493 13.5809 62.9984 13.2099C62.4925 12.8277 61.8517 12.6366 61.0536 12.6366C60.2442 12.6366 59.5809 12.8389 59.0863 13.2324C58.5804 13.6258 58.3331 14.1542 58.3331 14.7837C58.3331 15.5931 58.8052 16.144 59.7383 16.4475C60.0643 16.5487 60.6151 16.6386 61.3683 16.7173C62.1328 16.796 62.7061 16.8747 63.1108 16.9646C64.0101 17.167 64.6959 17.5717 65.1793 18.1675C65.6627 18.7633 65.91 19.4827 65.91 20.3371C65.91 21.5512 65.4603 22.5405 64.5722 23.3162C63.6841 24.0918 62.5262 24.4853 61.1098 24.4853C59.727 24.4853 58.5804 24.1031 57.6698 23.3499C56.7592 22.5854 56.3096 21.6074 56.3096 20.3933H58.2319Z" fill="#14649C"/>
<path d="M90.6868 10.8604C92.1932 10.8604 93.441 11.3662 94.4303 12.3667C95.4195 13.3672 95.9254 14.6263 95.9254 16.1215V24.2042H94.0593V16.3013C94.0593 15.2671 93.722 14.4015 93.0588 13.727C92.3955 13.0412 91.5187 12.704 90.4282 12.704C89.3715 12.704 88.5284 13.0412 87.8764 13.727C87.2243 14.4127 86.9096 15.2671 86.9096 16.3013V24.2042H85.0435V11.1414H86.9096V12.4904C87.8539 11.4 89.1129 10.8604 90.6868 10.8604Z" fill="#14649C"/>
<path d="M110 24.2043H107.482L101.748 17.9089V24.2043H99.8823V4.45264H101.748V16.7398L107.482 11.1414H109.966L103.615 17.2906L110 24.2043Z" fill="#14649C"/>
</svg>
