<svg width="24" height="27" viewBox="0 0 24 27" fill="none" xmlns="http://www.w3.org/2000/svg">
<path d="M10.9093 26.1818C8.65448 26.1818 6.81836 24.3469 6.81836 22.0909C6.81836 21.6392 7.1849 21.2727 7.63654 21.2727C8.08818 21.2727 8.45473 21.6392 8.45473 22.0909C8.45473 23.4448 9.55656 24.5454 10.9093 24.5454C12.262 24.5454 13.3638 23.4448 13.3638 22.0909C13.3638 21.6392 13.7304 21.2727 14.182 21.2727C14.6337 21.2727 15.0002 21.6392 15.0002 22.0909C15.0002 24.3469 13.1643 26.1818 10.9093 26.1818Z" fill="#14649C"/>
<path d="M19.9091 22.9091H1.90903C0.856337 22.9091 0 22.0528 0 21.0001C0 20.4414 0.243298 19.9124 0.667571 19.5491C0.694937 19.5251 0.724301 19.5034 0.754863 19.4836C2.35627 18.0861 3.27274 16.0756 3.27274 13.9526V10.909C3.27274 6.69825 6.69928 3.27271 10.9091 3.27271C11.0836 3.27271 11.2724 3.2759 11.447 3.30546C11.893 3.37957 12.1943 3.80185 12.12 4.2469C12.0458 4.69194 11.616 4.99317 11.1785 4.91886C11.0912 4.90468 10.9953 4.90907 10.9091 4.90907C7.60156 4.90907 4.9091 7.60033 4.9091 10.909V13.9526C4.9091 16.5884 3.75374 19.0823 1.74224 20.7938C1.72586 20.8069 1.71167 20.8189 1.6941 20.8309C1.66473 20.8681 1.63637 20.9248 1.63637 21.0001C1.63637 21.1483 1.76081 21.2728 1.90903 21.2728H19.9091C20.0575 21.2728 20.1819 21.1483 20.1819 21.0001C20.1819 20.9236 20.1536 20.8681 20.123 20.8309C20.1066 20.8189 20.0925 20.8069 20.0761 20.7938C18.0634 19.0811 16.9092 16.5884 16.9092 13.9526V12.7637C16.9092 12.3121 17.2757 11.9455 17.7274 11.9455C18.179 11.9455 18.5456 12.3121 18.5456 12.7637V13.9526C18.5456 16.0768 19.463 18.0883 21.0666 19.487C21.096 19.5065 21.1244 19.5273 21.1505 19.5503C21.575 19.9124 21.8183 20.4414 21.8183 21.0001C21.8183 22.0528 20.962 22.9091 19.9091 22.9091Z" fill="#14649C"/>
<path d="M18.5454 10.9091C15.5378 10.9091 13.0908 8.46229 13.0908 5.45463C13.0908 2.44696 15.5378 0 18.5454 0C21.5531 0 23.9999 2.44696 23.9999 5.45463C23.9999 8.46229 21.5531 10.9091 18.5454 10.9091ZM18.5454 1.63637C16.4399 1.63637 14.7272 3.34904 14.7272 5.45463C14.7272 7.56001 16.4399 9.27269 18.5454 9.27269C20.6508 9.27269 22.3635 7.56001 22.3635 5.45463C22.3635 3.34904 20.6508 1.63637 18.5454 1.63637Z" fill="#14649C"/>
</svg>
