<svg width="36" height="42" viewBox="0 0 36 42" fill="none" xmlns="http://www.w3.org/2000/svg">
<path d="M7.71401 0.115723C6.29972 0.115723 5.14258 1.28319 5.14258 2.7101V39.0314C5.14258 40.4583 6.29972 41.6257 7.71401 41.6257H33.4283C34.8426 41.6257 35.9997 40.4583 35.9997 39.0314V10.4932L25.714 0.115723H7.71401Z" fill="#E2E5E7"/>
<path d="M28.2853 10.4932H35.9996L25.7139 0.115723V7.8988C25.7139 9.3257 26.871 10.4932 28.2853 10.4932Z" fill="#B0B7BD"/>
<path d="M36.0004 18.2762L28.2861 10.4933H36.0004V18.2762Z" fill="#CAD1D8"/>
<path d="M30.8571 33.8426C30.8571 34.556 30.2786 35.1398 29.5714 35.1398H1.28571C0.578571 35.1398 0 34.556 0 33.8426V20.8707C0 20.1572 0.578571 19.5735 1.28571 19.5735H29.5714C30.2786 19.5735 30.8571 20.1572 30.8571 20.8707V33.8426Z" fill="#F15642"/>
<path d="M5.60352 24.6936C5.60352 24.3511 5.87094 23.9775 6.30166 23.9775H8.67637C10.0135 23.9775 11.2169 24.8804 11.2169 26.6108C11.2169 28.2505 10.0135 29.1637 8.67637 29.1637H6.95995V30.5335C6.95995 30.9901 6.67194 31.2483 6.30166 31.2483C5.96223 31.2483 5.60352 30.9901 5.60352 30.5335V24.6936ZM6.95995 25.2838V27.8678H8.67637C9.36552 27.8678 9.91066 27.2542 9.91066 26.6108C9.91066 25.8857 9.36552 25.2838 8.67637 25.2838H6.95995Z" fill="white"/>
<path d="M13.2302 31.2474C12.8908 31.2474 12.5205 31.0606 12.5205 30.6053V24.7135C12.5205 24.3412 12.8908 24.0701 13.2302 24.0701H15.5844C20.2824 24.0701 20.1795 31.2474 15.6769 31.2474H13.2302ZM13.8782 25.3361V29.9827H15.5844C18.3602 29.9827 18.4837 25.3361 15.5844 25.3361H13.8782Z" fill="white"/>
<path d="M21.8468 25.4191V27.0678H24.4684C24.8387 27.0678 25.2089 27.4414 25.2089 27.8033C25.2089 28.1458 24.8387 28.426 24.4684 28.426H21.8468V30.604C21.8468 30.9672 21.591 31.2461 21.231 31.2461C20.7784 31.2461 20.502 30.9672 20.502 30.604V24.7121C20.502 24.3398 20.7797 24.0687 21.231 24.0687H24.8399C25.2925 24.0687 25.5599 24.3398 25.5599 24.7121C25.5599 25.0442 25.2925 25.4178 24.8399 25.4178H21.8468V25.4191Z" fill="white"/>
<path d="M29.5712 35.1397H5.14258V36.4369H29.5712C30.2783 36.4369 30.8569 35.8532 30.8569 35.1397V33.8425C30.8569 34.556 30.2783 35.1397 29.5712 35.1397Z" fill="#CAD1D8"/>
</svg>
