<svg width="13" height="25" viewBox="0 0 13 25" fill="none" xmlns="http://www.w3.org/2000/svg">
<path d="M3.15097 1C2.58145 1.00308 2.03613 1.2307 1.63341 1.63341C1.23069 2.03613 1.00308 2.58145 1 3.15097V21.849C1.00308 22.4185 1.23069 22.9639 1.63341 23.3666C2.03613 23.7693 2.58145 23.9969 3.15097 24H10.6317C11.2012 23.9969 11.7465 23.7693 12.1492 23.3666C12.5519 22.9639 12.7796 22.4185 12.7826 21.849V3.15097C12.7796 2.58145 12.5519 2.03613 12.1492 1.63341C11.7465 1.2307 11.2012 1.00308 10.6317 1H3.15097ZM3.15097 1.56087H10.6317C11.0049 1.56218 11.366 1.69362 11.6528 1.93255C11.9395 2.17147 12.134 2.50292 12.2027 2.86981H1.57996C1.64863 2.50292 1.84309 2.17147 2.12985 1.93255C2.41661 1.69362 2.77772 1.56218 3.15097 1.56087ZM5.95605 1.93454C5.88167 1.93454 5.81034 1.96408 5.75775 2.01667C5.70516 2.06926 5.67561 2.14059 5.67561 2.21497C5.67561 2.28935 5.70516 2.36067 5.75775 2.41327C5.81034 2.46586 5.88167 2.4954 5.95605 2.4954H7.82732C7.9017 2.4954 7.97303 2.46586 8.02562 2.41327C8.07821 2.36067 8.10776 2.28935 8.10776 2.21497C8.10776 2.14059 8.07821 2.06926 8.02562 2.01667C7.97303 1.96408 7.9017 1.93454 7.82732 1.93454H5.95605ZM1.56087 3.43141H12.221V20.637H1.56087V3.43141ZM1.56087 21.1971H12.221V21.849C12.2216 22.0581 12.1809 22.2652 12.1013 22.4585C12.0217 22.6518 11.9047 22.8275 11.757 22.9755C11.6094 23.1235 11.434 23.2409 11.2409 23.3209C11.0477 23.401 10.8407 23.4422 10.6317 23.4421H3.15097C2.94186 23.4423 2.73476 23.4012 2.54156 23.3211C2.34836 23.2411 2.17286 23.1237 2.02513 22.9757C1.87739 22.8277 1.76034 22.652 1.68067 22.4587C1.601 22.2653 1.56029 22.0581 1.56087 21.849V21.1971ZM6.89058 21.3843C6.70567 21.3846 6.52499 21.4397 6.37138 21.5427C6.21777 21.6456 6.09812 21.7918 6.02755 21.9627C5.95699 22.1336 5.93868 22.3216 5.97493 22.503C6.01119 22.6843 6.10038 22.8508 6.23124 22.9814C6.36209 23.1121 6.52875 23.201 6.71013 23.237C6.89151 23.273 7.07949 23.2544 7.2503 23.1835C7.42112 23.1127 7.5671 22.9928 7.6698 22.8391C7.77251 22.6853 7.82732 22.5045 7.82732 22.3196C7.8285 22.1964 7.80509 22.0742 7.75845 21.9602C7.71181 21.8462 7.64288 21.7427 7.55571 21.6556C7.46854 21.5686 7.36488 21.4998 7.25079 21.4534C7.1367 21.4069 7.01449 21.3837 6.89132 21.3851L6.89058 21.3843ZM6.89058 21.9452C6.96449 21.9452 7.03673 21.9671 7.09818 22.0082C7.15963 22.0492 7.20753 22.1076 7.23581 22.1759C7.26409 22.2441 7.27149 22.3193 7.25707 22.3918C7.24265 22.4642 7.20707 22.5308 7.15481 22.5831C7.10255 22.6353 7.03597 22.6709 6.96348 22.6853C6.891 22.6998 6.81587 22.6924 6.74759 22.6641C6.67931 22.6358 6.62095 22.5879 6.57989 22.5265C6.53883 22.465 6.51692 22.3928 6.51692 22.3189C6.5175 22.2199 6.55718 22.1251 6.62731 22.0553C6.69744 21.9854 6.79233 21.9461 6.89132 21.9459L6.89058 21.9452Z" fill="#333333" fill-opacity="0.8"/>
<path d="M7.92732 22.3201C7.92857 22.1838 7.90262 22.0486 7.851 21.9224C7.79932 21.796 7.72295 21.6813 7.62637 21.5849C7.52978 21.4884 7.41492 21.4122 7.28851 21.3608C7.21452 21.3306 7.13744 21.3093 7.05887 21.2971H12.121V21.849L12.121 21.8493C12.1216 22.0452 12.0835 22.2393 12.0088 22.4204C11.9342 22.6015 11.8246 22.7662 11.6862 22.9048C11.5479 23.0435 11.3835 23.1535 11.2026 23.2286C11.0216 23.3036 10.8276 23.3422 10.6317 23.3421H10.6317H7.05435C7.13435 23.3294 7.213 23.3073 7.28861 23.2759C7.47768 23.1975 7.63927 23.0648 7.75296 22.8946C7.86655 22.7245 7.92722 22.5246 7.92732 22.3201ZM7.92732 22.3201C7.92732 22.3203 7.92732 22.3204 7.92732 22.3206L7.82732 22.3196H7.92732C7.92732 22.3198 7.92732 22.3199 7.92732 22.3201ZM3.15097 0.899999L3.15043 0.900001C2.55458 0.903229 1.98404 1.14136 1.5627 1.5627C1.14136 1.98404 0.903229 2.55458 0.9 3.15043V3.15097L0.899999 21.849L0.900001 21.8496C0.903229 22.4454 1.14136 23.016 1.5627 23.4373C1.98404 23.8586 2.55458 24.0968 3.15043 24.1H3.15097L10.6317 24.1L10.6322 24.1C11.2281 24.0968 11.7986 23.8586 12.2199 23.4373C12.6413 23.016 12.8794 22.4454 12.8826 21.8496V21.849L12.8826 3.15097L12.8826 3.15043C12.8794 2.55458 12.6413 1.98404 12.2199 1.5627C11.7986 1.14136 11.2281 0.903229 10.6322 0.9H10.6317L3.15097 0.899999ZM1.66087 21.849V21.2971H6.72975C6.58222 21.3205 6.44085 21.3757 6.31571 21.4596C6.14567 21.5735 6.01323 21.7353 5.93512 21.9245C5.85701 22.1137 5.83675 22.3218 5.87687 22.5226C5.917 22.7233 6.01573 22.9076 6.16058 23.0522C6.30543 23.1968 6.4899 23.2953 6.69068 23.3351C6.70368 23.3377 6.71671 23.34 6.72976 23.3421H3.15097H3.15088C2.95493 23.3422 2.76086 23.3037 2.57982 23.2288C2.39879 23.1538 2.23433 23.0438 2.0959 22.9051C1.95747 22.7664 1.84778 22.6017 1.77313 22.4206C1.69847 22.2394 1.66032 22.0453 1.66087 21.8493V21.849ZM6.89151 22.0459L6.91012 22.0459C6.95737 22.0493 7.00305 22.0649 7.04263 22.0913C7.08763 22.1214 7.12271 22.1641 7.14342 22.2141C7.16413 22.2641 7.16955 22.3192 7.15899 22.3723C7.14843 22.4253 7.12237 22.4741 7.0841 22.5124C7.04582 22.5506 6.99706 22.5767 6.94398 22.5873C6.89089 22.5978 6.83586 22.5924 6.78586 22.5717C6.73585 22.551 6.69311 22.5159 6.66304 22.4709C6.63303 22.426 6.61698 22.3732 6.61692 22.3192C6.61741 22.2467 6.6465 22.1773 6.69788 22.1261C6.74931 22.0749 6.81891 22.0461 6.89151 22.0459ZM3.15114 1.66087H10.6315C10.9814 1.66214 11.3199 1.78539 11.5888 2.00938C11.8264 2.2074 11.9965 2.47319 12.0772 2.76981H1.7054C1.78615 2.47319 1.9562 2.2074 2.19386 2.00938C2.4627 1.78539 2.80123 1.66214 3.15114 1.66087ZM5.95605 1.83454C5.85515 1.83454 5.75839 1.87462 5.68704 1.94596C5.61569 2.01731 5.57561 2.11407 5.57561 2.21497C5.57561 2.31587 5.61569 2.41263 5.68704 2.48398C5.75839 2.55532 5.85515 2.5954 5.95605 2.5954H7.82732C7.92822 2.5954 8.02498 2.55532 8.09633 2.48398C8.16767 2.41263 8.20776 2.31587 8.20776 2.21497C8.20776 2.11407 8.16767 2.01731 8.09633 1.94596C8.02498 1.87462 7.92822 1.83454 7.82732 1.83454H5.95605ZM1.66087 3.53141H12.121V20.537H1.66087V3.53141Z" stroke="#333333" stroke-opacity="0.8" stroke-width="0.2"/>
</svg>
