<svg width="24" height="23" viewBox="0 0 24 23" fill="none" xmlns="http://www.w3.org/2000/svg">
<path d="M4.01904 1.03093L4.01904 1.03093C4.42635 0.861936 4.83762 0.761381 5.23366 0.732968L5.23379 0.729844L5.37362 0.725824C6.10508 0.704792 6.7797 0.936873 7.2568 1.44904L4.01904 1.03093ZM4.01904 1.03093C3.41248 1.28261 2.84611 1.66699 2.36438 2.13947C1.88263 2.61198 1.4837 3.17439 1.21263 3.78311C0.67265 4.99566 0.714577 6.28844 1.48279 7.10404M4.01904 1.03093L1.48279 7.10404M1.48279 7.10404C1.52227 7.14601 1.56962 7.17982 1.62224 7.20336C1.67492 7.22691 1.73176 7.23967 1.78948 7.24078C1.84719 7.24189 1.90448 7.23133 1.95803 7.2098C2.01151 7.1883 2.0601 7.15631 2.10112 7.11586C2.10117 7.11582 2.10121 7.11577 2.10126 7.11573L4.66826 4.59115L4.66854 4.59087L7.24257 2.07244C7.24257 2.07244 7.24258 2.07243 7.24258 2.07243C7.28381 2.0321 7.31668 1.98404 7.3395 1.9311C7.36232 1.87816 7.37469 1.82127 7.37599 1.76363C7.37729 1.70601 7.36752 1.64861 7.34713 1.59468C7.32675 1.54076 7.29612 1.49124 7.25681 1.44905L1.48279 7.10404ZM12 10.4118L12.0003 10.4118C12.2614 10.4117 12.5171 10.4806 12.743 10.6107L17.3523 6.06853C17.3526 6.06825 17.3528 6.06796 17.3531 6.06768C17.4217 5.99853 17.511 5.95452 17.6067 5.94255L17.6111 5.93967L17.6553 5.93923C17.7439 5.93834 17.8303 5.96489 17.9033 6.01495L17.8185 6.13866L17.9033 6.01496C17.9763 6.06498 18.0322 6.13601 18.0644 6.2183C18.0966 6.30056 18.1038 6.39067 18.0851 6.477C18.0665 6.56301 18.023 6.64182 17.9597 6.70296C17.9594 6.7032 17.9591 6.70345 17.9589 6.70369L13.3453 11.2511C13.4547 11.468 13.5125 11.7086 13.5134 11.9535L13.5134 11.9537C13.5144 12.3622 13.3571 12.755 13.0749 13.0457C12.7927 13.3365 12.4086 13.5014 12.0067 13.5027M12 10.4118L10.6401 11.9573C10.6407 11.6942 10.7139 11.4368 10.8512 11.2145M12 10.4118C11.7446 10.4125 11.4944 10.4793 11.2724 10.6048M12 10.4118L11.2724 10.6048M12.0067 13.5027L12.0062 13.3527L12.0067 13.5027C12.0067 13.5027 12.0067 13.5027 12.0067 13.5027ZM12.0067 13.5027C11.6049 13.504 11.2198 13.3419 10.9357 13.0531C10.6518 12.7643 10.4919 12.3727 10.4901 11.9643L10.4901 11.9637L10.4901 11.9573V11.9569C10.4907 11.7065 10.5508 11.4605 10.6647 11.2398M10.6647 11.2398L10.7449 11.3203L10.8512 11.2145M10.6647 11.2398C10.6829 11.2044 10.7026 11.1697 10.7236 11.1357L10.8512 11.2145M10.6647 11.2398L7.02512 7.58329L7.13138 7.47741M10.8512 11.2145L7.13138 7.47741M7.13138 7.47741L7.02507 7.58323M7.13138 7.47741C7.10456 7.4505 7.08319 7.41845 7.06846 7.38307C7.05374 7.3477 7.04596 7.3097 7.04556 7.27124C7.04517 7.23278 7.05217 7.19462 7.06617 7.15894C7.08016 7.12326 7.10088 7.09075 7.12714 7.06327M7.02507 7.58323L7.12714 7.06327M7.02507 7.58323C6.98438 7.54238 6.95213 7.49393 6.92998 7.44071C6.90782 7.38748 6.89616 7.33042 6.89557 7.27278C6.89498 7.21512 6.90547 7.15784 6.92653 7.10416C6.94758 7.05048 6.97884 7.00134 7.01869 6.95964L7.12714 7.06327M7.02507 7.58323L11.2724 10.6048M7.12714 7.06327L7.01869 6.95964C7.05855 6.91793 7.10623 6.88447 7.15911 6.86135C7.21201 6.83823 7.26897 6.82596 7.32671 6.82534C7.38445 6.82472 7.44166 6.83576 7.49504 6.85775C7.54841 6.87973 7.59679 6.91218 7.63751 6.95305L7.63757 6.95311L11.2724 10.6048M18.1958 0.743768C17.6328 0.808799 17.1242 1.0399 16.7429 1.44912L16.6526 1.59477C16.6322 1.64869 16.6224 1.70609 16.6237 1.76372C16.625 1.82135 16.6374 1.87825 16.6602 1.93119C16.6831 1.98414 16.7159 2.0322 16.7572 2.07252L16.7572 2.07257L16.862 1.96532L16.862 1.96532L16.7572 2.07259L16.7573 2.07265L16.7575 2.07288L16.7585 2.07379L16.7622 2.07741L16.7767 2.09163L16.8327 2.14633L17.039 2.34795L17.7231 3.0168C18.2596 3.54146 18.9031 4.17107 19.3313 4.5911C19.7596 5.01112 20.4015 5.64231 20.9364 6.16855L21.6183 6.83958L21.8239 7.04192L21.8796 7.09682L21.8941 7.11109L21.8978 7.11472L21.8988 7.11564L21.899 7.11587L21.899 7.11593L22.0043 7.00906L21.8991 7.11594C21.982 7.1976 22.0939 7.24288 22.2105 7.24063C22.327 7.23838 22.4371 7.18884 22.5169 7.10413L22.5169 7.10411C23.2851 6.28839 23.3276 4.99572 22.7876 3.78319C22.2463 2.56786 21.1922 1.5335 19.9811 1.03099C19.6426 0.890574 19.3015 0.797408 18.9686 0.753615L18.9868 0.736288L18.6266 0.725917C18.4803 0.721707 18.3364 0.727522 18.1958 0.743768ZM18.4805 1.60907C18.8312 1.5998 19.2291 1.67502 19.6519 1.85046C20.6414 2.261 21.5505 3.15258 21.9941 4.14858C22.3374 4.91946 22.3397 5.60332 22.1164 6.09724C21.6803 5.66799 20.6171 4.62157 19.9364 3.95393C19.2512 3.28191 18.1753 2.23055 17.7431 1.80835C17.9112 1.71239 18.0966 1.64447 18.3085 1.621L18.292 1.47191L18.3085 1.62099C18.3575 1.61556 18.4071 1.61179 18.4577 1.60991L18.4805 1.60907ZM5.52257 1.61933L5.52266 1.61934C5.79936 1.6322 6.04576 1.69914 6.25436 1.8101L4.08 3.93743L4.07892 3.93799L4.06269 3.95396L1.88332 6.09768C1.65998 5.60376 1.66262 4.91962 2.00604 4.14845C2.22704 3.65222 2.56466 3.17986 2.97241 2.7799C3.38019 2.37993 3.85501 2.05548 4.34809 1.85089C4.77591 1.67338 5.17351 1.60312 5.52252 1.61933C5.52254 1.61933 5.52255 1.61933 5.52257 1.61933ZM11.9999 1.70689C6.47253 1.70689 1.9916 6.30377 1.9916 11.9592C1.9916 17.6145 6.47229 22.2119 11.9999 22.2119C17.5273 22.2119 22.0083 17.6148 22.0083 11.9592C22.0083 6.30353 17.5276 1.70689 11.9999 1.70689ZM11.9999 2.59231C17.0461 2.59231 21.137 6.77886 21.137 11.9592C21.137 17.1395 17.0461 21.3265 11.9999 21.3265C6.95379 21.3265 2.86285 17.1395 2.86285 11.9592C2.86285 6.77886 6.95379 2.59231 11.9999 2.59231Z" fill="#14649C" stroke="#14649C" stroke-width="0.3"/>
</svg>
