<svg width="14" height="29" viewBox="0 0 14 29" fill="none" xmlns="http://www.w3.org/2000/svg">
<path d="M6.20087 28.5724C6.20054 28.572 6.20014 28.5718 6.1998 28.5714L0.328774 22.6719C-0.111045 22.2299 -0.109408 21.5151 0.332612 21.0751C0.774577 20.6353 1.48943 20.6369 1.92931 21.0789L5.87102 25.0398L5.87102 1.12904C5.87102 0.505473 6.3765 0 7.00007 0C7.62364 0 8.12911 0.505473 8.12911 1.12904L8.12911 25.0398L12.0708 21.079C12.5107 20.637 13.2256 20.6353 13.6675 21.0752C14.1096 21.5151 14.1111 22.23 13.6714 22.6719L7.80033 28.5714C7.8 28.5718 7.7996 28.572 7.79926 28.5724C7.35792 29.0146 6.64075 29.0132 6.20087 28.5724Z" fill="black"/>
</svg>
