<svg width="497" height="454" viewBox="0 0 497 454" fill="none" xmlns="http://www.w3.org/2000/svg">
<path d="M197.68 332.521H287.768V214.604H197.68V332.521Z" fill="#DBDBDB"/>
<path d="M209.391 332.521H299.479V214.604H209.391V332.521Z" fill="#DBDBDB"/>
<path d="M294.192 227.834H267.078V253.658H294.192V227.834Z" fill="white"/>
<path d="M294.192 260.35H267.078V286.175H294.192V260.35Z" fill="white"/>
<path d="M267.075 292.866V314.188H211.568V318.69H294.193V292.866H267.075Z" fill="white"/>
<path d="M197.68 222.183H287.768V104.267L197.68 104.267V222.183Z" fill="#DBDBDB"/>
<path d="M209.391 222.183H299.479V104.267L209.391 104.267V222.183Z" fill="#DBDBDB"/>
<path d="M294.192 117.496H267.078V143.321H294.192V117.496Z" fill="white"/>
<path d="M294.192 150.013H267.078V175.837H294.192V150.013Z" fill="white"/>
<path d="M267.075 182.529V203.851H211.568V208.353H294.193V182.529H267.075Z" fill="white"/>
<path d="M273.771 332.261C273.771 333.645 274.182 334.998 274.951 336.149C275.72 337.299 276.812 338.196 278.091 338.726C279.37 339.255 280.776 339.394 282.134 339.124C283.491 338.854 284.738 338.188 285.716 337.209C286.695 336.23 287.361 334.984 287.631 333.626C287.901 332.269 287.763 330.862 287.233 329.584C286.704 328.305 285.807 327.212 284.656 326.443C283.505 325.674 282.153 325.264 280.769 325.264C279.85 325.264 278.94 325.445 278.091 325.796C277.242 326.148 276.47 326.663 275.821 327.313C275.171 327.963 274.655 328.734 274.304 329.583C273.952 330.432 273.771 331.342 273.771 332.261Z" fill="#DBDBDB"/>
<path d="M211.719 332.261C211.719 333.645 212.129 334.999 212.898 336.15C213.666 337.301 214.759 338.198 216.038 338.728C217.317 339.258 218.724 339.396 220.082 339.126C221.439 338.857 222.686 338.19 223.665 337.211C224.644 336.233 225.311 334.986 225.581 333.628C225.851 332.271 225.713 330.863 225.183 329.585C224.653 328.306 223.756 327.213 222.605 326.444C221.454 325.674 220.101 325.264 218.717 325.264C217.798 325.264 216.888 325.445 216.039 325.796C215.19 326.148 214.418 326.663 213.769 327.313C213.119 327.963 212.603 328.734 212.251 329.583C211.9 330.432 211.719 331.342 211.719 332.261Z" fill="#DBDBDB"/>
<path d="M109.488 261.458H44.5167C43.4752 261.458 42.4764 261.871 41.74 262.608C41.0036 263.344 40.5898 264.343 40.5898 265.384C40.5898 266.426 41.0036 267.425 41.74 268.161C42.4764 268.897 43.4752 269.311 44.5167 269.311H45.6408C47.3632 288.007 49.0859 306.703 50.8091 325.4C50.9566 327.054 51.582 328.628 52.6091 329.933C53.6362 331.237 55.0205 332.214 56.5933 332.745C69.8014 337.175 84.0926 337.187 97.3079 332.778C98.9004 332.255 100.306 331.279 101.352 329.969C102.397 328.659 103.038 327.073 103.195 325.404L108.363 269.314H109.488C110.529 269.314 111.528 268.9 112.264 268.163C113.001 267.427 113.414 266.428 113.414 265.387C113.414 264.345 113.001 263.346 112.264 262.61C111.528 261.874 110.529 261.46 109.488 261.46V261.458Z" fill="#DBDBDB"/>
<path d="M105.956 199.542C128.107 191.544 142.933 210.581 142.933 210.581C142.933 210.581 140.501 164.414 111.675 171.657C92.5321 176.466 80.1451 190.937 75.8605 211.695C75.2682 204.048 74.4935 196.134 73.4843 188.171L74.2128 184.889C82.4301 172.349 109.782 151.531 106.788 122.408C106.788 122.408 76.6376 142.026 72.3353 179.797C71.1507 171.791 69.7067 163.815 67.9583 156.083C68.0033 97.0048 20.6753 66.2488 20.6753 66.2488C16.9427 102.586 48.1394 129.349 61.7014 146.586C64.9491 158.938 67.4116 171.484 69.0742 184.147C63.7874 164.415 51.0984 152.104 33.2849 150.869C9.84717 149.245 14.3805 185.507 14.3805 185.507C14.3805 185.507 23.2647 168.631 41.616 171.766C57.8386 174.542 68.9616 198.315 71.3272 203.797C72.8565 220.176 73.5127 235.738 73.7532 248.437C69.5646 237.309 57.9985 213.736 32.8076 204.452C-0.697818 192.102 3.34628 246.814 3.34628 246.814C13.0261 239.148 25.088 235.119 37.4321 235.429C56.4431 236.083 69.0126 247.225 73.8183 252.297C74.0292 268.282 73.5968 278.859 73.5814 279.229C73.5706 279.47 73.6075 279.712 73.69 279.939C73.7725 280.166 73.899 280.375 74.0622 280.553C74.2255 280.732 74.4223 280.876 74.6414 280.979C74.8605 281.081 75.0977 281.139 75.3393 281.15H75.4222C75.8963 281.149 76.352 280.966 76.6944 280.638C77.0368 280.311 77.2396 279.863 77.2607 279.39C77.3175 278.097 77.6563 269.874 77.6267 257.498C82.179 249.044 89.6966 242.572 98.7333 239.327C107.77 236.082 117.687 236.294 126.578 239.921C126.578 239.921 117.575 199.368 95.9732 215.632C84.7199 224.108 79.708 236.125 77.494 245.704C77.4632 244.203 77.4277 242.673 77.3839 241.105C80.6983 229.443 89.3776 205.526 105.956 199.542Z" fill="#DBDBDB"/>
<path d="M492.379 381.928C468.687 441.867 348.415 447.924 251.981 452.778C251.981 452.778 90.2666 460.916 16.7112 404.034C13.0296 401.191 3.01407 393.442 0.406844 380.793C0.406844 380.793 -2.1992 368.129 5.78002 353.741C23.4549 321.884 160.048 331.395 248.815 334.216C398.335 338.968 484.239 327.03 494.974 360.534C497.549 368.56 494.758 375.917 492.379 381.928Z" fill="#F0F0F0"/>
<g style="mix-blend-mode:multiply">
<g style="mix-blend-mode:multiply">
<path d="M486.042 348.938C485.512 348.569 484.958 348.212 484.383 347.863L488.21 356.533H401.254L396.586 335.88L395.475 335.865L400.146 356.533H313.137L312.914 335.448L311.831 335.438L312.054 356.534H225.042L229.754 333.554L228.658 333.514L223.938 356.537H136.971L147.75 330.904L146.586 330.884L135.799 356.537H48.9211L63.8039 333.133L62.4322 333.274L47.637 356.534H4.3566C4.11969 357.028 3.92423 357.513 3.71457 358H83.3622L66.5983 388.656H3.19336C3.44686 389.158 3.70864 389.646 3.97872 390.123H26.2722L17.1961 404.392C17.4816 404.611 17.7765 404.824 18.0656 405.041L27.5563 390.123H121.675L106.481 426.252H56.7901C58.028 426.751 59.2777 427.236 60.5322 427.718H148.737L142.222 447.382L143.312 447.531L149.874 427.719H252.209L249.297 452.888C249.71 452.874 250.069 452.861 250.389 452.848L253.297 427.719H355.658L357.374 444.913L358.449 444.78L356.745 427.722H436.091C437.391 427.243 438.675 426.754 439.943 426.255H417.016L408.848 390.126H488.351C488.637 389.644 488.902 389.15 489.175 388.66H447.9L438.23 358.002H493.967C493.731 357.502 493.476 357.014 493.205 356.537H489.396L486.042 348.938ZM162.814 388.656L172.97 357.998H260.272L256.725 388.656H162.814ZM312.408 390.123L312.788 426.252H210.75L218.156 390.123H312.408ZM257.818 388.656L261.365 357.998H348.699L351.759 388.656H257.818ZM84.5954 357.998H171.836L161.681 388.656H67.8314L84.5954 357.998ZM122.845 390.123H217.052L209.645 426.252H107.654L122.845 390.123ZM415.906 426.252H313.871L313.491 390.123H407.741L415.906 426.252ZM446.764 388.657H352.847L349.786 358H437.097L446.764 388.657Z" fill="#DBDBDB"/>
</g>
</g>
<path d="M379.475 175.531C379.475 175.531 388.853 259.815 395.799 283.8C399.74 297.412 417.882 280.867 416.203 273.712C414.525 266.558 418.238 170.148 411.87 166.082C409.264 164.423 406.367 164.443 403.468 164.503C391.833 164.743 383.208 171.933 379.475 175.531Z" fill="#FF8B6A"/>
<path d="M420.304 289.951C418.481 278.351 415.059 267.604 411.247 263.278C407.894 259.476 395.795 260.022 395.219 266.255C392.969 279.926 407.727 337.947 408.861 349.911C409.424 355.834 408.433 357.893 412.899 358.713C414.163 358.969 415.469 358.936 416.719 358.615C417.968 358.294 419.128 357.693 420.112 356.859C422.007 353.708 420.711 349.641 420.768 344.95C420.825 340.26 422.133 301.553 420.304 289.951Z" fill="#FF8B6A"/>
<path d="M424.096 369.09C423.233 379.417 418.459 387.015 413.395 387.025C405.277 387.042 406.608 375.89 407.472 365.559C408.336 355.227 411.476 349.205 416.522 349.627C421.568 350.05 424.959 358.763 424.096 369.09Z" fill="#08051A"/>
<path d="M409.005 351.798C409.457 358.668 407.793 368.288 408.024 371.023C408.52 376.878 419.232 377.14 421.866 370.075C422.708 367.815 422.778 358.186 420.789 350.699C418.8 343.213 409.005 351.798 409.005 351.798Z" fill="#FF8B6A"/>
<path d="M379.016 167.36C379.016 167.36 376.333 252.121 371.306 276.583C368.453 290.464 349.06 275.406 350.167 268.141C351.275 260.876 342.68 165.521 348.707 160.963C351.169 159.101 351.333 158.438 354.226 158.267C365.841 157.581 375.009 164.069 379.016 167.36Z" fill="#FF8B6A"/>
<path d="M347.359 284.65C348.26 272.941 350.821 261.959 354.28 257.345C357.32 253.289 369.425 252.877 370.492 259.045C373.822 272.495 363.693 331.501 363.503 343.518C363.412 349.472 364.561 351.441 360.174 352.611C358.934 352.967 357.63 353.037 356.359 352.816C355.088 352.594 353.884 352.088 352.837 351.334C350.705 348.342 351.669 344.186 351.24 339.514C350.812 334.843 346.458 296.36 347.359 284.65Z" fill="#FF8B6A"/>
<path d="M349.839 363.841C351.515 374.067 356.876 381.265 361.922 380.874C370.016 380.25 367.806 369.233 366.128 359.007C364.451 348.78 360.844 343.015 355.847 343.844C350.851 344.674 348.161 353.615 349.839 363.841Z" fill="#08051A"/>
<path d="M361.845 342.476C362.751 343.119 363.486 345.567 363.549 346.675C363.913 353.19 366.027 361.967 366.013 364.496C365.982 370.374 355.324 371.485 352.141 364.645C351.123 362.458 350.29 352.865 351.682 345.244C352.75 339.401 358.862 340.359 361.845 342.476Z" fill="#FF8B6A"/>
<path d="M309.059 77.2771C309.923 78.9746 325.798 109.519 335.26 122.32C336.51 124.011 338.366 125.151 340.439 125.502C342.512 125.852 344.64 125.385 346.376 124.199C347.263 123.594 348.021 122.819 348.606 121.919C349.191 121.019 349.593 120.011 349.787 118.955C349.98 117.899 349.963 116.815 349.735 115.766C349.508 114.717 349.075 113.723 348.461 112.842L317.528 72.8042L309.059 77.2771Z" fill="#FF8B6A"/>
<path d="M402.332 11.8077C405.946 18.3228 419.488 23.4436 423.713 29.7029C427.724 35.6458 418.65 38.4852 421.131 43.5717C423.874 49.1972 432.043 51.8815 432.474 58.9805C433.632 78.039 389.094 71.3604 389.094 71.3604C389.094 71.3604 353.209 65.0538 355.942 56.1554C356.864 53.1513 358.892 50.6981 360.58 48.1003C362.713 44.8167 362.531 42.3552 359.534 40.0808C357.386 38.4509 354.834 37.1277 356.08 33.9709C358.471 27.9106 364.449 6.44753 376.868 2.34302" fill="#08051A"/>
<path d="M362.078 58.2354C353.751 63.8608 349.175 72.7226 341.255 102.173L325.414 81.1093C325.414 81.1093 317.714 81.9894 314.17 89.0293C314.17 89.0293 333.408 124.759 338.124 126.698C342.84 128.638 354.979 134.032 368.358 82.5793" fill="#14649C"/>
<path d="M357.084 63.9318C357.74 57.1455 375.753 51.8978 390.994 53.3714C406.236 54.845 416.176 60.557 415.515 67.3493C410.934 78.8797 408.04 91.0105 406.922 103.367C405.877 115.206 406.744 124.715 407.558 133.632C408.404 142.921 409.816 152.149 411.787 161.266C401.87 167.022 390.759 170.413 379.318 171.174C367.877 171.936 356.414 170.047 345.822 165.656C350.064 155.337 353.363 144.655 355.678 133.741C360.496 110.762 360.973 87.0855 357.084 63.9318Z" fill="#14649C"/>
<path d="M408.902 145.084C413.578 162.184 425.062 208.813 424.504 254.789C424.466 257.428 423.536 259.978 421.865 262.021C420.193 264.064 417.879 265.482 415.3 266.042C401.143 269.146 372.614 273.617 347.836 266.454C345.56 265.796 343.537 264.462 342.035 262.629C340.533 260.796 339.623 258.549 339.426 256.188C337.801 236.839 335.471 184.602 352.798 145.935" fill="#14649C"/>
<path d="M376.358 85.0977C372.478 97.4171 373.494 110.738 375.79 123.443C378.085 136.149 381.624 148.666 382.712 161.532C385.72 197.117 369.856 231.814 369.451 267.524" stroke="#08051A" stroke-width="0.751" stroke-linecap="round" stroke-linejoin="round"/>
<path d="M376.867 2.35132C376.867 2.35132 364.158 7.8927 371.063 19.6128C372.549 22.1323 383.169 9.512 382.304 9.39947C381.44 9.28693 376.867 2.35132 376.867 2.35132Z" fill="#08051A"/>
<path d="M389.451 53.2461C393.301 53.6346 402.633 59.8121 376.224 82.5759C376.224 82.5759 372.516 55.8308 383.46 53.2461" fill="#FF8B6A"/>
<path d="M381.006 55.2645L389.659 57.8575L395.837 37.2461L386.172 38.0279L381.006 55.2645Z" fill="#FF8B6A"/>
<path d="M381.609 53.246L385.045 38.1191L394.855 37.6311C392.153 43.0919 387.007 50.5535 381.609 53.246Z" fill="#08051A"/>
<path d="M395.675 38.2683C395.675 38.2683 394.538 39.4765 392.689 41.1231C387.576 45.6694 378.211 49.742 371.09 44.7336C361.39 37.9129 367.881 11.1939 373.523 7.36302C386.586 -1.5058 407.231 12.7646 395.675 38.2683Z" fill="#FF8B6A"/>
<path d="M401.928 34.1805C400.326 34.6958 395.813 36.5935 394.168 35.1755C393.704 34.7775 393.883 34.5217 393.893 33.9744C393.928 32.9741 393.838 31.9732 393.625 30.9952C393.073 28.7553 391.825 26.748 390.061 25.2619C387.309 22.9023 383.736 21.8445 380.922 19.576C378.847 17.851 377.246 15.626 376.269 13.1107C375.007 10.3554 374.849 7.22126 375.828 4.3532C378.434 -2.10622 386.179 -0.0296855 391.133 2.0587C392.938 2.81919 401.589 6.74365 404.368 16.6407C405.148 19.5797 405.334 22.6447 404.915 25.6565C404.496 28.6682 403.48 31.5661 401.928 34.1805Z" fill="#08051A"/>
<path d="M375.548 24.1165C375.548 24.1165 375.218 27.8336 374.418 27.8881C373.618 27.9426 372.191 26.8291 371.993 27.162C371.795 27.4948 372.524 28.9838 373.727 29.5406" stroke="#08051A" stroke-width="0.751" stroke-linecap="round" stroke-linejoin="round"/>
<path d="M392.894 34.8603C391.284 37.0316 391.316 39.7845 392.966 41.0081C394.616 42.2318 397.26 41.4642 398.87 39.2929C400.48 37.1216 400.449 34.3687 398.799 33.145C397.149 31.9214 394.505 32.6913 392.894 34.8603Z" fill="#FF8B6A"/>
<path d="M398.063 35.4526C396.117 34.7644 394.237 38.0172 394.958 39.4078C394.958 39.4078 395.414 37.7826 396.247 38.4235C397.08 39.0643 395.87 39.6815 395.87 39.6815" stroke="#08051A" stroke-width="0.751" stroke-linecap="round" stroke-linejoin="round"/>
<path d="M409.123 58.3148C401.186 54.632 403.005 71.9503 404.128 81.5618C404.079 83.1184 411.1 121.644 412.602 131.55C413.313 136.232 421.986 140.516 426.679 139.376C428.644 138.839 430.345 137.605 431.465 135.904C432.585 134.203 433.046 132.153 432.762 130.136C431.439 119.398 436.219 70.883 409.123 58.3148Z" fill="#14649C"/>
<path d="M413.953 68.3171C411.089 69.7961 408.76 72.136 407.295 75.0075C404.003 81.5049 406.161 90.8108 407.09 97.7512C407.707 102.368 408.413 106.973 409.209 111.566" stroke="#08051A" stroke-width="0.751" stroke-linecap="round" stroke-linejoin="round"/>
<path d="M383.541 23.7159C383.159 24.0962 384.2 25.0261 385.413 26.2438C386.626 27.4615 387.223 28.8332 387.606 28.4518C387.988 28.0704 387.642 26.4475 386.431 25.231C385.219 24.0144 383.924 23.3345 383.541 23.7159Z" fill="#08051A"/>
<path d="M372.629 19.653C372.659 20.1564 371.356 20.1599 369.753 20.2571C368.15 20.3542 366.882 20.9394 366.852 20.4359C366.822 19.9325 368.07 19.0145 369.673 18.9173C371.275 18.8202 372.598 19.1507 372.629 19.653Z" fill="#08051A"/>
<path d="M383.806 29.602C383.785 29.3381 383.701 29.083 383.561 28.8586C383.42 28.6343 383.228 28.4473 382.999 28.3139C382.77 28.1804 382.513 28.1044 382.248 28.0923C381.984 28.0802 381.72 28.1324 381.48 28.2445" stroke="#08051A" stroke-width="0.751" stroke-linecap="round" stroke-linejoin="round"/>
<path d="M371.319 25.276C371.108 24.9565 370.838 24.6809 370.523 24.4646C370.363 24.3589 370.177 24.3011 369.986 24.298C369.794 24.2948 369.606 24.3465 369.443 24.4468" stroke="#08051A" stroke-width="0.751" stroke-linecap="round" stroke-linejoin="round"/>
<path d="M395.93 32.5542C393.892 33.4236 393.313 37.9048 393.14 39.4578C392.967 41.0108 391.126 39.3002 392.27 34.7669C393.415 30.2336 393.1 28.163 390.685 25.8412C388.271 23.5195 399.439 23.1582 399.439 23.1582" fill="#08051A"/>
<path d="M341.31 113.173L372.902 119.792L383.651 68.494L352.059 61.8745L341.31 113.173Z" fill="white"/>
<path d="M376.225 111.119C377.734 112.282 405.167 133.075 419.203 140.585C421.057 141.577 423.223 141.812 425.246 141.24C427.269 140.668 428.992 139.335 430.052 137.519C430.594 136.592 430.946 135.567 431.089 134.503C431.232 133.438 431.163 132.357 430.885 131.319C430.608 130.282 430.128 129.31 429.472 128.46C428.817 127.609 427.999 126.897 427.067 126.364L381.963 103.446L376.225 111.119Z" fill="#FF8B6A"/>
<path d="M432.383 118.358C434.848 138.338 430.32 141.201 424.521 143.234C418.723 145.266 383.824 120.268 383.824 120.268C383.824 120.268 389.12 107.386 392.648 106.429L426.743 120.133" fill="#14649C"/>
<path d="M379.534 108.471C379.894 108.073 380.108 107.563 380.14 107.027C380.344 105.287 380.369 103.53 380.215 101.784C380.39 100.336 380.434 98.8746 380.348 97.4181C380.181 96.5238 379.163 95.0975 378.074 95.6531C377.14 96.1269 377.3 97.7296 376.36 98.1987C375.65 98.5541 374.839 98.0199 374.254 97.488C372.999 96.3506 371.862 95.0894 370.86 93.7234C370.082 92.6573 369.381 90.9172 368.212 90.2479C367.018 89.568 366.273 90.6483 366.448 91.7204C366.389 91.7528 366.322 91.7689 366.255 91.767C366.187 91.7651 366.121 91.7454 366.064 91.7097C365.93 91.5933 365.811 91.4613 365.709 91.3164C364.998 90.5465 363.995 91.3034 363.849 92.1266C363.785 92.482 364.062 92.8789 363.982 93.2259C363.819 93.9177 363.227 93.8751 362.852 94.388C362.748 94.5782 362.697 94.7931 362.706 95.0097C362.715 95.2263 362.782 95.4364 362.901 95.6176C363.143 95.9765 363.338 96.3646 363.482 96.7725C363.661 97.5567 363.181 98.2319 362.991 98.9568C362.801 99.7711 362.918 100.627 363.319 101.36C364.285 103.569 365.685 105.561 367.436 107.218C374.929 114.537 376.16 111.898 379.534 108.471Z" fill="#454658"/>
<path d="M366.15 91.6658C367.139 94.4392 368.636 97.0041 370.564 99.2292" stroke="#08051A" stroke-width="0.751" stroke-linecap="round" stroke-linejoin="round"/>
<path d="M363.383 93.1409C363.912 96.0899 365.327 98.8078 367.439 100.933" stroke="#08051A" stroke-width="0.751" stroke-linecap="round" stroke-linejoin="round"/>
<path d="M362.895 97.687C363.405 99.824 364.481 101.784 366.01 103.362" stroke="#08051A" stroke-width="0.751" stroke-linecap="round" stroke-linejoin="round"/>
<path d="M379.074 100.453C379.415 100.537 383.118 102.279 385.353 103.336C385.861 103.573 386.276 103.972 386.533 104.47C386.79 104.968 386.875 105.538 386.774 106.089C386.095 109.685 384.251 112.956 381.528 115.4C381.091 115.794 380.533 116.026 379.946 116.058C379.359 116.09 378.779 115.919 378.302 115.575L370.787 110.153" fill="#454658"/>
<path d="M318.3 66.5227C318.059 66.917 317.782 67.2879 317.471 67.6302C316.878 67.9805 316.2 68.1623 315.511 68.1562C315.117 68.1795 314.723 68.1135 314.358 67.9631C313.993 67.8128 313.667 67.5819 313.405 67.2879C312.974 66.6154 312.724 65.8436 312.678 65.0467C312.519 64.0743 312.282 63.1164 311.968 62.1824C311.802 61.3359 311.428 60.5443 310.878 59.8796C309.845 59.0504 308.079 58.8656 306.84 58.483C305.808 58.1644 304.352 57.9369 303.896 59.2234C303.729 59.8767 303.719 60.5605 303.869 61.2182C304.05 61.8904 303.983 62.6054 303.679 63.2319C303.324 63.6797 302.681 63.4878 302.579 64.2838C302.567 64.8425 302.712 65.3933 302.998 65.8735C303.284 66.3553 303.405 66.9172 303.342 67.4739C303.208 67.8434 303.053 68.2046 302.876 68.5554C302.782 69.066 302.799 69.591 302.928 70.0941C303.057 70.5971 303.294 71.066 303.622 71.4682C305.07 73.8089 307.058 78.2759 310.223 78.4417C312.395 78.5602 314.294 77.0048 315.7 75.3441C316.91 73.9167 318.598 72.5011 319.666 71.0335C320.424 69.9922 320.409 68.4357 321.532 67.5982C321.738 67.4833 321.907 67.3114 322.017 67.1031C322.049 66.9721 322.048 66.8355 322.015 66.7048C321.983 66.5741 321.919 66.4532 321.83 66.3521C320.829 64.9792 319.249 65.4056 318.3 66.5227Z" fill="#454658"/>
<path d="M313.511 55.9088C312.947 55.8745 312.381 55.8908 311.821 55.9573H311.789C311.495 55.9976 311 56.0414 310.807 56.3127C311.732 57.3707 312.734 58.3582 313.806 59.267L313.913 59.4482C314.536 59.3722 315.136 59.1677 315.676 58.8477C315.995 58.6738 316.253 58.4074 316.417 58.0836L316.423 58.0706C316.518 57.8292 316.552 57.5675 316.519 57.3099C316.487 57.0523 316.389 56.807 316.237 56.597C315.725 55.936 314.261 55.9455 313.511 55.9088Z" fill="#454658"/>
<path d="M294.664 44.2349L294.952 43.9459C294.861 43.8914 285.397 34.5167 282.406 31.5281L282.58 32.2459L294.664 44.2349Z" fill="#BFC9E2"/>
<path d="M312.232 62.6208C312.232 62.6208 316.637 58.3457 316.368 57.7842C316.099 57.2227 314.064 59.1595 314.064 59.1595C314.064 59.1595 301.531 46.532 301.034 46.1861C300.536 45.8403 297.314 46.0795 297.314 46.0795L295.956 44.7256L295.352 45.3333L296.71 46.6872C296.71 46.6872 296.484 49.9128 296.829 50.4056C297.173 50.8983 309.859 63.3789 309.859 63.3789C309.859 63.3789 307.929 65.4223 308.492 65.6888C309.055 65.9553 313.312 61.5322 313.312 61.5322" fill="#BFC9E2"/>
<path d="M296.881 46.2488C296.881 46.2488 295.599 48.2519 295.292 47.8444C294.986 47.437 295.443 46.7191 295.529 46.4881C295.752 45.8556 293.735 44.4092 294.282 43.6558C294.829 42.9025 296.26 45.0394 296.871 44.7326C297.194 44.5703 298.048 44.3618 298.151 44.7693C298.254 45.1768 296.881 46.2488 296.881 46.2488Z" fill="#92D6AA"/>
<path d="M311.635 61.8222C311.635 61.8222 317.691 66.6066 317.558 67.0793C317.424 67.5519 315.436 69.85 315.973 70.2314C316.509 70.6128 322.307 64.7907 321.777 64.4093C321.248 64.0278 318.46 66.4526 318.402 66.237C318.344 66.0215 313.072 60.3865 313.072 60.3865L311.635 61.8222Z" fill="#BFC9E2"/>
<path d="M305.193 58.7742C305.193 58.7742 312.496 59.5204 312.496 60.9561C312.496 61.8967 310.009 64.1189 307.975 63.5622" fill="#454658"/>
<path d="M318.562 71.1082C318.562 71.1082 322.661 75.029 322.462 75.6912C322.263 76.3534 311.508 83.6728 310.815 83.6574C310.122 83.642 305.867 73.7663 305.867 73.7663" fill="#454658"/>
<path d="M419.916 117.395L392.65 106.435C392.65 106.435 385.213 114.383 383.826 120.275C383.826 120.275 398.101 130.827 407.806 136.103" stroke="#08051A" stroke-width="0.751" stroke-linecap="round" stroke-linejoin="round"/>
<path d="M310.506 63.8052C308.793 62.6908 306.803 62.0755 304.76 62.0283" stroke="#08051A" stroke-width="0.751" stroke-linecap="round" stroke-linejoin="round"/>
<path d="M374.912 26.8833L382.695 33.659C383.041 33.9612 383.307 34.3454 383.468 34.7765C383.628 35.2077 383.679 35.6721 383.614 36.1276L382.429 44.3769C382.362 44.9406 382.113 45.4669 381.718 45.8754C380.771 46.7994 378.498 47.901 373.113 47.0339C367.155 46.0756 365.768 36.265 365.479 33.3664C365.422 32.8188 365.536 32.2668 365.807 31.7874C367.224 29.3108 369.453 27.3994 372.116 26.3763C372.585 26.2015 373.092 26.1563 373.584 26.2455C374.076 26.3348 374.535 26.5551 374.912 26.8833Z" fill="white"/>
<path d="M382.363 35.3625C382.702 35.2594 397.052 32.5835 397.052 32.5835" stroke="white" stroke-width="0.751" stroke-linecap="round" stroke-linejoin="round"/>
<path d="M380.689 43.7952C380.689 43.7952 385.072 47.504 392.689 41.1228" stroke="white" stroke-width="0.751" stroke-linecap="round" stroke-linejoin="round"/>
<path d="M402.332 11.8074C404.033 15.6134 363.486 15.8859 367.211 10.04C367.211 10.04 365.417 10.5305 366.111 12.9943C366.805 15.4582 377.956 17.1403 385.608 16.8667C393.259 16.593 402.376 16.644 403.788 14.8885C405.2 13.1329 402.332 11.8074 402.332 11.8074Z" fill="white"/>
<path opacity="0.3" d="M391.679 15.7615C394.164 15.5808 396.633 15.2137 399.064 14.6634C399.195 14.6693 398.744 18.8023 398.708 19.0972C398.446 21.3479 398.388 23.0383 396.011 24.0321C394.324 24.6479 392.855 25.7471 391.789 27.1925C389.63 30.2428 386.695 52.6843 386.695 52.6843C386.695 52.6843 363.318 50.7736 362.53 49.9599C361.743 49.1461 366.121 13.0015 366.121 13.0015C374.601 14.9406 383.099 16.3976 391.679 15.7615Z" fill="white"/>
<path opacity="0.3" d="M380.784 33.4459C375.475 27.0787 370.557 20.3954 366.057 13.4327L366.11 12.9944C369.148 13.6909 372.188 14.3199 375.231 14.8174C378.857 19.5415 382.555 24.211 386.548 28.6283C387.7 29.9017 388.901 31.1301 390.102 32.3573C389.479 35.0604 388.868 38.4175 388.337 41.6217C385.708 39.0031 383.191 36.2778 380.784 33.4459Z" fill="white"/>
<path opacity="0.3" d="M369.843 34.3649C368.081 31.7588 366.309 29.1556 364.529 26.5551C364.676 25.252 364.821 23.9786 364.959 22.7739C368.865 28.4462 373.075 33.9032 377.57 39.1209C380.594 42.5993 383.808 45.9085 387.196 49.0333C386.88 51.2271 386.689 52.6806 386.689 52.6806C386.689 52.6806 384.686 52.5159 381.852 52.266C377.385 46.6784 373.797 40.2154 369.843 34.3649Z" fill="white"/>
<path opacity="0.3" d="M368.889 50.9986C366.735 50.8743 364.601 50.5249 362.52 49.9562C362.283 49.7122 362.509 46.3279 362.938 41.7104C364.774 44.8969 366.776 47.9993 368.889 50.9986Z" fill="white"/>
<path d="M174.266 156.921L235.648 156.329C237.675 156.061 239.542 155.086 240.92 153.574C242.297 152.063 243.095 150.113 243.173 148.07C243.252 146.026 242.605 144.021 241.347 142.409C240.09 140.797 238.302 139.681 236.301 139.259H236.31H236.288C236.078 139.215 235.866 139.176 235.65 139.149C235.458 139.123 235.261 139.123 235.066 139.11L175.747 131.132C164.776 129.71 160.627 140.03 161.389 145.802C161.799 148.911 163.337 151.762 165.711 153.812C168.085 155.862 171.13 156.969 174.266 156.921Z" fill="#E87578"/>
<path d="M167.73 127.868C167.73 127.868 201.658 135.668 202.242 134.003C202.826 132.339 204.936 130.386 205.876 131.949C206.815 133.513 207.988 133.747 208.457 133.396C208.926 133.044 212.447 130.463 213.619 132.692C214.792 134.921 216.756 133.91 216.838 136.659C216.883 138.148 208.016 130.999 207.243 147.652C206.879 155.527 210.652 156.495 212.236 156.922C213.838 157.356 183.107 158.74 183.107 158.74" fill="#BFC9E2"/>
<path d="M219.747 90.0763L219.714 90.0881C219.17 88.848 218.176 87.8602 216.933 87.3238C215.69 86.7874 214.289 86.7422 213.014 87.1974C211.738 87.6526 210.683 88.5744 210.06 89.7768C209.438 90.9793 209.294 92.3731 209.658 93.6773L209.682 93.7567L209.693 93.7899L226.154 149.171C226.195 149.32 226.239 149.468 226.287 149.616L226.345 149.813H226.355C226.739 150.897 227.336 151.893 228.11 152.744C228.884 153.595 229.82 154.283 230.863 154.769C231.906 155.254 233.035 155.526 234.184 155.57C235.334 155.614 236.48 155.429 237.557 155.025C238.634 154.621 239.62 154.006 240.457 153.217C241.294 152.428 241.965 151.48 242.431 150.428C242.897 149.377 243.15 148.243 243.173 147.093C243.196 145.943 242.99 144.799 242.567 143.73L242.538 143.664L242.507 143.59L219.747 90.0763Z" fill="#E87578"/>
<path d="M128.325 289.051C128.325 289.051 111.956 379.659 117.118 383.474C122.28 387.288 138.951 291.397 138.951 291.397L176.362 293.466C176.362 293.466 186.985 379.84 191.711 382.155C196.438 384.47 186.047 291.588 186.047 291.588C186.047 291.588 129.388 285.55 128.325 289.051Z" fill="#08051A"/>
<path d="M148.629 286.268C148.629 286.268 141.141 373.295 146.304 377.109C151.468 380.923 159.255 288.615 159.255 288.615L199.042 287.522C199.042 287.522 216.17 373.476 220.898 375.792C225.625 378.108 208.727 285.647 208.727 285.647C208.727 285.647 149.686 282.768 148.629 286.268Z" fill="#08051A"/>
<path d="M99.778 154.207C66.384 161.005 103.639 284.398 126.075 294.978C144.681 303.744 207.134 305.305 218.624 283.898C234.526 254.269 144.204 276.621 138.479 266.673C132.754 256.725 99.778 154.207 99.778 154.207Z" fill="#08051A"/>
<path d="M100.198 155.548C104.552 154.116 145.124 266.524 145.124 266.524C145.124 266.524 153.215 266.682 169.669 266.702C191.87 266.729 215.961 271.215 215.961 274.796C215.961 279.267 195.231 282.891 169.669 282.891C146.445 282.891 130.231 283.912 128.148 280.013C119.37 271.804 109.954 240.967 99.8879 210.36C86.7357 170.374 91.9881 158.248 100.198 155.548Z" fill="#FBA864"/>
<path d="M99.7792 154.207C114.733 149.387 147.827 265.173 147.827 265.173C147.827 265.173 155.918 265.33 172.373 265.35C194.574 265.378 218.664 269.863 218.664 273.444C218.664 277.915 197.935 281.54 172.373 281.54C149.148 281.54 132.934 282.561 130.853 278.662C122.074 270.453 112.658 239.616 102.591 209.01C89.4392 169.017 91.5524 156.859 99.7792 154.207Z" fill="#FFD392"/>
<path d="M146.756 237.441C146.756 237.441 235.625 236.857 250.488 244.233C265.351 251.609 256.694 270.124 248.095 269.813C242.818 269.622 204.663 275.542 175.972 280.146C167.327 281.533 158.484 279.471 151.344 274.403C144.205 269.336 139.34 261.668 137.797 253.05L146.756 237.441Z" fill="#323444"/>
<path d="M272.594 356.173C273.734 357.325 286.114 348.403 287.348 347.788C286.826 347.977 284.582 348.018 280.478 337.795C279.94 336.456 279.304 334.551 278.6 332.233L264.848 340.317C267.695 345.991 271.511 355.081 272.594 356.173Z" fill="#E87578"/>
<path d="M244.068 245.775C236.227 247.05 227.632 256.335 229.602 264.828C229.602 264.828 260.301 335.793 265.995 348.883C266.245 349.465 266.7 349.935 267.273 350.204C267.846 350.473 268.498 350.522 269.105 350.343C274.192 348.836 279.009 346.535 283.377 343.523C283.827 343.214 284.167 342.77 284.349 342.256C284.532 341.742 284.548 341.184 284.395 340.66C279.813 324.841 272.353 300.714 268.144 285.159C263.477 267.907 259.615 253.319 259.615 253.319C257.693 245.775 251.114 244.631 244.068 245.775Z" fill="#323444"/>
<path d="M298.06 344.696C298.06 344.696 293.216 344.753 290.411 343.408C287.606 342.064 281.856 338.015 281.284 338.271C279.644 339.765 278.243 341.501 277.13 343.42C277.004 344.198 289.962 347.512 289.693 347.931C289.424 348.35 289.853 354.591 291.641 354.459C293.428 354.328 298.647 350.133 298.647 350.133L298.684 345.849L298.06 344.696Z" fill="#08051A"/>
<path d="M313.511 343.651C313.511 343.651 312.005 341.678 310.289 341.842C308.574 342.007 302.17 344.82 301.655 344.88C300.144 344.769 298.627 344.769 297.116 344.88C296.394 345.162 293.726 352.239 292.405 352.682C291.084 353.125 292.997 347.766 292.168 347.558C291.339 347.349 283.304 345.529 282.794 345.094C282.334 344.7 278.271 351.634 271.857 354.431C271.31 354.659 270.872 355.089 270.633 355.631C270.394 356.174 270.373 356.787 270.574 357.345L273.757 365.957L275.155 368.534L278.412 367.682L286.155 362.902L297.828 358.711L303.75 356.428L311.25 350.287L314.03 343.914L313.511 343.651Z" fill="#454658"/>
<path d="M303.857 345.066C301.52 348.962 300.616 353.551 301.301 358.042" stroke="#08051A" stroke-width="0.897" stroke-linecap="round" stroke-linejoin="round"/>
<path d="M314.985 344.764C314.964 344.621 313.824 342.823 313.202 342.886C312.58 342.949 313.544 345.435 313.252 345.703C312.959 345.971 309.282 351.899 299.803 356.707C290.324 361.516 287.602 359.927 283.094 362.098C278.585 364.27 275.116 368.062 273.756 365.955C273.858 366.468 274.626 370.059 277.505 371.195C279.38 371.935 281.193 371.255 282.794 370.627C286.897 369.017 287.986 367.192 291.043 364.559C292.2 363.563 294.797 364.119 299.085 362.345C303.373 360.57 316.063 352 314.985 344.764Z" fill="white"/>
<path d="M278.834 366.049C279.026 363.087 280.152 358.917 282.781 357.175C283.557 356.716 284.458 356.512 285.356 356.591C286.254 356.67 287.105 357.028 287.789 357.616C288.952 358.606 289.938 359.785 290.707 361.104" stroke="#08051A" stroke-width="0.897" stroke-linecap="round" stroke-linejoin="round"/>
<path d="M297.853 345.404C297.935 345.353 297.995 345.274 298.023 345.181C298.051 345.089 298.045 344.989 298.006 344.901C297.966 344.813 297.897 344.742 297.809 344.701C297.722 344.66 297.622 344.652 297.529 344.678C295.212 345.355 293.086 346.564 291.319 348.209C291.277 348.245 291.243 348.288 291.219 348.336C291.194 348.385 291.18 348.438 291.177 348.493C291.173 348.547 291.181 348.601 291.199 348.653C291.218 348.704 291.247 348.751 291.284 348.791C291.321 348.831 291.366 348.862 291.416 348.884C291.466 348.906 291.519 348.918 291.574 348.918C291.628 348.919 291.682 348.908 291.733 348.887C291.783 348.866 291.828 348.835 291.866 348.796C293.542 347.237 295.559 346.093 297.756 345.453C297.79 345.441 297.823 345.425 297.853 345.404Z" fill="white"/>
<path d="M291.998 348.285C292.066 348.244 292.12 348.183 292.153 348.111C292.326 347.727 292.491 347.307 292.658 346.878C292.969 345.953 293.399 345.073 293.937 344.26C293.972 344.218 293.997 344.17 294.013 344.118C294.028 344.066 294.033 344.012 294.026 343.958C294.02 343.904 294.003 343.852 293.976 343.805C293.949 343.758 293.913 343.717 293.87 343.684C293.827 343.652 293.777 343.628 293.725 343.615C293.672 343.602 293.618 343.599 293.564 343.608C293.511 343.616 293.46 343.636 293.414 343.664C293.368 343.693 293.328 343.731 293.297 343.775C292.711 344.646 292.245 345.591 291.91 346.585C291.748 347.002 291.589 347.414 291.421 347.779C291.385 347.858 291.376 347.945 291.394 348.03C291.412 348.114 291.456 348.19 291.521 348.247C291.586 348.304 291.667 348.338 291.753 348.345C291.839 348.352 291.925 348.331 291.998 348.285Z" fill="white"/>
<path d="M297.995 344.942C298.071 344.896 298.13 344.825 298.162 344.74C298.193 344.656 298.195 344.564 298.168 344.478C298.141 344.393 298.085 344.319 298.011 344.268C297.936 344.218 297.847 344.194 297.758 344.201C295.464 344.329 289.956 345.179 287.588 347.034C287.504 347.1 287.45 347.196 287.437 347.301C287.424 347.407 287.453 347.513 287.518 347.597C287.584 347.681 287.68 347.735 287.785 347.748C287.891 347.761 287.997 347.732 288.081 347.667C290.095 346.106 295.07 345.153 297.803 345.002C297.871 344.999 297.937 344.978 297.995 344.942Z" fill="white"/>
<path d="M287.435 347.28C287.509 347.234 287.566 347.166 287.597 347.085C288.173 345.698 288.915 344.385 289.808 343.176C289.868 343.092 289.892 342.987 289.877 342.885C289.861 342.782 289.807 342.689 289.725 342.626C289.642 342.563 289.539 342.534 289.436 342.545C289.333 342.557 289.238 342.608 289.172 342.687C288.235 343.957 287.455 345.336 286.85 346.793C286.811 346.892 286.813 347.002 286.856 347.1C286.899 347.197 286.978 347.274 287.077 347.313C287.135 347.336 287.198 347.345 287.26 347.339C287.322 347.333 287.382 347.313 287.435 347.28Z" fill="white"/>
<path d="M292.216 344.031C292.291 343.985 292.349 343.915 292.381 343.833C292.412 343.75 292.415 343.659 292.39 343.574C292.364 343.49 292.311 343.416 292.239 343.364C292.167 343.313 292.08 343.287 291.992 343.29C289.271 343.491 286.648 344.388 284.374 345.896C284.288 345.959 284.23 346.053 284.214 346.159C284.197 346.264 284.223 346.371 284.286 346.457C284.349 346.544 284.444 346.601 284.549 346.618C284.654 346.634 284.762 346.608 284.848 346.545C286.989 345.126 289.459 344.28 292.021 344.09C292.09 344.087 292.157 344.067 292.216 344.031Z" fill="white"/>
<path d="M283.007 345.856C283.062 345.822 283.107 345.777 283.14 345.722C283.736 344.832 284.516 344.079 285.427 343.514C286.337 342.949 287.358 342.585 288.42 342.445C288.473 342.441 288.524 342.426 288.571 342.403C288.618 342.379 288.659 342.346 288.693 342.306C288.727 342.266 288.753 342.219 288.769 342.169C288.786 342.119 288.792 342.066 288.788 342.014C288.783 341.962 288.769 341.911 288.745 341.864C288.721 341.817 288.688 341.775 288.648 341.741C288.608 341.707 288.562 341.681 288.512 341.665C288.462 341.649 288.409 341.643 288.356 341.647C287.166 341.794 286.022 342.197 285.003 342.829C283.983 343.462 283.113 344.307 282.453 345.308C282.406 345.385 282.386 345.476 282.398 345.565C282.409 345.655 282.45 345.738 282.514 345.801C282.578 345.864 282.661 345.904 282.751 345.914C282.84 345.924 282.931 345.903 283.007 345.856Z" fill="white"/>
<path d="M284.521 346.469C284.605 346.417 284.667 346.335 284.695 346.239L284.906 345.488C285.245 343.986 285.77 342.533 286.47 341.161C286.523 341.073 286.54 340.968 286.518 340.868C286.496 340.767 286.436 340.679 286.351 340.622C286.266 340.564 286.162 340.542 286.06 340.558C285.959 340.575 285.868 340.63 285.806 340.712C285.049 342.153 284.487 343.687 284.132 345.275L283.925 346.017C283.903 346.094 283.906 346.176 283.931 346.252C283.957 346.328 284.004 346.395 284.068 346.443C284.132 346.492 284.208 346.52 284.289 346.525C284.369 346.53 284.448 346.51 284.517 346.469H284.521Z" fill="white"/>
<path d="M146.756 237.441C146.756 237.441 237.507 246.325 251.353 255.47C265.2 264.615 254.332 281.927 245.838 280.563C240.626 279.724 202.03 280.918 172.987 281.96C164.239 282.274 155.716 279.141 149.254 273.235C142.792 267.329 138.906 259.123 138.434 250.381L146.756 237.441Z" fill="#454658"/>
<path d="M204.213 359.658C204.41 361.266 219.661 361.796 221.012 362.066C220.483 361.897 218.686 360.555 221.703 349.959C222.097 348.572 222.762 346.678 223.626 344.414L207.803 342.379C206.578 348.609 204.026 358.128 204.213 359.658Z" fill="#E87578"/>
<path d="M249.288 254.921C242.311 251.131 229.83 253.201 226.189 261.12C226.189 261.12 206.988 336.019 203.47 349.855C203.311 350.467 203.382 351.117 203.67 351.681C203.958 352.244 204.443 352.682 205.033 352.912C209.977 354.839 215.195 355.97 220.493 356.264C221.037 356.295 221.578 356.153 222.037 355.858C222.496 355.564 222.851 355.132 223.05 354.625C229.122 339.308 238 315.673 244.202 300.799C251.081 284.304 256.967 270.411 256.967 270.411C260.058 263.268 255.559 258.333 249.288 254.921Z" fill="#454658"/>
<path d="M231.375 366.183C231.375 366.183 227.512 363.26 226.118 360.479C224.723 357.698 222.66 350.977 222.05 350.828C219.839 351.004 217.668 351.518 215.613 352.353C215.037 352.892 223.25 363.449 222.781 363.615C222.312 363.781 218.828 368.976 220.322 369.967C221.815 370.959 228.509 370.84 228.509 370.84L231.163 367.476L231.375 366.183Z" fill="#08051A"/>
<path d="M244.227 374.822C244.227 374.822 244.245 372.334 242.788 371.42C241.331 370.505 234.546 368.799 234.103 368.532C232.977 367.518 231.778 366.588 230.516 365.75C229.772 365.53 223.328 369.491 222.013 369.032C220.698 368.572 225.488 365.508 224.965 364.838C224.441 364.169 219.202 357.803 219.066 357.148C218.947 356.556 211.485 359.547 204.702 357.828C204.129 357.674 203.52 357.745 202.999 358.028C202.478 358.31 202.085 358.783 201.903 359.347L199.144 368.103L198.67 370.997L201.766 372.319L210.815 373.283L222.609 377.12L228.692 378.946L238.381 378.685L244.483 375.351L244.227 374.822Z" fill="#454658"/>
<path d="M235.732 370.03C231.498 371.678 227.971 374.751 225.762 378.721" stroke="#08051A" stroke-width="0.897" stroke-linecap="round" stroke-linejoin="round"/>
<path d="M244.715 376.607C244.784 376.481 244.986 374.362 244.455 374.031C243.924 373.699 243.164 376.255 242.769 376.281C242.375 376.307 235.835 378.749 225.398 376.743C214.961 374.738 213.783 371.816 208.889 370.768C203.994 369.721 198.929 370.595 199.144 368.097C198.907 368.565 197.319 371.875 198.898 374.535C199.927 376.269 201.776 376.842 203.427 377.326C207.657 378.568 209.633 377.794 213.665 377.583C215.188 377.503 216.901 379.535 221.377 380.759C225.854 381.983 241.136 382.986 244.715 376.607Z" fill="white"/>
<path d="M203.1 371.288C205.064 369.067 208.51 366.458 211.655 366.691C212.549 366.803 213.386 367.193 214.048 367.806C214.71 368.419 215.163 369.224 215.343 370.107C215.656 371.602 215.714 373.139 215.514 374.652" stroke="#08051A" stroke-width="0.897" stroke-linecap="round" stroke-linejoin="round"/>
<path d="M230.78 366.62C230.876 366.629 230.973 366.604 231.052 366.548C231.131 366.492 231.187 366.41 231.21 366.316C231.233 366.222 231.221 366.123 231.177 366.037C231.133 365.951 231.059 365.883 230.969 365.847C228.723 364.964 226.301 364.617 223.897 364.835C223.845 364.839 223.794 364.855 223.747 364.879C223.701 364.904 223.66 364.937 223.626 364.977C223.592 365.018 223.567 365.065 223.551 365.115C223.536 365.165 223.53 365.218 223.535 365.27C223.54 365.323 223.555 365.374 223.579 365.42C223.604 365.467 223.637 365.508 223.678 365.542C223.718 365.576 223.765 365.601 223.815 365.617C223.866 365.632 223.918 365.638 223.971 365.633C226.25 365.426 228.545 365.755 230.674 366.595C230.708 366.608 230.744 366.616 230.78 366.62Z" fill="white"/>
<path d="M224.388 365.311C224.467 365.32 224.547 365.305 224.617 365.267C224.989 365.07 225.376 364.838 225.772 364.601C226.584 364.061 227.462 363.629 228.386 363.316C228.439 363.304 228.489 363.282 228.534 363.251C228.578 363.219 228.615 363.179 228.643 363.132C228.671 363.086 228.69 363.034 228.698 362.981C228.705 362.927 228.702 362.872 228.688 362.82C228.674 362.767 228.649 362.718 228.615 362.675C228.582 362.633 228.54 362.597 228.492 362.571C228.445 362.545 228.392 362.529 228.338 362.524C228.284 362.519 228.229 362.525 228.178 362.541C227.181 362.87 226.233 363.332 225.36 363.913C224.977 364.143 224.603 364.367 224.241 364.558C224.166 364.598 224.105 364.662 224.068 364.739C224.031 364.817 224.02 364.904 224.037 364.988C224.053 365.073 224.096 365.15 224.159 365.208C224.223 365.266 224.303 365.302 224.388 365.311Z" fill="white"/>
<path d="M231.174 366.34C231.263 366.35 231.352 366.331 231.429 366.284C231.505 366.237 231.563 366.166 231.594 366.082C231.626 365.998 231.628 365.906 231.601 365.821C231.574 365.736 231.519 365.662 231.445 365.612C229.55 364.309 224.679 361.606 221.67 361.622C221.564 361.622 221.462 361.664 221.387 361.739C221.312 361.815 221.27 361.916 221.27 362.023C221.27 362.129 221.312 362.231 221.387 362.306C221.462 362.381 221.564 362.423 221.67 362.423C224.214 362.423 228.733 364.717 230.987 366.272C231.042 366.31 231.106 366.334 231.174 366.34Z" fill="white"/>
<path d="M221.395 361.72C221.481 361.729 221.568 361.71 221.642 361.666C222.949 360.922 224.341 360.339 225.788 359.929C225.841 359.918 225.891 359.896 225.936 359.865C225.98 359.834 226.018 359.794 226.046 359.747C226.075 359.701 226.094 359.649 226.102 359.596C226.11 359.542 226.107 359.487 226.093 359.434C226.079 359.382 226.055 359.333 226.022 359.29C225.988 359.247 225.946 359.211 225.899 359.185C225.851 359.159 225.799 359.142 225.745 359.137C225.691 359.131 225.636 359.137 225.584 359.153C224.066 359.582 222.606 360.192 221.234 360.971C221.162 361.014 221.105 361.079 221.072 361.156C221.038 361.234 221.03 361.32 221.049 361.402C221.067 361.484 221.11 361.559 221.173 361.615C221.236 361.671 221.315 361.706 221.399 361.714L221.395 361.72Z" fill="white"/>
<path d="M227.158 362.083C227.246 362.093 227.334 362.073 227.409 362.027C227.485 361.981 227.543 361.911 227.574 361.828C227.606 361.746 227.609 361.655 227.584 361.571C227.559 361.486 227.507 361.412 227.435 361.361C225.161 359.853 222.537 358.955 219.816 358.754C219.763 358.753 219.711 358.761 219.662 358.78C219.613 358.799 219.567 358.827 219.529 358.863C219.491 358.899 219.46 358.942 219.438 358.99C219.416 359.038 219.404 359.089 219.403 359.142C219.401 359.194 219.41 359.247 219.428 359.296C219.447 359.345 219.475 359.39 219.511 359.429C219.547 359.467 219.59 359.498 219.638 359.52C219.686 359.542 219.737 359.554 219.79 359.555C222.352 359.746 224.822 360.59 226.965 362.008C227.022 362.05 227.088 362.076 227.158 362.083Z" fill="white"/>
<path d="M218.768 357.883C218.831 357.89 218.894 357.882 218.954 357.859C219.971 357.52 221.048 357.403 222.114 357.514C223.18 357.625 224.21 357.962 225.136 358.503C225.18 358.536 225.23 358.558 225.283 358.571C225.336 358.583 225.391 358.584 225.445 358.574C225.499 358.564 225.55 358.544 225.595 358.514C225.64 358.483 225.679 358.444 225.709 358.399C225.739 358.353 225.759 358.302 225.768 358.248C225.778 358.194 225.776 358.139 225.763 358.086C225.751 358.033 225.727 357.983 225.695 357.939C225.662 357.896 225.621 357.859 225.574 357.832C224.543 357.219 223.391 356.837 222.198 356.712C221.005 356.588 219.799 356.724 218.663 357.11C218.579 357.143 218.508 357.202 218.462 357.28C218.416 357.358 218.398 357.448 218.41 357.538C218.422 357.627 218.464 357.71 218.529 357.772C218.594 357.835 218.678 357.874 218.768 357.883Z" fill="white"/>
<path d="M219.588 359.293C219.687 359.303 219.786 359.277 219.866 359.219L220.493 358.754C221.68 357.774 222.986 356.947 224.379 356.293C224.477 356.257 224.558 356.185 224.604 356.091C224.649 355.997 224.657 355.889 224.624 355.79C224.592 355.691 224.522 355.608 224.43 355.56C224.337 355.511 224.229 355.5 224.129 355.53C222.649 356.205 221.265 357.073 220.012 358.111L219.393 358.569C219.328 358.617 219.278 358.684 219.251 358.76C219.224 358.837 219.221 358.92 219.242 358.998C219.263 359.076 219.308 359.146 219.369 359.199C219.431 359.252 219.507 359.285 219.588 359.293Z" fill="white"/>
<path d="M172.903 128.887C169.729 128.13 166.502 127.612 163.251 127.338C160.036 127.338 148.158 127.868 138.433 132.209C133.41 134.451 136.618 138.267 136.288 167.864C136.051 189.412 137.363 203.454 138.057 225.969C138.395 236.918 138.464 245.914 138.469 251.867C140.673 253.235 142.978 254.434 145.363 255.454C154.02 259.115 163.484 260.448 172.816 259.322C182.147 258.197 191.023 254.651 198.561 249.037C195.094 180.798 183.545 131.615 172.903 128.887Z" fill="#BFC9E2"/>
<path d="M156.375 79.0268C156.663 79.3822 171.276 75.9564 169.05 93.4299C168.413 98.4394 149.989 88.726 151.538 87.7167C153.086 86.7075 156.375 79.0268 156.375 79.0268Z" fill="#FEE2D5"/>
<path d="M153.009 131.394C153.009 131.394 150.853 139.381 168.467 141.634C168.467 141.634 167.572 129.322 159.178 127.152" fill="#E87578"/>
<path d="M161.575 128.418C161.56 128.492 160.864 129.297 160.119 130.157C159.411 130.997 158.476 131.616 157.426 131.94C156.376 132.264 155.255 132.279 154.196 131.985C153.766 131.867 153.364 131.666 153.012 131.393L145.926 110.987L155.651 111.353L161.575 128.418Z" fill="#E87578"/>
<path d="M160.881 126.421L155.649 111.356L146.926 111.338C149.868 116.697 155.352 123.956 160.881 126.421Z" fill="#08051A"/>
<path d="M144.66 108.805C145.59 110.28 146.612 111.695 147.72 113.041C148.304 113.539 148.818 114.112 149.249 114.746C150.94 116.576 153.027 117.997 155.35 118.899C157.673 119.8 160.171 120.16 162.654 119.95C165.483 119.695 168.155 118.54 170.278 116.653C171.295 115.656 172.152 114.509 172.821 113.251C175.288 108.489 175.6 98.617 170.314 90.1746C168.196 86.7927 162.248 77.2925 152.783 78.1809C145.124 78.8987 138.959 86.0594 138.312 92.6124C137.802 97.7605 140.698 102.422 144.66 108.805Z" fill="#E87578"/>
<path d="M139.736 108.337C142.503 107.985 145.236 107.408 147.909 106.613C147.938 106.605 147.964 106.591 147.985 106.571C148.006 106.551 148.022 106.526 148.032 106.498C148.041 106.47 148.044 106.441 148.039 106.412C148.035 106.383 148.023 106.355 148.005 106.332C147.386 105.524 146.947 104.594 146.717 103.603C146.486 102.612 146.47 101.583 146.669 100.586C147.051 99.1038 147.899 99.1642 148.138 97.8032C148.667 94.8038 144.792 92.9784 145.177 90.7704C145.396 89.5136 147.041 88.5529 151.618 87.2333C161.592 84.3572 165.141 85.5275 167.308 82.7177C169.184 80.2858 169.504 76.3495 167.797 74.4175C166.059 72.4511 162.654 73.0292 159.395 73.5883C156.936 74.0065 152.549 75.0643 145.558 79.4649C139.344 83.374 136.237 85.3321 134.542 88.7981C134.116 89.6652 131.078 96.1495 134.341 102.566C135.581 104.945 137.446 106.94 139.736 108.337Z" fill="#FEE2D5"/>
<path d="M165.697 96.9517C165.697 96.9517 166.735 99.6311 167 100.684C167.192 101.465 169.529 100.37 169.741 100.695C169.953 101.019 168.816 102.223 167.856 103.139" stroke="#08051A" stroke-width="0.751" stroke-linecap="round" stroke-linejoin="round"/>
<path d="M146.813 107.159C148.523 109.266 148.609 112.029 147.008 113.327C145.406 114.625 142.722 113.97 141.013 111.863C139.303 109.756 139.217 106.993 140.82 105.695C142.422 104.397 145.104 105.052 146.813 107.159Z" fill="#E87578"/>
<path d="M174.151 100.342C175.269 99.0646 180.018 116.954 170.408 121.101C160.797 125.248 146.571 118.907 144.75 105.22L146.976 104.428C146.976 104.428 150.675 112.499 156.346 112.28C162.016 112.06 162.644 106.001 167.7 104.305C171.609 102.994 170.898 106.354 172.996 106.882C175.094 107.409 172.869 101.802 174.151 100.342Z" fill="#FEE2D5"/>
<path d="M167.737 90.9954C167.8 91.4206 169.343 91.5012 169.949 91.5012C170.556 91.5012 172.096 91.4171 172.161 90.9882C172.22 90.608 171.117 89.9589 170.022 89.9375C168.852 89.915 167.677 90.6056 167.737 90.9954Z" fill="#FEE2D5"/>
<path d="M159.146 96.068C159.372 96.3558 158.397 97.7074 156.843 98.9311C155.289 100.155 153.748 100.786 153.526 100.498C153.305 100.21 154.065 98.5923 155.618 97.3686C157.171 96.145 158.924 95.7813 159.146 96.068Z" fill="#FEE2D5"/>
<path d="M142.199 107.986C142.835 108.089 143.441 108.331 143.974 108.692C144.508 109.054 144.956 109.528 145.287 110.08C145.154 109.988 144.995 109.942 144.833 109.95C144.671 109.958 144.517 110.018 144.393 110.122C144.269 110.226 144.182 110.368 144.146 110.525C144.111 110.683 144.128 110.849 144.195 110.996" stroke="#08051A" stroke-width="0.751" stroke-linecap="round" stroke-linejoin="round"/>
<path d="M134.587 153.892L152.259 212.677C153.081 214.549 154.539 216.07 156.374 216.971C158.209 217.871 160.304 218.094 162.287 217.6C164.271 217.106 166.016 215.926 167.214 214.27C168.412 212.613 168.986 210.587 168.834 208.548V208.556V208.535C168.817 208.321 168.796 208.105 168.763 207.891C168.733 207.7 168.68 207.51 168.637 207.32L156.395 148.298C154.701 137.366 147.008 136.088 141.679 138.429C138.807 139.689 136.498 141.96 135.19 144.811C133.883 147.662 133.668 150.893 134.587 153.892Z" fill="#E87578"/>
<path d="M201.652 165.08L201.624 165.059C201.807 164.795 201.965 164.516 202.098 164.224C202.616 163.062 202.703 161.754 202.344 160.533C201.985 159.313 201.204 158.26 200.139 157.564C199.075 156.868 197.797 156.573 196.535 156.733C195.273 156.892 194.109 157.496 193.252 158.436L193.197 158.498L193.174 158.524L154.948 201.852C154.842 201.97 154.741 202.08 154.64 202.2L154.505 202.354H154.513C153.794 203.254 153.262 204.29 152.948 205.398C152.635 206.507 152.545 207.668 152.686 208.812C152.826 209.955 153.193 211.06 153.766 212.06C154.338 213.06 155.105 213.936 156.02 214.636C156.936 215.336 157.982 215.846 159.097 216.137C160.212 216.428 161.374 216.493 162.515 216.329C163.655 216.165 164.752 215.775 165.74 215.181C166.728 214.588 167.587 213.804 168.268 212.874L168.31 212.815L168.355 212.75L201.652 165.08Z" fill="#E87578"/>
<path d="M193.463 164.925C193.013 164.632 192.675 164.195 192.506 163.685C191.861 162.056 191.385 160.364 191.085 158.638C190.544 157.283 190.126 155.882 189.835 154.453C189.768 153.545 190.382 151.906 191.579 152.163C192.606 152.383 192.86 153.971 193.89 154.184C194.663 154.342 195.311 153.619 195.743 152.957C196.664 151.535 197.438 150.024 198.055 148.446C198.529 147.219 198.766 145.354 199.723 144.408C200.701 143.443 201.7 144.296 201.805 145.378C201.871 145.393 201.939 145.392 202.004 145.372C202.069 145.353 202.127 145.317 202.174 145.268C202.273 145.12 202.355 144.961 202.416 144.794C202.904 143.867 204.069 144.341 204.422 145.099C204.576 145.43 204.409 145.882 204.576 146.196C204.91 146.823 205.473 146.629 205.966 147.025C206.116 147.183 206.219 147.377 206.266 147.589C206.314 147.801 206.302 148.021 206.234 148.227C206.093 148.635 206.004 149.061 205.97 149.492C205.998 150.296 206.636 150.826 207.005 151.477C207.397 152.215 207.504 153.072 207.305 153.884C206.94 156.267 206.099 158.552 204.832 160.603C199.472 169.601 197.603 167.367 193.463 164.925Z" fill="#E87578"/>
<path d="M202.082 145.242C201.838 148.176 201.051 151.039 199.76 153.685" stroke="#08051A" stroke-width="0.751" stroke-linecap="round" stroke-linejoin="round"/>
<path d="M205.133 145.954C205.38 148.941 204.711 151.931 203.215 154.527" stroke="#08051A" stroke-width="0.751" stroke-linecap="round" stroke-linejoin="round"/>
<path d="M206.776 150.225C206.831 152.422 206.294 154.592 205.223 156.51" stroke="#08051A" stroke-width="0.751" stroke-linecap="round" stroke-linejoin="round"/>
<path d="M141.876 130.999C139.659 131.549 137.61 132.63 135.904 134.149C131.503 138.778 132.67 146.523 133.596 151.584C136.392 166.081 140.301 180.341 145.289 194.237C152.62 193.39 159.63 190.75 165.699 186.551C165.699 186.551 158.945 125.438 141.876 130.999Z" fill="#BFC9E2"/>
<path d="M225.112 92.1468C224.017 93.5363 222.69 94.831 221.815 95.8936C219.809 98.3302 217.126 100.316 213.934 98.7045C211.247 97.347 209.923 94.4863 209.276 91.6848C208.665 89.0349 207.948 85.8141 208.898 83.1619C209.357 82.0559 209.977 81.0237 210.737 80.0986C211.083 79.5708 211.519 79.1074 212.025 78.7292C212.626 78.3324 213.582 78.2708 213.949 78.8915C214.299 79.4838 213.888 80.21 213.534 80.7963C213.18 81.3827 212.909 82.2296 213.427 82.6786C214.593 81.7266 215.585 80.579 216.358 79.2872C216.986 78.2377 217.934 76.8446 219.395 77.5032C220.68 78.0825 220.369 80.3746 221.676 80.8982C222.453 81.2097 223.427 80.7726 224.143 81.2535C225.139 81.9216 224.772 83.4663 225.146 84.4519C225.647 85.7667 227.092 86.6173 227.006 88.1738C226.781 89.6561 226.122 91.0386 225.112 92.1468Z" fill="#E87578"/>
<path d="M219.869 81.1885C219.458 82.4234 218.838 83.5785 218.035 84.6036C217.694 85.0857 217.249 85.4849 216.732 85.7716C216.472 85.9113 216.181 85.9825 215.886 85.9786C215.591 85.9746 215.302 85.8956 215.046 85.7491C214.797 85.5895 214.621 85.3392 214.554 85.0514C214.488 84.7637 214.537 84.4614 214.69 84.2091" stroke="#08051A" stroke-width="0.751" stroke-linecap="round" stroke-linejoin="round"/>
<path d="M223.668 84.2056C222.708 85.8778 221.551 87.4288 220.222 88.8254C219.721 89.4652 219.012 89.9101 218.219 90.0834C217.418 90.171 216.508 89.4804 216.689 88.6951" stroke="#08051A" stroke-width="0.751" stroke-linecap="round" stroke-linejoin="round"/>
<path d="M225.939 87.7498C225.201 89.377 224.284 90.9169 223.206 92.3411C223.011 92.6795 222.744 92.9705 222.423 93.1934C222.103 93.4162 221.737 93.5653 221.352 93.6299C220.98 93.6234 220.626 93.4719 220.365 93.2078C220.104 92.9438 219.957 92.588 219.955 92.2167" stroke="#08051A" stroke-width="0.751" stroke-linecap="round" stroke-linejoin="round"/>
<path d="M156.732 151.607C159.506 162.707 162.925 175.451 165.698 186.552C159.621 190.996 152.541 193.871 145.087 194.922C141.758 183.748 139.858 176.362 136.529 165.189" stroke="#08051A" stroke-width="0.751" stroke-linecap="round" stroke-linejoin="round"/>
<path d="M157.18 108.337L159.18 117.437C160.913 118.818 162.928 119.801 165.083 120.318C167.237 120.834 169.479 120.872 171.649 120.427C179.474 119.08 177.148 101.988 174.535 99.5918C171.922 97.1954 166.557 99.2874 166.557 99.2874C166.557 99.2874 158.119 105.105 157.18 108.337Z" fill="#14649C"/>
<path d="M171.364 95.6152C171.335 95.446 171.268 95.2857 171.168 95.1463C171.067 95.0068 170.937 94.892 170.786 94.8105C170.635 94.7289 170.467 94.6828 170.296 94.6756C170.125 94.6683 169.954 94.7002 169.796 94.7688C169.639 94.8374 169.499 94.9408 169.388 95.0713C169.277 95.2018 169.196 95.356 169.153 95.5221C169.11 95.6882 169.106 95.862 169.14 96.0302C169.174 96.1984 169.246 96.3566 169.35 96.4929" stroke="#08051A" stroke-width="0.751" stroke-linecap="round" stroke-linejoin="round"/>
<path d="M160.822 100.425C160.546 100.047 160.137 99.7887 159.677 99.7012C159.218 99.6137 158.742 99.7038 158.347 99.9534C157.952 100.203 157.666 100.593 157.547 101.046C157.428 101.498 157.485 101.978 157.707 102.39" stroke="#08051A" stroke-width="0.751" stroke-linecap="round" stroke-linejoin="round"/>
<path d="M159.157 107.984L144.752 105.22" stroke="#14649C" stroke-width="0.751" stroke-linecap="round" stroke-linejoin="round"/>
<path d="M146.926 113.871C146.926 113.871 164.22 120.892 172.157 119.545" stroke="#14649C" stroke-width="0.751" stroke-linecap="round" stroke-linejoin="round"/>
</svg>
