<?xml version="1.0" encoding="utf-8"?>
<!-- Generator: Adobe Illustrator 24.3.0, SVG Export Plug-In . SVG Version: 6.00 Build 0)  -->
<svg version="1.1" id="Layer_1" xmlns="http://www.w3.org/2000/svg" xmlns:xlink="http://www.w3.org/1999/xlink" x="0px" y="0px"
	 viewBox="0 0 32 32" style="enable-background:new 0 0 32 32;" xml:space="preserve">
<style type="text/css">
	.st0{fill:#14649C;}
	.st1{fill:#ED1F23;}
</style>
<g>
	<g>
		<g>
			<path class="st0" d="M23.1,5.5L20,3.7c-0.3-0.2-0.4-0.6-0.2-0.9c0.2-0.3,0.6-0.4,0.9-0.2l3.1,1.8c0.3,0.2,0.4,0.6,0.2,0.9
				C23.8,5.6,23.4,5.7,23.1,5.5z"/>
		</g>
		<g>
			<rect x="19.2" y="4.8" transform="matrix(0.5054 -0.8629 0.8629 0.5054 5.604 20.8348)" class="st0" width="3.5" height="1.4"/>
		</g>
	</g>
	<g>
		<rect x="18" y="7.6" transform="matrix(0.8629 0.5054 -0.5054 0.8629 7.3172 -8.1669)" class="st1" width="1.3" height="3.7"/>
		<rect x="18" y="7.6" transform="matrix(-0.5054 0.8629 -0.8629 -0.5054 36.2767 -1.9908)" class="st1" width="1.3" height="3.7"/>
	</g>
	<g>
		<g>
			<rect x="12.3" y="14" transform="matrix(0.5054 -0.8629 0.8629 0.5054 -4.9274 20.7355)" class="st0" width="6.7" height="1.4"/>
		</g>
		<g>
			
				<rect x="13.8" y="15.2" transform="matrix(0.5054 -0.8629 0.8629 0.5054 -8.0158 20.7064)" class="st0" width="0.6" height="4.3"/>
		</g>
	</g>
	<path class="st1" d="M11.9,17.4l-1.7,3c-0.2,0.3,3,2.1,3.2,1.8l1.7-3L11.9,17.4z"/>
	<g>
		<g>
			<g>
				<path class="st0" d="M10.7,23.2c-0.7-0.4-3.1-1.9-2.3-3.3L15.9,7l1,0.6L9.4,20.5c0,0.2,0.6,0.9,1.8,1.7c1.2,0.7,2.1,0.9,2.4,0.8
					l7.6-12.9l1,0.6l-7.6,12.9C13.9,24.9,11.4,23.6,10.7,23.2z"/>
			</g>
			<path class="st0" d="M16.4,7.4l-1.2,2.1c-0.2,0-0.3-0.1-0.5-0.2C14,9,13.8,8.1,14.2,7.5C14.6,6.9,15.4,6.7,16,7
				C16.2,7.1,16.3,7.2,16.4,7.4z"/>
			<path class="st0" d="M22.7,12.5c-0.4,0.6-1.2,0.9-1.8,0.5c-0.2-0.1-0.3-0.2-0.4-0.4l1.2-2.1c0.2,0,0.4,0.1,0.5,0.2
				C22.8,11,23,11.8,22.7,12.5z"/>
		</g>
		<polygon class="st0" points="11.6,23.3 10.1,22.4 9.3,24.5 10.3,25.1 		"/>
		<g>
			<polygon class="st0" points="6.3,30.7 6.3,30.7 9.8,24.3 10.1,24.5 			"/>
		</g>
	</g>
</g>
</svg>
